<svg xmlns="http://www.w3.org/2000/svg" viewBox="0 0 5000 5000"><g fill="#006CA8" style="transform:none"><path d="M1773 4697c-40-62-116-188-171-282-217-373-271-460-286-459-9 1-16-6-16-15 0-24 541-381 576-381 14 0 23 4 19 10-3 5 32 193 79 417s94 458 106 518l21 110-33 28c-44 37-167 130-198 150l-25 16-72-112zm2569 56c-19-18-98-157-262-463-46-85-92-168-103-183-18-26-20-27-37-12-17 16-20 13-51-49-32-64-32-66-13-80 18-14 18-16 2-43-9-15-55-98-102-182-97-174-101-180-118-163-18 18-22 16-53-44-28-52-29-56-12-68 9-7 17-16 17-20 0-12-188-342-210-368-17-22-19-22-37-6-18 17-21 16-63-27-41-42-43-45-27-63 17-18 11-24-125-150-117-107-146-128-160-121-15 8-18 5-18-18 0-30 58-103 82-103 7 0 54-41 103-90 133-134 113-143 356 158 194 240 253 331 284 440 3 12 11 22 16 22s9 7 9 16c0 20 321 748 332 752 4 2 8 11 8 19 0 9 9 30 19 47s22 45 26 63c3 17 15 41 26 54 10 12 19 32 19 45 0 12 7 29 15 38 8 8 15 20 15 28 0 18 201 472 213 479 15 10 6 23-46 68-53 45-75 50-105 24z"/><path d="M4513 4652c-8-5-608-1384-752-1730-19-47-77-127-218-304-170-213-193-246-193-277 0-34 13-48 246-266 235-220 301-270 287-216-4 15 110 411 124 430 2 2 11-3 22-13 18-16 19-15 40 56 12 40 46 153 76 250 30 98 55 182 55 188 0 5-7 10-16 10-25 0-14 46 81 353 224 727 297 968 350 1155l56 204-25 36c-40 58-120 132-133 124zm-3473-955c0-7-127-82-282-166-305-165-573-316-603-337-17-13-17-15 7-51 44-65 185-203 208-203 19 0 453 89 854 176 138 29 170 34 177 23 6-10 9-4 9 17 0 23-32 80-123 220-68 104-143 222-166 262-29 49-49 72-62 72-11 0-19-6-19-13zm1245-1686c6-10-231-281-246-281-4 0-12 7-19 15-11 13-17 11-50-19-21-19-48-37-60-41-20-6-21-8-4-26 9-11 15-21 13-23-10-8-380-206-386-206-3 0-14 7-24 16-16 14-22 13-71-12-66-33-62-28-47-53 7-11 11-22 9-25-10-9-431-226-440-226-5 0-13 7-18 16-7 13-15 12-66-10-53-23-56-27-46-47 7-12 8-25 3-29-7-8-108-62-504-269-176-93-180-99-116-178 25-32 52-57 59-55 23 5 1691 713 1837 780 29 13 105 82 232 208 164 163 189 192 189 218 0 25-20 52-102 141-66 70-111 111-126 113s-22 0-17-7z"/><path d="M2354 1503c-113-109-214-198-240-211-40-20-1060-447-1632-683l-203-83 86-86 85-85 173 44c94 24 408 113 697 198 883 260 912 267 927 247 11-15 19-17 51-8 328 93 480 140 472 148-6 6-10 15-10 22 0 13 345 118 360 109 6-3 10 3 10 17 0 16-49 74-158 189-86 91-199 211-251 267-136 148-119 152-367-85z"/></g><path d="M1018 3986c-49-52-88-97-88-99 0-3 23-42 51-87s53-89 57-98c15-42 322-525 347-547 6-5 73-100 150-210 200-289 257-364 479-630 28-33 95-111 151-173 55-62 118-135 140-162 22-28 76-88 120-136 69-75 77-87 62-96-16-8-13-15 25-57 36-41 46-47 62-39 16 9 27 3 65-39 459-492 817-840 1106-1072 318-257 653-411 891-411 112 0 167 28 206 104 18 35 20 54 16 145-4 88-11 125-41 214-88 260-224 474-524 827-137 161-200 228-206 219-1-2-11-22-21-44l-18-40-30 34c-25 28-29 40-25 70 3 20 8 43 11 51 4 10-37 59-125 150l-131 135-13-43c-7-23-19-49-25-58-11-13-15-13-32 2-29 27-41 82-29 134 7 34 7 48-2 56-7 7-61 57-121 113l-109 102-13-37c-19-55-30-62-56-36-24 24-27 64-13 155 6 39 4 51-10 67-16 18-20 19-35 5-14-13-26-5-115 85-68 68-102 96-107 87-6-9-8-9-8 1 0 24-20 12-34-22-19-44-30-50-52-25-15 17-19 37-19 91v70l-96 86c-276 251-493 422-769 609-102 69-190 131-195 138-13 16-539 363-563 372-9 4-61 35-114 70-53 34-100 63-105 63-4 0-47-42-95-94zm249-206c24-16 47-30 52-30 4 0 17-13 29-30 13-16 27-30 33-30s22-13 36-30c13-16 30-30 37-30s22-13 34-30c13-16 28-30 35-30s25-16 40-35 32-35 38-35 22-13 36-30c13-16 29-30 34-30s23-16 40-35 36-35 42-35c5 0 25-18 44-40s40-40 46-40c7 0 25-16 40-35s34-35 41-35 27-18 45-40c17-22 36-40 41-40 11 0 90-84 107-114 29-50 5-118-53-157-36-24-71-24-105-1-31 20-129 110-129 118 0 3-53 67-118 142-238 275-503 594-518 624-12 23-13 33-3 44 16 20 25 18 76-16zm491-939c34-24 66-77 52-86-23-14-90 52-90 89 0 21 6 20 38-3zm354-368c318-355 448-493 772-820 320-324 352-353 383-353 29 0 33-3 33-28 0-23 33-61 181-209 165-165 180-182 170-202-7-11-15-21-20-21-16 0-86 63-359 323-471 450-764 755-1155 1201-184 210-196 228-177 250 19 24 38 8 172-141zm1200-1160c10-9 18-20 18-25 0-11-49 24-50 35 0 12 12 8 32-10zm1302-533c42-80 69-181 60-224-19-90-106-191-191-220-62-21-101-20-176 5-60 20-177 84-177 97 0 3 9 16 21 28l20 21 57-30c49-27 68-31 132-32 91 0 140 21 177 76 23 35 25 46 22 127-4 80-7 94-37 141l-32 52 27 36 27 35 18-24c9-12 33-52 52-88zm-522 1763-32-107 32-33c18-18 37-33 44-33s22-13 34-30c15-22 30-30 51-30 23 0 29-4 29-21 0-38 127-68 158-37 16 16 15 96-1 128-7 14-23 26-35 28-17 3-22 10-22 32 0 21-12 39-50 73-27 25-50 49-50 54 0 20-86 83-113 83-8 0-25-43-45-107zm258-156c0-20-25 1-28 24-2 23-2 23 13 5 8-11 15-24 15-29zm-43-42c3-9 3-18 0-21-9-9-48 16-42 27 9 14 35 11 42-6zM2470 926c-147-44-147-48 4-199 122-120 161-147 219-147 63 0 67 5 67 80 0 63-3 72-41 130-23 34-50 67-60 73-11 7-19 17-19 22 0 6-15 25-32 42l-33 30-105-31z" fill="#C8C8C8" style="transform:none"/><path d="M864 4188c-63-67-74-88-63-112 22-42 142-216 150-216 9 0 189 192 189 201s-223 159-236 159c-5 0-24-15-40-32zm2926-68c-40-40-17-96 58-138l41-23 18 33c32 59 43 90 37 100-9 15-86 48-111 48-13 0-32-9-43-20zm-2624-293c-14-15-26-32-26-39 1-29 40-97 94-161 32-37 55-67 51-67-3 0 10-14 30-31 20-18 34-34 31-36-3-3 9-17 25-30 16-14 28-28 25-30-3-3 9-17 25-30 16-14 28-28 25-30-3-3 9-17 25-30 16-14 28-28 25-30-2-3 11-19 30-35 19-17 33-33 30-35-2-3 11-19 30-35 19-17 33-33 30-35-2-3 11-19 30-35 19-17 33-33 30-35-2-3 11-19 30-35 19-17 33-33 30-35-2-3 11-18 29-35 19-16 33-33 32-37s29-35 66-69c64-58 112-82 162-82 37 0 143 79 127 94-3 3-1 6 5 6s9 9 6 20 0 20 6 20 11 11 11 25-5 25-11 25-9 9-6 20 1 20-5 20c-5 0-6 5-3 10 3 6 1 10-6 10s-10 2-7 5c6 6-91 105-103 105-4 0-23 18-40 40-18 22-38 40-45 40s-26 16-41 35-33 35-40 35c-6 0-27 18-46 40s-39 40-44 40c-6 0-25 16-42 35s-35 35-40 35-21 14-34 30c-14 17-30 30-36 30s-23 16-38 35-33 35-40 35-22 14-35 30c-12 17-27 30-34 30s-24 14-37 30c-14 17-30 30-36 30s-20 14-33 30c-12 17-25 30-29 30-5 0-28 14-53 30-65 44-99 48-130 17zm2356-219c-7-7-12-26-12-44 0-26 9-40 42-68 23-20 45-36 49-36s21 24 38 52c33 57 30 67-20 94-34 17-81 18-97 2zm-317-494c-24-25-11-63 37-107l41-38 44 43c24 23 43 46 43 50s-20 21-44 38c-50 33-96 39-121 14zm962-341c-2-5-14-39-27-76-17-54-19-71-10-82 7-8 18-15 24-15 13 0 67-53 69-67 0-4 22-27 48-51 125-112 158-242 51-200-21 8-36 21-34 28 4 16-16 30-45 30-13 0-31 13-43 30s-27 30-34 30c-8 0-31 19-53 43l-39 42-28-99-27-99 38-41c123-133 221-216 256-216 61 0 240 171 298 285l34 66-185 182c-102 101-202 190-222 200-38 18-64 22-71 10zm-2312-973c-25-28-13-78 30-120 31-30 36-32 63-21 16 7 43 26 58 42l29 30-47 45c-54 50-101 59-133 24zm-495-290c-30-30-23-66 23-117l20-22 59 30 59 30-22 30c-24 35-75 69-101 69-10 0-27-9-38-20zm-548-302c-18-18-14-67 8-103l20-32 45 23c25 12 50 24 56 26 16 5-14 62-43 82-27 19-69 21-86 4zm1837-231c-57-16-106-31-108-33-3-3 12-21 32-42 20-20 37-41 38-47 2-5 13-18 26-29 13-10 22-21 19-24s3-12 14-19c11-8 18-18 15-23-3-4 2-11 11-14 8-3 13-10 10-15-4-5-1-11 5-13s14-25 16-50c4-40 2-47-16-53-12-3-36 1-56 11-38 18-258 230-261 252-4 23-8 23-81 1l-71-22 10-31c20-57 95-150 224-277 71-69 140-131 153-138s37-10 53-7c75 15 233 158 277 250 45 96 47 91-87 228l-120 124-103-29z" fill="#959595" style="transform:none"/><path d="M4464 4692c-11-7-210-452-216-482-2-8-9-21-15-28-12-12-17-34-14-54 0-5-4-8-10-8-5 0-7-4-4-10 3-5 2-10-4-10-9 0-37-68-33-82 1-5-2-8-8-8s-9-3-8-7c1-5-6-23-15-40-10-18-14-33-10-33 5 0 3-4-3-8-12-8-337-741-337-759 0-7-4-13-8-13-6 0-20-29-24-50 0-3-8-19-18-36-9-17-13-34-10-38 4-3 1-6-6-6s-10-4-7-9c10-15-54-102-246-339-171-211-188-235-175-250 9-11 13-29 10-50-7-46 18-72 70-72 38 0 39 1 24 18-10 10-17 21-17 24 0 2 90 117 199 254 110 136 197 252 195 256-3 4 0 8 7 8s9 3 6 6c-3 4-1 16 5 28 7 11 11 24 10 29-1 4 2 7 6 7 5 0 9 6 9 13 0 12 274 653 296 692 6 11 12 25 13 30 6 30 407 951 417 957 8 5 1 18-23 43-36 37-39 39-56 27zM2308 1575c-119-118-208-198-233-209-67-31-853-366-1355-578-261-111-477-203-479-204-6-5 49-75 64-80 6-3 153 53 326 125 588 242 1469 610 1511 632 43 21 89 62 325 291l121 118-43 48-43 47-194-190z" fill="#004EAC" style="transform:none"/><path d="M1696 2884c-47-46 32-174 107-174 76 0 57 117-27 169-40 25-59 26-80 5zm208-249c-34-52-19-75 309-444 102-114 257-284 345-377 322-341 982-977 1038-1000 23-10 41-11 57-5 28 11 37 29 37 74 0 29-46 77-477 503-482 475-698 699-1012 1051-94 106-181 199-193 208-35 24-85 19-104-10z" fill="#DFDFDF" style="transform:none"/><path d="M2926 2738c-10-40-6-142 7-168 7-14 25-31 40-38 35-17 64-2 83 43 17 43 18 37-7 66-12 13-29 33-38 44s-31 33-48 48l-30 28-7-23zm373-364c-6-16-9-58-7-93 4-55 8-67 32-87 39-34 72-31 96 9 11 17 20 41 20 53 0 22-34 59-72 78-12 6-28 22-34 34-18 36-23 37-35 6zm327-283c-17-26-18-146-3-183 21-50 59-75 93-59 25 11 54 64 54 98 0 24-135 159-144 144zm344-365c-5-15-10-52-10-83 0-49 4-59 34-89 50-50 82-42 110 26 14 35 14 36-24 75-20 22-51 53-68 69l-31 29-11-27zm517-839-55-63 30-39c97-128 89-258-19-311-69-34-153-17-246 49l-29 20-56-56-55-55 73-48c181-117 357-126 472-24 143 125 141 308-5 528-23 34-45 62-48 62-4 0-31-28-62-63z" fill="#3B5361" style="transform:none"/></svg>