<svg xmlns="http://www.w3.org/2000/svg" viewBox="0 0 120 120" xml:space="preserve" class="injected-svg js-svg-injector"><style>.icon-36-1{fill:#bdc5d1}.icon-36-4{fill:#377dff}</style><path class="fill-none stroke-primary" stroke-width="3" stroke-linecap="round" stroke-linejoin="round" stroke-miterlimit="10" d="M24.6 115.5 6 96.9c-1-1-1-2.5 0-3.4L95.7 3.8c1-1 2.5-1 3.4 0l18.6 18.6c1 1 1 2.5 0 3.4L28 115.5c-.9.9-2.5.9-3.4 0zM99.9 43l-4.5-4.5M56.2 86.7l-4.5-4.5M89 53.9l-8.5-8.5M45.3 97.6l-8.5-8.5m74-57-8.5-8.5m-67.9 84.9-4.5-4.5" style="fill:none;stroke:#377dff"/><path class="icon-36-1 fill-gray-400" opacity=".5" d="M101.8 116.2c-3.8 3.8-9.1 4.5-11.9 1.7L5.3 33.2 1.6 14l17.3 5.7 84.6 84.6c2.8 2.8 2.1 8.1-1.7 11.9z"/><path class="fill-white stroke-gray-400" stroke-width="3" stroke-linecap="round" stroke-linejoin="round" stroke-miterlimit="10" style="fill:#fff;stroke:#bdc5d1" d="M4.5 2.4 11 23.9 90 103l15.1-15.2-79-79z"/><path class="fill-none stroke-gray-400" stroke-width="3" stroke-linecap="round" stroke-linejoin="round" stroke-miterlimit="10" style="fill:none;stroke:#bdc5d1" d="M25.3 9.6 11.8 23.1"/><path class="icon-36-4 fill-primary" d="m81.7 96.8 9.2 9.2c4.8 4.8 12.5 4.8 17.3 0 4.8-4.8 4.8-12.5 0-17.3L99 79.6 81.7 96.8z"/><path class="icon-36-1 fill-gray-400" opacity=".5" d="M9 12.4s5.6-.6 5.6-5.6L6.7 4.5 9 12.4z"/><path class="icon-36-4 fill-primary" d="M5.7 9.7c1.6-.3 5.9-1.6 6.2-6.2 0-.3-.2-.6-.5-.7L3.4.5c-.5-.1-1 .3-.8.8L5 9.2c0 .3.3.5.7.5z"/></svg>