<svg width="80" height="80" viewBox="0 0 80 80" fill="none" xmlns="http://www.w3.org/2000/svg">
<path d="M80 0V51.5625L75.3125 56.4062H4.6875L0 51.5625V0H80Z" fill="#474F54"/>
<path d="M80 0V51.5625L75.3125 56.4062H40V0H80Z" fill="#32393F"/>
<path d="M28.2812 63.5938H51.7188V77.6562H28.2812V63.5938Z" fill="#DADAE5"/>
<path d="M40 63.5938H51.7188V77.6562H40V63.5938Z" fill="#C9C9D3"/>
<path d="M0 51.5625H80V65.9375H0V51.5625Z" fill="#EFEFF4"/>
<path d="M40 51.5625H80V65.9375H40V51.5625Z" fill="#DADAE5"/>
<path d="M18.9062 75.3125H61.0938V80H18.9062V75.3125Z" fill="#EFEFF4"/>
<path d="M40 75.3125H61.0938V80H40V75.3125Z" fill="#DADAE5"/>
<path d="M25.9375 9.375C16.8925 9.375 9.53125 16.7362 9.53125 25.7812C9.53125 34.8263 16.8925 42.1875 25.9375 42.1875C34.9825 42.1875 42.3438 34.8263 42.3438 25.7812C42.3438 16.7362 34.9825 9.375 25.9375 9.375ZM25.9375 32.8125C24.0733 32.8105 22.286 32.0691 20.9678 30.7509C19.6497 29.4327 18.9082 27.6454 18.9062 25.7812C18.9082 23.9171 19.6497 22.1298 20.9678 20.8116C22.286 19.4934 24.0733 18.752 25.9375 18.75C27.8017 18.752 29.589 19.4934 30.9072 20.8116C32.2253 22.1298 32.9668 23.9171 32.9688 25.7812C32.9668 27.6454 32.2253 29.4327 30.9072 30.7509C29.589 32.0691 27.8017 32.8105 25.9375 32.8125Z" fill="#549EF2"/>
<path d="M56.4062 9.375H70.625V14.0625H56.4062V9.375ZM47.0312 9.375H51.7188V14.0625H47.0312V9.375ZM56.4062 28.125H70.625V32.8125H56.4062V28.125ZM47.0312 28.125H51.7188V32.8125H47.0312V28.125ZM47.0312 18.75H70.625V23.4375H47.0312V18.75ZM47.0312 37.5H70.625V42.1875H47.0312V37.5Z" fill="#377FD2"/>
</svg>
