<svg class="brand__logo" xmlns="http://www.w3.org/2000/svg" viewBox="0 0 312 95.5" xml:space="preserve"><path d="M71.398 47.1c-12-12.7-20.8-28-25.6-44.8-.4-1.4-1.6-2.3-3-2.3h-13.3c-1.4 0-2.6 1-3 2.3-4.8 16.8-13.6 32.1-25.6 44.8-1 1-1.2 2.6-.5 3.8l6.6 11.5c.7 1.2 2.1 1.8 3.5 1.5 8.4-2.1 17-3.1 25.6-3.1 8.6 0 17.3 1 25.6 3.1 1.4.4 2.8-.3 3.5-1.5l6.6-11.6c.7-1.2.5-2.7-.4-3.7zm-14.7 9.7-46.6-10c-.2-.1-.4-.3-.3-.5 0-.1 0-.1.1-.2l31.9-35.8c.1-.2.4-.2.5 0l.1.1 14.8 45.8c.1.2-.1.5-.3.5-.1.1-.1.1-.2.1z" fill="#fa4616"/><path fill="#005776" d="m111.973 10.862-18.5 42.2h8.6l4.2-9.9h18.5l4.2 9.9h8.8l-18.4-42.2h-7.4zm-2.6 24.9 6.2-14.3 6.2 14.3h-12.4zm43-24.6h-8.3v41.9h29.8v-7.7h-21.5v-34.2zm70.5-.3-18.5 42.2h8.6l4.2-9.9h18.5l4.2 9.9h8.8l-18.5-42.2h-7.3zm-2.6 24.9 6.2-14.3 6.2 14.3h-12.4zm35.4-24.6h8.3v41.9h-8.3zm45.1 26.2c6-1.9 9.4-6.5 9.4-12.7 0-8.3-6-13.5-15.7-13.5h-18.8v41.9h8.3v-14.2h8.1l10.1 14.3h9.9l-11.3-15.8zm-16.8-18.5h9.9c5.1 0 7.9 2.2 7.9 6.3 0 3.9-3 6.3-7.9 6.3h-9.9v-12.6zm-112.6-7.7v8h12.9v34h8.5v-34h12.9v-8h-34.3z"/><path fill="#2dccd3" d="M93.5 84.8c0-4.9 3.7-8.9 9-8.9s8.9 4 8.9 8.8c0 4.8-3.7 8.8-9 8.8-5.3.1-8.9-3.9-8.9-8.7zm14.7 0c0-3.4-2.4-6.1-5.8-6.1s-5.8 2.7-5.8 6 2.4 6.1 5.8 6.1 5.8-2.7 5.8-6zm7.7-8.6h2.8l9.2 11.8V76.2h3v17.1h-2.5L119 81.1v12.2h-3V76.2zm20.1 0h3v14.4h9v2.7h-12V76.2zm17.9 10.3-6.8-10.4h3.6l4.8 7.6 4.8-7.6h3.4l-6.8 10.3v6.8h-3v-6.7zm21.5-10.3h12.7v2.7h-9.7v4.7h8.6v2.7h-8.6v7h-3V76.2zm15.9 8.6c0-4.9 3.7-8.9 9-8.9s8.9 4 8.9 8.8c0 4.8-3.7 8.8-9 8.8s-8.9-3.9-8.9-8.7zm14.8 0c0-3.4-2.4-6.1-5.8-6.1s-5.8 2.7-5.8 6 2.4 6.1 5.8 6.1 5.8-2.7 5.8-6zm7.6-8.6h7.6c2.2 0 3.8.6 4.9 1.7.9.9 1.4 2.2 1.4 3.7 0 2.8-1.7 4.5-4.1 5.2l4.6 6.5h-3.6l-4.2-6h-3.8v6h-3V76.2zm7.4 8.4c2.2 0 3.5-1.1 3.5-2.9 0-1.8-1.3-2.8-3.5-2.8h-4.4v5.7h4.4zm9.5-8.4h3.3l4.1 12.7 4.2-12.7h2.5l4.2 12.7 4.1-12.7h3.2l-5.9 17.2h-2.6l-4.2-12.3-4.2 12.3h-2.6l-6.1-17.2zm33.3-.2h2.8l7.5 17.2H271l-1.7-4.1h-8.1l-1.8 4.1h-3.1l7.6-17.2zm4.3 10.5-3-6.8-2.9 6.8h5.9zm9.8-10.3h7.6c2.2 0 3.8.6 4.9 1.7.9.9 1.4 2.2 1.4 3.7 0 2.8-1.7 4.5-4.1 5.2l4.6 6.5h-3.6l-4.2-6H281v6h-3V76.2zm7.4 8.4c2.2 0 3.5-1.1 3.5-2.9 0-1.8-1.3-2.8-3.5-2.8H281v5.7h4.4zm11.1-8.4h6.4c5.4 0 9.1 3.7 9.1 8.5s-3.7 8.6-9.1 8.6h-6.4V76.2zm3 2.7v11.6h3.4c3.6 0 5.9-2.4 5.9-5.8 0-3.3-2.3-5.8-5.9-5.8h-3.4z"/></svg>