<svg xmlns="http://www.w3.org/2000/svg" viewBox="0 0 18140 6500"><path d="M3580 5794c-509-30-997-120-1408-258-212-72-319-116-502-207-522-261-865-610-975-993-98-343 1-716 270-1014 30-33 55-63 55-67 0-3-31-43-69-88-201-239-292-466-292-727 0-223 68-425 212-630 72-103 263-292 388-384 801-592 2200-852 3530-656 944 140 1752 525 2115 1008 162 215 238 426 237 662 0 263-97 503-301 738-33 38-60 73-60 77s25 35 56 68c216 239 330 549 304 827-37 383-272 714-719 1011-483 321-1165 535-1961 614-148 15-733 27-880 19zm751-224c1214-93 2210-544 2505-1135 111-223 122-435 35-661-36-94-129-240-204-321l-53-56-82 61c-480 356-1180 592-2042 688-196 21-754 30-975 15-916-63-1725-316-2247-703l-82-61-54 59c-198 217-293 493-251 730 54 308 276 585 664 829 106 67 370 197 505 250 400 157 898 264 1400 304 155 12 725 13 881 1zm2430-2638c60-86 120-212 145-302 27-99 25-291-4-395-99-344-413-649-924-895-1168-561-2997-559-4163 4-271 131-461 261-625 425-153 153-244 299-291 466-30 104-32 295-5 395 24 88 85 217 141 297 60 85 136 173 150 173 6 0 47-26 90-58 543-396 1367-647 2310-702 1107-65 2278 214 2935 699l95 70 47-52c26-29 71-85 99-125zm2773 1046c56-106 275-518 485-915l383-723h223l450 837c248 460 469 872 492 915l42 78h-254l-127-232-126-233H9929l-122 232-122 233h-253l102-192zm1446-493c0-12-463-865-470-865-6 0-460 853-460 865 0 3 209 5 465 5s465-2 465-5zm732-207c-264-491-485-903-491-916l-12-23 127 3 128 3 416 770c228 424 420 769 425 769 6-1 191-345 413-765s407-768 411-772 62-6 129-5l122 3-484 910-483 910-110 3-111 3-480-893zm1888-23v-915h1730v230h-1510v580h1340v220h-1340v570h1510v230h-1730v-915zm1950 0v-915h220v759l37 7c54 10 343-3 453-21 136-22 263-58 366-102 252-109 461-312 582-565l37-77 119-1h118l-7 27c-11 46-105 225-163 313-70 104-209 251-311 328-99 75-258 154-367 183-70 18-83 24-63 30 234 69 332 114 460 217 203 163 367 429 433 705l6 27h-238l-32-102c-154-499-506-705-1253-734l-177-7v843h-220v-915z" fill="#212B3D"/></svg>