<svg xmlns="http://www.w3.org/2000/svg" viewBox="0 0 6740 3480"><g fill="transparent"><path d="M0 1740V0h6740v3480H0V1740zm1225 606c118-33 203-84 296-176 70-69 94-102 127-170 57-118 75-202 69-320-8-158-70-293-180-397-60-57-101-80-199-112l-68-23v-77l-45 20c-24 11-83 24-131 30-91 11-407 7-436-5-10-5-20-22-23-39-4-18-5-216-3-442 2-318 6-415 16-433 22-38 71-52 184-52 190 0 307 46 424 165 123 124 160 234 152 448-5 125-23 193-65 239-9 10-12 18-6 18 5 0 37-27 70-61 237-237 170-605-138-759-115-58-226-83-379-84-194-1-690 18-640 24 107 14 162 75 194 214 14 58 16 180 16 894 0 505-4 852-10 892-17 108-36 148-89 182l-46 30 95-6c52-3 187 0 300 8 251 17 433 14 515-8zm4440-6c181-56 343-199 422-370 65-141 70-332 14-475-64-164-170-266-331-320l-80-27v-76l-41 19c-58 29-197 41-393 36-162-5-171-6-189-28-17-22-18-47-15-448 2-324 6-431 16-449 21-37 74-52 186-52 55 0 130 7 165 15 168 40 321 173 380 330 55 147 45 376-22 494-18 31-11 28 47-29 99-96 146-201 146-329-1-263-193-452-516-507-88-15-123-16-309-5-115 6-280 12-365 12-115 1-141 3-102 9 107 16 162 87 196 251 3 14 6 401 6 860 1 695-1 848-14 917-16 93-47 144-100 168-29 14-26 14 54 10 47-3 184 1 305 9 288 18 448 14 540-15zm-2610-10c39-12 110-43 158-68 84-43 239-154 281-201 31-34 74-28 131 21 100 83 250 190 305 218 131 66 273 76 395 29l60-24-85-6c-72-4-96-11-160-43-116-59-283-183-412-305-53-49-58-58-58-96 0-24 11-68 26-100 40-91 81-268 94-405 14-151 24-186 64-224l31-29-40 6c-22 4-103 7-179 7h-140l50 25c53 27 96 81 117 150 7 24 12 101 12 195 0 144-2 161-29 243l-28 87h-44c-43 0-46-3-187-142-150-150-246-254-418-454-57-66-145-168-195-225-189-218-280-354-308-464-34-127-13-234 56-302 71-68 99-78 214-78 96 0 103 2 177 38 99 49 199 146 244 237l32 64-5-99c-3-55-7-123-10-150l-5-50-43 3c-32 3-70-6-142-33-138-52-229-58-338-21-164 55-267 168-295 322-18 98 5 195 80 334 30 55 40 83 37 107s0 33 10 33c35 0 90 51 180 164 205 259 481 566 661 734 123 116 131 126 130 160 0 32-7 43-51 79-120 99-288 152-480 153-260 0-457-89-618-282-75-90-117-162-153-265-57-162-48-406 18-540l24-48-35 40c-52 58-121 207-139 297-76 386 166 778 555 898 123 38 134 39 270 35 82-2 135-10 185-25z"/><path d="M830 2328c-84-12-160-52-182-98-16-32-18-78-18-525 0-292 4-496 10-505 8-13 48-15 262-15 242 0 256 1 318 24 83 30 134 65 199 137 108 118 144 232 143 454-1 212-28 295-128 400-97 102-211 140-414 139-69-1-154-6-190-11zm4421 1c-36-5-87-22-114-36-85-47-82-22-85-580-3-484-2-493 18-513 19-19 32-20 238-20 250 0 326 12 409 62 180 109 273 298 273 550-1 225-62 372-193 462-93 64-150 78-327 82-85 1-184-2-219-7z"/></g><path d="M4384 2325c-4-10-20-15-45-15-31 0-39-4-39-19 0-18 23-24 139-34 36-3 37 19 3 53-34 33-50 37-58 15zm1716-349c0-10-11-19-29-22-22-5-30-13-35-36-11-54-7-359 5-399 10-33 16-38 51-44 22-4 41-5 43-3 3 2 12 33 21 68 22 87 15 310-12 389-18 53-44 80-44 47zm-4447-13c-51-6-58-48-45-271 11-202 14-211 78-212 29 0 33 4 45 48 21 72 19 311-4 385-10 31-23 56-30 55-7 0-27-3-44-5z" fill="#8C774B"/><g fill="#947D4E"><path d="M4240 2360c0-25 4-30 25-30 14 0 25-4 25-10 0-5-7-10-15-10-9 0-15-9-15-21 0-20 4-21 60-16 33 3 62 1 66-4 3-5 9-7 14-4s11 1 15-5c9-15 45-12 45 4 0 8-12 17-27 22-21 5-24 8-10 11 9 3 17 8 17 12 0 17-93 58-172 75-26 6-28 4-28-24zm-2610-290c0-15-7-20-25-20-19 0-26-7-32-27-7-31-10-152-4-223 2-25 0-138-4-252l-7-208h44c40 0 45 3 69 43 14 23 32 63 41 88 16 46 16 46-6 44-49-6-56 13-66 171-12 184-4 250 29 239 9-3 24 1 34 7 15 12 13 19-18 86-33 71-55 92-55 52zm4366-27c-3-10-4-115-2-233s4-270 5-337l1-123h39c39 0 41 1 70 64 17 35 31 67 31 70 0 15-25 33-40 29-26-7-38 58-39 207-1 178 3 196 41 204 29 6 30 8 25 41-3 19-15 49-27 65-17 24-29 30-60 30-28 0-40-5-44-17z"/><path d="M6112 1898c2-14 11-24 23-25 16-1 16-1 3 3-19 6-25 24-8 24 6 0 10 5 10 10 0 6-7 10-16 10-10 0-14-7-12-22z"/></g><path d="M4153 2365c-17-16-23-34-23-63 0-39 2-41 37-48 23-4 54-1 86 9 28 9 54 14 59 11 4-3 8 6 8 20 0 18 5 26 18 26 14 0 14 2 3 9-8 5-11 16-7 26 5 15 2 16-28 11-25-5-35-3-40 9-9 24-86 18-113-10zm1837-204c0-15-6-21-24-21-47 0-55-41-31-150 15-71 28-159 27-195-1-89-10-203-16-213-9-16 14-286 25-290 5-2 9-16 9-30 1-27 1-27 36 13 37 41 101 140 87 133-4-2-20-10-35-18-16-7-30-11-33-8-8 8-11 628-3 641 5 8 12 6 26-6 28-26 55-23 46 6-8 27-76 128-98 146-14 12-16 11-16-8zm-4454-48c-6-21-8-147-5-333 1-74-1-169-5-210s-3-120 1-175l8-100 37-3c36-3 39 0 73 52 20 31 38 63 41 71 10 25-20 17-56-15-18-16-35-30-36-30s0 46 2 103c11 245 12 316 3 372-8 57 0 158 15 172 3 3 17 0 31-7s28-10 32-7c3 4-2 7-13 7-14 0-16 2-5 9 16 10 8 43-21 84-15 21-27 27-58 27-28 0-40-5-44-17z" fill="#9D8552"/><path d="M2970 3282c0-17-6-22-27-22-24-1-25-2-10-11 21-12 23-39 2-39-8 0-15-4-15-9 0-10 34-21 68-21 19 0 22 5 22 43 0 31-6 49-20 62-19 18-20 17-20-3zm-1680-137c0-8-4-15-10-15-5 0-10-22-10-49 0-35 4-51 16-55 39-15 44-8 44 64 0 63-2 70-20 70-11 0-20-7-20-15zm-920-55c0-13-7-20-20-20-29 0-25-27 5-34 31-8 32-19 3-46l-22-20h37c26 0 37 4 37 15 0 8 5 15 10 15 6 0 10 25 10 55 0 54 0 55-30 55-23 0-30-4-30-20zm1540-71v-70l27 3c31 3 41 32 35 100-4 34-7 38-33 38h-29v-71zm2138-636c-10-2-18-14-17-26 0-12-3-55-7-94l-7-73h39c38 0 203 66 204 83 0 4-12 7-27 7-82 1-96 31-28 60 25 11 45 24 45 30 0 8-6 8-20 0-16-9-22-8-26 5-5 12-21 15-73 14-36-1-74-3-83-6zm1861-161c-26-2-38-9-42-23-3-10-13-19-22-19-13 0-9-11 19-49 58-79 85-167 92-301 7-133-11-227-67-345-38-80-44-129-27-210 13-59 14-60 49-63 32-3 42 3 83 44 33 33 44 49 35 55-9 5-7 9 7 12 10 2 5 2-12 0l-32-4-6 78c-9 110-8 142 4 287 10 112 10 144-5 235-10 58-22 119-26 135-12 42 5 59 53 51 24-4 38-3 38 4 0 6-24 34-52 64-48 47-57 53-89 49zm-4389-12c-8-5-27-10-42-10-26 0-28-3-28-39 0-22 10-57 24-82 36-66 55-143 61-252 6-114-18-243-59-326-23-44-26-62-26-155 0-90 3-107 18-118 11-7 21-19 23-27 4-10 26 6 72 49 37 34 67 66 67 71s-15 8-32 7l-33-3-7 90c-4 50-2 122 3 162 14 97 15 202 6 363-7 138-1 178 25 152 16-16 48-15 48 1 0 8-24 39-52 71-42 44-56 54-68 46zm-10-1365c0-11-11-15-36-15h-36l7-177c4-98 9-181 12-185 2-5 12-8 22-8 14 0 21-10 25-36 10-48 27-39 51 27 40 111 17 409-31 409-8 0-14-7-14-15zm4362-137c-20-169-17-202 18-231 17-14 30-35 30-47 0-16 5-21 22-18 17 2 27 15 37 43 19 55 26 236 11 302l-11 53h-95l-12-102z" fill="#AA9057"/><path d="M2950 3234c11-13 10-16-8-21-26-6-32-53-7-53 9 0 15-10 15-26 0-29 21-54 44-54 13 0 16 13 16 70 0 58-3 68-15 64-8-4-15-1-15 5s5 11 10 11c6 0 10 5 10 10 0 6-14 10-31 10-27 0-30-2-19-16zm543-109c-7-8-13-19-13-25 0-5-4-10-10-10-13 0-13-47 0-55 5-3 7-25 3-50-5-40-4-45 14-45 30 0 43 21 50 78 11 93-11 145-44 107zm299-15c-7-11-19-20-27-20-27 0-16-28 14-35 42-9 71 9 71 45 0 24-4 30-23 30-12 0-28-9-35-20zm2258 4c0-9-9-18-20-21-30-8-24-31 11-38 37-8 69 16 69 52 0 19-5 23-30 23-21 0-30-5-30-16zm-873-36c-17-29-17-32-2-41 12-6 15-16 11-33-6-22-3-24 29-24h35v65c0 64 0 65-27 65-21 0-33-8-46-32zm-4812 1c-4-12-1-32 5-45 10-18 10-27 2-37-9-11-8-19 7-36 17-20 20-20 35-6 20 21 21 74 1 81-8 4-15 15-15 25s7 19 15 19 15 5 15 10c0 6-13 10-29 10-21 0-32-6-36-21zm4095-19c0-11-4-20-10-20-5 0-10-7-10-15s-10-23-22-35c-18-17-19-20-5-20 9 0 17-7 17-15 0-21 33-19 53 3 11 12 17 36 17 70 0 45-3 52-20 52-13 0-20-7-20-20zm-1852-37c-2-17-12-32-25-38-34-15-28-32 13-38 56-9 74 5 74 58 0 43-1 45-29 45-25 0-30-4-33-27zm-1018-33c0-49 1-50 30-50 27 0 30 3 30 30 0 17-4 30-10 30-5 0-10 9-10 20 0 13-7 20-20 20-17 0-20-7-20-50zm4150 35c0-8-10-23-22-35-18-17-19-20-5-20 9 0 17-7 17-15 0-18 34-20 47-2 6 6 13 24 17 40 5 20 3 27-9 27-8 0-15 5-15 10 0 6-7 10-15 10s-15-7-15-15zm-2782-42c-10-2-18-13-18-24 0-17 6-20 33-17 24 2 33 8 35 26 3 22-9 26-50 15zm1017-621-49-17-1-110c0-107 1-110 23-113 12-2 22-8 22-13 0-17 109 65 110 82 0 9-9 19-20 22-15 4-20 14-20 40 0 20 7 42 15 51 8 8 15 28 15 45 0 37-18 39-95 13zm-2555-76c0-8-7-16-15-20-10-3-15-19-15-44 0-29 7-45 28-65 34-33 59-35 64-5 2 14 12 24 28 28 42 10 35 35-20 79s-70 49-70 27zm4420 4c0-5-9-10-20-10-13 0-20-7-20-20 0-14-7-20-21-20-16 0-6-14 46-65 68-68 90-80 77-44-5 11-4 43 2 71 10 48 9 51-17 74-30 25-47 31-47 14zm-28-914c-28-30-38-46-28-46 13 0 16-13 16-68 0-73 10-92 47-92 58 0 95 46 59 74-10 7-16 34-18 74s-7 62-15 62c-6 0-13 9-15 21-3 19-8 16-46-25zm-4434-13c-30-31-31-33-10-33 19 0 22-5 22-44 0-24 3-58 6-75 6-27 10-31 41-31 47 0 73 16 73 45 0 18-5 25-20 25-18 0-20 7-20 69 0 69 0 69-30 73-23 4-36-2-62-29zm4-415c-13-13-16-116-4-136 7-10 28-11 89-6l81 7-8 26c-11 39-50 100-70 111-26 14-74 12-88-2zm4416-13c-6-14-14-25-19-25-4 0-1-21 6-47 8-27 17-83 20-125l7-78h33c31 0 35 3 41 35 3 19 3 55 0 80-7 43-6 45 18 45 13 0 26-5 28-11s14-9 26-7l22 3-26 55c-36 78-59 100-106 100-31 0-41-5-50-25zM1392 731c-8-5-12-26-11-57 0-27-5-117-11-200-7-84-10-159-7-168 5-12 19-16 55-16 47 0 48 1 85 56 43 66 46 81 15 86-29 4-36 31-37 149-1 141-6 159-45 159-17 0-37-4-44-9zm4412-166c-3-20-3-74 1-120l7-85h34c19 0 34-4 34-10 0-22 47-10 58 15 18 39 15 45-23 45-35 0-35 0-37 48-1 26 0 68 1 95l3 47h-36c-32 0-36-3-42-35z" fill="#BF9C56"/><path d="M360 3186c0-8-6-17-12-19-8-3-6-6 5-6 14-1 17-11 17-56 0-53 11-72 24-40 3 8 12 15 21 15 12 0 15 13 15 60v60h-35c-24 0-35-5-35-14zm1550-86c0-89-2-101-20-112-25-16-26-28-1-28 11 0 21-6 23-12 4-10 10-10 31-1 29 14 36 33 12 33-18 0-20 36-2 43 10 4 10 6 0 6-18 1-16 31 2 31 12 0 15 14 15 70v70h-60v-100zm1540 84c0-40 74-60 85-24 9 30-2 40-46 40-29 0-39-4-39-16zm2598-1c-31-5-37-18-13-27 10-3 15-19 15-46 0-36 2-40 25-40 26 0 34 15 13 23-8 3-6 6 5 6 12 1 17 9 17 30 0 38-9 61-24 60-6-1-23-4-38-6zm-3437-98c1-87 11-118 25-80 4 8 12 15 20 15 11 0 14 18 14 80v80h-61l2-95zm346 59c-11-11-8-134 3-134 6 0 10-7 10-15s9-15 20-15c18 0 20 7 20 59 0 68-6 91-25 91-7 0-15 5-17 11-2 5-7 7-11 3zm518-55c-9-26 3-89 16-89 5 0 8 15 6 33-2 17-2 24 0 14 6-25 37-17 41 11 3 17-2 22-20 23-17 1-18 3-5 6 25 7 21 23-7 23-16 0-27-7-31-21zm985 2c0-11-4-21-9-23-4-1-10-22-14-45-4-33-2-43 9-43 8 0 14 7 14 15s6 15 14 15c16 0 27 47 19 79-7 26-33 28-33 2zm-3190-36c0-32 2-35 30-35 32 0 43 26 15 36-8 4-15 12-15 20s-7 14-15 14c-10 0-15-11-15-35zm323-47c3-40 8-63 16-62 44 4 47 5 26 14-17 7-17 9-2 9 14 1 17 10 17 51 0 49-1 50-30 50h-30l3-62zm-953-625c-47-2-95-5-107-8-25-6-32-35-8-35 20 0 20-48 0-70s-35-106-33-192c1-47-3-73-11-76-13-4-4-671 10-687 5-5 9-44 9-86 0-66 3-78 18-81 14-3 12-8-13-30l-30-27V811c0-153 4-283 8-287 4-5 39-10 76-12l68-4 12 203c14 228 26 358 34 366 11 10 83 22 105 16 34-8 92 6 92 22 0 8-4 15-10 15-5 0-10 13-10 28 0 27-2 28-86 44-47 9-88 18-90 21-3 3-12 36-20 73-10 49-14 140-14 314 0 234-1 246-20 260-11 8-20 25-20 38 0 12-7 25-15 28-17 7-21 34-5 34 6 0 10 19 11 43 0 23 3 36 6 30 2-7 18-13 34-13h29v68c0 93 20 129 92 167 51 26 58 34 58 60-1 42-21 65-56 63-16-1-67-3-114-5zm2036-4c-27-4-52-12-55-17s-24-18-46-28c-33-16-41-25-43-52-2-24 2-39 16-51 11-9 22-28 24-41 5-39 84-46 205-20 65 14 130 20 217 20 140 0 156 7 156 65 0 33-30 75-53 75-6 0-25 12-44 26-33 25-40 26-181 28-81 2-169-1-196-5zm2357 4c-73-3-83-6-83-23 0-10 6-20 13-23 10-3 10-13 0-50-18-65-17-137 1-137 15 0 26-21 26-51 0-10 7-19 15-19s15-7 15-15c0-10 10-15 29-15 28 0 28 2 33 63 8 90 26 120 97 154 54 25 60 31 60 60 2 68 16 65-206 56zm-1013-18c0-8 6-15 13-15 8 0 7-3-3-10-10-6-16-33-20-80-5-68-4-70 20-78 25-9 24-9-10-17-30-7-32-9-15-15 14-5 36 3 73 26 29 19 57 34 62 34s12 5 15 10c4 7-13 8-49 4-63-8-66-4-46 68 9 32 17 39 51 49 31 10 37 14 25 21-9 5-20 7-25 3-5-3-12-1-16 5-10 17-75 12-75-5zm1832-100c-46-20-44-59 7-127 22-28 47-72 56-97s23-62 31-81l14-35-6 45c-4 25-19 76-34 115-32 82-30 100 11 101 16 1 32 4 36 8 7 7-22 41-57 66-23 16-29 17-58 5zm16-24c11-6 10-10-3-15-12-4-16-13-12-29 6-21 6-21-8-3-29 39-13 70 23 47zm-4365-6c1-13-8-21-30-27-25-7-30-12-26-31 4-21 4-21-10-4-8 10-14 29-12 43 2 18-3 24-16 24-32 0-23-48 16-91 44-50 79-119 95-192 17-73 24-67 11 9-13 78-17 91-35 143-21 58-21 61 12 61 15 0 34 5 42 10 13 8 10 15-17 41-24 25-31 28-30 14zm3400-202c-13-77-9-793 5-802 8-5 8-17 0-46-12-48-28-809-16-813 4-2 8-19 8-38 0-30 3-34 25-34 27 0 28-4 25-76-1-26 4-45 14-53 9-8 16-26 16-42 0-36 1-36 203-44 155-7 157-6 157 14 0 12-4 21-10 21-5 0-10 14-10 30v30h-69c-74 0-135 19-149 47-19 36-23 136-22 473 1 392 0 387 72 392l43 3 3 52 3 51-42 7c-58 10-75 31-83 104-7 59-8 61-36 61-23 0-30 5-30 20 0 16 7 20 36 20h36l-4 293c-3 304-8 337-46 337-10 0-28 9-40 20s-35 20-51 20c-28 0-30-3-38-47zm-3381-394c-5-72-74-208-139-273-24-24-24-26-5-26 18 0 21-8 27-75 5-51 11-75 20-75 7 0 15-5 17-11 5-15 38 2 96 48 48 39 49 52 2 33-47-20-60-2-60 82 0 47 8 97 26 152 16 54 24 98 21 127-2 24-4 32-5 18zm-84-389c0-37-1-40-8-20-4 14-8 45-8 70 0 37 1 40 8 20 4-14 8-45 8-70zm4509 403c-2-5-8-26-12-48-8-44-49-132-89-192-26-37-34-87-17-97 5-3 12 4 17 17 6 16 9 4 11-43 3-46 9-69 20-77 15-12 15-13-3-13-11 0-26 6-33 13-10 10-12 8-9-8 7-44 92-22 144 36l19 22-25-7c-59-18-64-15-77 48-11 55-9 64 22 160 31 95 52 196 41 196-3 0-7-3-9-7zm-2899-81c-16-10-28-20-28-23s-24-30-52-60c-73-75-196-220-311-367-89-113-97-127-97-167 0-28 5-47 14-52 10-5 16-29 18-68l3-60 36-3c35-3 41 2 110 80 172 195 375 432 391 456 13 19 18 47 18 95 0 61-2 67-21 67s-19 1-5 16c10 9 16 33 16 60 0 43-1 44-32 43-18 0-45-8-60-17zm2862-672c-12-8-12-10 5-10s17-2 5-10-11-10 8-10c20 0 21 3 12 20-12 23-11 23-30 10zm-4524-38c-4-6-6-52-5-102 1-88 2-90 25-90 18 0 24 6 24 22 0 14 4 18 9 12 5-5 11-70 13-145 3-150 10-168 56-161 20 2 31 12 39 32 9 23 8 27-3 23-8-3-14 0-14 6s6 11 14 11 16 7 19 14c4 10 1 13-9 9-7-3-14 0-14 6 0 7-8 8-25 1-19-7-27-6-30 3-2 6-6 76-9 155-5 120-4 142 8 142 16 0 46-26 46-41 0-5 7-9 15-9s15 5 15 10c0 6-7 10-15 10-17 0-21 16-5 22 6 2 8 17 4 36s-10 29-14 22c-7-11-38-9-74 6-13 5-22 2-29-11-9-17-11-16-22 5-8 14-15 19-19 12zm4430-250c0-141 1-263 2-269 2-14 79-18 98-5 20 13 57 96 45 100-16 5-13 22 4 22 8 0 15 5 15 10 0 6-4 10-10 10-5 0-10 7-10 15s6 15 14 15 17 4 20 9c9 15-38-1-49-16-9-12-15-9-34 11l-24 26 13 120c13 123 29 154 45 88 7-29 9-30 12-10 3 12 9 22 14 22 13 0 11 32-3 67-8 17-19 28-26 25-7-2-27 2-44 9-27 11-32 10-43-5-8-10-11-33-8-59 3-23 3-39-1-36-3 3-9 26-12 50-14 101-19 43-18-199zm32-192c-1-29-2-26-8 15-11 69-10 126 1 65 4-25 7-61 7-80zM572 348c-5-7-13-33-17-57-5-31-13-45-27-49-16-4-19-12-16-66 3-60 3-61 39-73 20-6 115-15 212-19 177-7 177-7 177 15 0 19-6 21-57 23-43 1-48 2-20 5 32 4 37 8 37 29 0 23-2 24-70 24-77 0-133 18-148 47-5 10-14 44-21 76-12 55-13 57-45 57-19 0-38-6-44-12zm2452-64c-74-57-139-91-204-105-31-7-50-16-50-25 0-8 5-14 10-14 6 0 10-4 10-10 0-5-22-10-50-10-37 0-50-4-50-15 0-22 41-28 153-23 87 4 117 11 202 43 122 46 148 71 142 132-6 56-21 73-67 73-29 0-50-10-96-46z" fill="#BA9C61"/><g fill="#C6A663"><path d="M2938 3287c-34-13-35-20-3-41 34-22 31-33-10-40-39-8-47-31-12-40 41-11 57-7 57 14 0 14 7 20 23 21s18 2 5 6c-19 5-25 23-8 23 14 0 13 43-2 58-14 14-13 14-50-1zM350 3184c0-8 7-22 15-30 15-16 11-65-7-72-14-6-9-34 10-48 14-11 15-16 5-33-17-28-16-61 1-61 44 0 59 28 30 57-12 13-14 28-8 81 4 37 13 72 20 80 19 18 18 21-6 15-14-4-20 0-20 11 0 9-8 16-20 16s-20-7-20-16zm1234-11c3-16 7-72 8-125 2-53 6-99 9-102 3-4 17-2 30 3 17 7 19 10 7 10-24 1-26 81-3 81 12 0 15 16 15 80v80h-36c-34 0-36-1-30-27zm333 20c-4-3-7-51-7-105 0-63-4-98-11-98-6 0-9-10-7-22 3-25 33-34 57-19 12 8 11 12-4 27-15 16-17 30-12 104 3 47 9 93 12 103 7 17-14 25-28 10zm697-88c2-52 0-97-5-100-14-9-11-35 5-35 8 0 16-7 18-16 3-13 5-13 23 1 16 12 17 14 3 9-10-3-18-2-19 2-11 147-8 184 17 184 8 0 14 10 14 25 0 21-5 25-30 25h-30l4-95zm713 88c-11-10-8-51 4-58 5-4 18 0 29 10 13 11 32 15 66 13 46-3 49-5 52-32 3-20-3-32-17-43-27-18-27-39 0-46 16-4 20-11 16-26-3-15 0-21 10-21 12 0 14 7 9 34-8 39 1 66 20 66 9 0 14 11 14 29 0 16 2 36 5 44 5 10-1 13-25 9-23-3-30 0-30 12 0 13-13 16-73 16-41 0-77-3-80-7zm293-13c0-18 7-20 60-20s60 2 60 20-7 20-60 20-60-2-60-20zm170 7c-14-6-27-12-29-14-2-1 6-11 19-21 21-17 22-21 9-55-15-43-11-50 25-41 25 6 37 24 16 24-5 0-10 5-10 10 0 6 7 10 15 10 19 0 21 70 3 88-14 14-15 14-48-1zm147 6c-4-3-7-12-7-20 0-9 16-13 55-13 48 0 55 2 55 20 0 17-7 20-48 20-27 0-52-3-55-7zm183-1c-32-11-39-26-22-45 13-15 14-22 4-38-15-24-7-59 14-59 8 0 23 9 34 20 39 39 15 138-30 122zm141-6c-6-7-9-21-5-30 7-18 49-22 59-6 3 6 15 10 26 10 12 0 19 7 19 20 0 17-7 20-44 20-25 0-48-6-55-14zm449-6c0-18 5-21 38-18 25 2 37 8 37 18s-12 16-37 18c-33 3-38 0-38-18zm460 1c0-11 5-23 10-26 18-11 11-64-10-75-28-15-25-37 6-44 24-6 25-8 11-30-18-27-11-42 24-51 22-5 27-2 33 17 3 13 5 34 5 48-1 17-3 19-6 8-5-20-29-24-35-6-3 7-2 23 0 36 3 17 10 22 23 19 17-5 19 1 19 59v64h-40c-33 0-40-3-40-19zm406 6c-28-21-10-50 28-43 87 15 96 18 96 37 0 16-8 19-53 19-29 0-61-6-71-13zm134-6c0-18 6-21 41-21 33 0 40 3 37 18-2 12-14 18-41 20-32 3-37 0-37-17zm240-1c0-17 7-20 39-20 48 0 71-8 66-23-18-60-16-67 15-67 16 0 30 5 30 10 0 6-4 10-10 10-5 0-10 9-10 20s4 20 9 20 11 9 14 20c9 35-18 50-89 50-57 0-64-2-64-20zm-5738-27c3-43 32-58 41-23 3 12 15 24 26 27 41 10 24 33-25 33h-45l3-37zm1039 18c-8-14-7-20 4-25 23-9 21-141-2-155-10-6-12-11-5-11 6 0 12-9 12-20 0-24 32-27 54-4 21 21 22 94 1 94-9 0-15 9-15 25 0 14 4 25 9 25 16 0 24 59 11 75-17 21-57 19-69-4zm3129 5c0-9 6-16 14-16s22-7 30-16c21-20 23-142 2-150-8-3-11-15-8-30 3-19 10-24 25-22 19 3 21 9 18 51-2 38 1 47 14 47s15 11 13 73l-3 72-52 3c-43 2-53 0-53-12zm-1422-32c-5-4-8-40-8-80s-4-76-10-79c-5-3-10-15-10-27 0-18 4-20 32-14 44 9 52 19 44 60-5 25-12 36-24 36-15 0-15 2-2 10 11 7 12 12 3 18-6 4-13 25-15 46s-6 34-10 30zm2759-50c-13-14-7-44 9-44 14 0 15-7 10-45-7-43-6-45 18-45 28 0 47 20 19 21-16 0-15 1 3 9 16 6 20 17 19 56 0 49 0 49-35 52-20 2-39 0-43-4zm-1771-20c-18-17-22-54-6-54 15 0 12-38-2-43-10-3-10-7 1-20 11-14 33-17 117-17 97 0 104 1 104 20 0 17-8 19-82 22-83 3-83 3-86 31-3 22 1 30 17 34 28 7 27 29-1 37-35 9-45 7-62-10zm-1856-74c0-15-7-20-25-20-14 0-28-7-32-15-7-21 1-27 32-27 20 0 25-5 25-24 0-17 6-24 20-24 18 0 20 7 20 65s-2 65-20 65c-13 0-20-7-20-20zm370-20v-40h60c53 0 60 2 60 20 0 17-7 20-41 20-32 0-42 4-46 20-10 37-33 23-33-20zm2907 20c-3-12-14-20-26-20-30 0-28-38 2-42 16-2 23-11 25-30 2-16 9-28 17-28 27 0 45 13 45 31 0 12 9 21 28 25 47 10 54 14 50 27-3 6-21 13-41 15-29 3-37 7-37 23 0 28-56 27-63-1zm-727-37c0-22 4-23 69-23 66 0 94 11 75 30-5 4-39 10-76 12-65 4-68 3-68-19zm-4410-3c0-16 7-20 35-20s35 4 35 20-7 20-35 20-35-4-35-20zm3080 0c0-18 7-20 70-20s70 2 70 20-7 20-70 20-70-2-70-20zM950 2380c0-13 7-20 20-20 11 0 20-4 20-10 0-14 102-12 150 2 41 13 52 31 24 42-9 3-60 6-115 6-92 0-99-1-99-20zm4370 0c0-13 7-20 19-20 11 0 23-4 26-10 7-11 67-13 103-4 15 4 22 14 22 30 0 23-2 24-85 24-78 0-85-2-85-20zm-4652 3c-34-3-48-8-48-19 0-7-9-14-20-14s-20 6-20 13c0 9-33 13-125 14l-125 2v-44c0-34 5-47 20-55 29-16 51-64 66-149 10-60 13-249 14-878 0-691-2-811-16-869-22-95-65-171-107-187-12-4-17-17-17-46 0-39 1-40 42-45 24-3 126-8 228-11s240-7 308-9c105-3 124-1 130 12 3 9 1 17-6 20-15 5-3 32 14 32 9 0 14 11 14 28v29l-72-16c-40-8-76-19-79-24-4-5-16-4-29 3-19 10-24 10-32-4-5-9-19-16-31-16-13 0-31-6-42-14-32-21-73-25-128-10-60 16-77 29-48 39 27 8 27 23-1 34l-22 8 21 5c16 4 23 17 28 52 4 25 13 50 20 56 11 9 15 4 20-27 11-70 19-88 44-91 19-3 22 0 17 13-3 9-6 18-6 20s-9 1-20-2-20 0-20 6 5 11 10 11c6 0 10 128 10 365 0 318-2 365-15 365-8 0-15 9-15 20s7 20 15 20 15 7 15 15-7 15-15 15-15-5-15-10c0-6-7-10-16-8-10 2-18-3-20-10-1-7 0-8 3-2 2 5 9 8 13 5 12-7 1-37-18-51-13-10-13-14 0-33 19-27 12-63-10-59-13 2-16 15-15 56 1 29 5 62 8 72 5 14 2 20-10 20-9 0-19-9-22-20-8-31-30-24-36 12-4 27 0 38 20 56 31 28 45 77 34 122-6 23-9 27-10 13-1-12-5-24-10-27-5-4-8 26-8 67 1 43-3 80-9 88-14 17-26 627-12 631 5 2 10 13 11 26 1 22 37 33 37 12 0-5-4-10-10-10-17 0-12-87 5-94 13-4 15-43 17-248l3-243 2 218c3 191 5 216 18 204 12-12 15-63 15-282 1-147 3-272 6-280 3-7 14-11 25-8 18 5 19 18 19 399 0 344-2 394-15 394-16 0-21 16-6 22 14 4 21 55 14 91-5 27-7 28-19 13-11-15-26-22-56-25-4-1-8-13-10-28-4-36-48-47-48-13 0 12 5 18 10 15 6-3 10 3 10 14 0 10 3 27 7 37 4 11 3 15-4 11-16-10-4 30 13 44 8 6 14 23 14 38 0 14 4 31 8 37 8 12 100 34 141 34 26 0 79-29 54-30-7 0-13-5-13-11 0-7-12-22-27-35-34-29-25-31 25-5 21 11 60 22 87 26 88 11 105 16 105 31 0 9-11 14-35 14-19 0-35 5-35 10 0 6-11 10-24 10-14 0-31 7-40 15-18 18-52 20-59 3-4-10-6-10-6 0-1 6-9 11-18 10-10-1-39-3-65-5zm-82-300c-11-11-19 6-11 24 8 17 8 17 12 0 3-10 2-21-1-24zm-26-23c0-11-7-20-15-20s-15 9-15 20 7 20 15 20 15-9 15-20zm9-1270 8-75 2 63c1 46 5 62 15 62 8 0 17 8 20 18 3 9 3-5 1-33-2-27-7-103-11-167-7-131-23-149-26-30-2 70-2 71-5 20-3-44-8-58-20-58-11 0-14-6-9-24 5-20 3-23-13-19-28 7-32 37-22 189 5 76 8 141 5 145-2 4 2 22 8 40l12 34 13-45c7-25 17-79 22-120zm2134 1593c-13-2-23-8-23-12 0-5-10-6-22-4-36 7-176-42-258-91-142-84-270-221-270-290 0-34 1-36 35-36 22 0 43-8 55-20 11-11 38-23 60-26 28-5 40-12 40-23 0-9 23 10 56 47 162 181 370 271 598 259 57-3 136-15 181-27 44-12 97-21 118-21 20 1 37-3 37-9 0-5 16-10 35-10 33 0 35 2 35 35 0 31-3 35-25 35-14 0-25 4-25 9 0 20-57 70-97 86-24 10-43 21-43 27 0 13-70 41-102 40-16 0-28 3-28 8 0 15-43 19-57 4-20-19-30-18-36 6s-27 27-27 4c0-10-6-14-15-10-8 3-15 1-15-4 0-6 12-10 26-10 33 0 170-66 178-85 8-21-21-45-52-44-15 0-90-5-167-11-77-7-155-13-172-14-18 0-33-4-33-7s-19-3-42 0c-34 5-42 10-45 30-2 13-12 32-23 41-16 14-17 20-8 27 22 16 120 53 142 53 35 0 66 12 66 24 0 7-6 13-12 13-7 0-20 3-28 5-8 3-25 3-37 1zm2037-31c0-31 7-46 39-80 74-78 78-132 71-1128-6-811-5-792-57-876-26-43-77-84-115-93-24-6-28-12-28-41v-34h173c94 0 201-3 237-5 36-3 127-7 203-9 131-5 137-5 137 14 0 11-7 20-15 20-29 0-14 19 20 26 30 5 35 10 35 33v27l-75-15c-46-10-75-20-75-28 0-17-37-17-43 0-3 9-8 9-21-2s-14-16-4-22c9-6 4-9-14-10-41-2-46-3-54-11-24-25-129 16-144 56-5 13-13 26-17 29-5 3-8 29-7 58 2 42 7 57 23 68 12 7 21 21 21 30 1 13 2 13 11-3 7-11 9-38 5-67-6-45-4-50 25-79 20-18 36-27 42-21 11 11-20 61-39 61-8 0-14 5-14 10 0 6 5 10 10 10 6 0 10 43 10 110 0 91-3 110-15 110-10 0-15-10-15-27 0-16-5-35-10-43-6-10-10 64-10 218 0 134-4 232-9 232s-14 12-19 28l-9 27-6-35c-4-19-8-133-10-252-3-189-6-220-22-245-14-20-20-24-23-13-3 8-8 17-11 20s-5 150-3 328c2 274 5 322 17 322 9 0 15 10 15 25 0 14-5 25-10 25-12 0-2 73 11 78 10 4-2 75-14 84-13 8-16 670-4 740l8 48 22-21c22-20 22-22 20-347-1-180 1-356 5-392 6-56 10-65 27-65 16 0 19 6 17 27-1 15 2 30 9 33 7 5 10-5 7-30-2-26 2-40 12-45 71-33 75-38 74-78l-2-38h169l169 1v23c0 15-7 26-20 29-11 3-20 8-20 12-1 27-25 33-156 42-166 10-173 11-185 30-5 8-9 62-9 122 0 88-3 107-15 107-8 0-15-6-15-12 0-9-4-8-10 2-12 18-12 369-1 425 8 39 9 39 10 8 1-22 6-33 16-33 12 0 15 19 15 115s-3 115-15 115c-9 0-15 9-15 25 0 15 6 25 14 25 17 0 28 52 13 62-5 3-17 0-24-8-8-8-18-12-23-9s-11-1-13-7c-4-10-6-10-6 0-1 6-8 12-17 12-13 0-15 7-10 33 3 17 9 52 12 75 4 24 13 46 20 49 11 4 10 8-2 20s-44 17-135 19c-66 2-124 6-130 9-5 4-9-11-9-33zm290-361c13-26 13-68-1-77-16-10-29 15-29 59 0 40 13 48 30 18zm-60-1652c0-5-9-9-20-9-22 0-27 16-7 23 15 5 27-1 27-14zm117 2044c-50-8-24-28 39-30 32 0 53 1 47 4-7 2-13 11-13 19 0 14-16 15-73 7zm-1198-60c-69-36-97-63-66-63 10 0 17-16 21-49 8-63 31-117 51-125 32-12 48-6 109 41 58 44 60 46 26 38-73-16-75-14-74 35 1 74 10 110 29 124s13 36-10 36c-7 0-46-17-86-37zm1341 10c-23-8-50-35-45-43 3-4-3-7-12-6-9 0-18-5-20-12-4-10 3-10 31 2 19 8 57 18 83 21 86 11 103 16 103 31 0 11-15 14-62 13-35 0-70-3-78-6zm570-26c-14-7-27-21-29-32s-8-23-15-28-5-11 8-19c45-26 104-91 130-143 16-30 30-55 33-55 10 0-12 49-53 114-24 39-44 79-44 89 0 20 0 20 69 1 37-11 22 15-30 53-40 28-48 31-69 20zm-4443-14c-4-3-7-21-7-38 0-25 10-41 44-73 24-22 56-60 70-84 39-65 31-35-11 41-41 77-40 101 7 101 38 0 38 13 1 39-28 20-90 28-104 14zm3740-57c-21-16-22-26-3-26 8 0 17 7 20 16 9 23 4 25-17 10zm-1818-415c-163-153-459-488-459-520 0-18 78 62 142 147 42 54 52 60 65 40 4-7 15-13 23-13s19-9 25-20c5-11 17-19 25-17 23 4 18-74-9-120l-21-38 23 1c15 0 45 27 92 81 39 44 121 132 183 196 61 64 112 118 112 119 0 2-7 3-15 3-19 0-19 30 0 56 20 26 20 113 0 120-8 4-15 16-15 29 0 23-17 35-48 35-9 0-65-45-123-99zm-169-273c0-26-17-40-40-33-22 7-22 7 6 25 36 23 34 23 34 8zm2771-80c-25-52-111-145-162-175-33-20-37-33-10-33 15 0 21-10 26-41 4-24 13-42 23-46 10-2 26-9 38-15 22-10 74 6 117 37 21 16 21 16-19 10-49-7-55-1-60 58-2 30 9 70 38 144 43 112 48 143 9 61zm-4429-17c-13-22-46-63-74-91-57-55-57-56-42-182l6-46 51 18c49 17 127 57 127 66 0 2-20 2-44 0-42-4-44-3-50 26-11 54-7 86 18 140s42 108 34 108c-2 0-14-18-26-39z"/><path d="M558 1352c-10-2-18-8-18-13 0-13 27-11 35 2 9 13 4 16-17 11zm72-127c0-8 9-15 20-15s20 7 20 15-9 15-20 15-20-7-20-15zm60-26c0-19 12-25 82-34l47-7-23-23c-12-12-29-24-37-27s67-8 166-11c99-4 192-9 207-13 26-6 27-4 33 50 9 69-8 92-58 81-55-12-279-17-350-7-61 8-67 7-67-9zm1978-66c-75-97-91-115-132-144-24-18-52-29-73-29-30 0-33-3-33-29 0-20 6-30 20-34 19-5 18-9-20-79-52-98-77-172-85-255-21-211 93-389 291-455 53-18 86-22 141-20 65 3 71 5 58 19-18 18-19 33-2 33 34 0 202 97 227 132 12 16 63 28 75 18 21-17 24-48 6-64-49-46-60-54-63-50-3 2-29-6-59-17s-65-24-79-29c-14-4-38-14-53-21-28-13-28-13-6-21 13-5 26-5 33 2 5 5 22 10 38 10 26 0 114 29 152 51 10 6 35 8 57 4 58-10 73 10 78 107 3 66 1 78-13 78-11 0-16 9-16 30 0 23-4 30-20 30-13 0-20 7-20 20 0 27-16 25-31-3-7-12-25-38-41-57-15-19-28-41-28-48s-4-11-8-8c-4 2-28-11-52-31-25-19-66-46-92-59-27-13-48-31-48-39 0-18-16-20-24-2-4 8-8 8-11 1-6-12-134-1-164 15-28 15-31 14-31-15 0-14-4-23-10-19-5 3-10 18-10 33 0 18-13 39-40 66-30 29-45 55-60 106-24 80-24 93-6 128 7 15 30 61 50 103 39 79 152 236 255 353 34 38 61 75 61 82 0 8 5 14 10 14 20 0 90 85 90 109 0 23-1 22-32-11-18-19-46-52-63-74-50-65-247-264-256-258-5 3-9 14-9 25s5 17 10 14c6-3 10 0 10 8 0 26-21 75-35 81-28 11-5 57 100 197 28 37 32 48 20 52-9 4-29-13-57-50zm795 5c-66-14-53-48 18-48 26 0 29 4 29 30 0 17-1 30-2 29-2-1-22-5-45-11zm1588-100c-10-28-4-48 15-48 9 0 14 12 14 35 0 39-16 47-29 13zm718-54c-10-13-10-23 0-57 38-129 43-252 14-352-12-43-17-97-18-190V255l41-3c38-3 45 1 79 40 20 24 41 52 47 62 10 18 7 19-36 13-42-6-46-5-52 17-3 12-5 56-4 97 0 41 1 121 2 179s-2 121-5 140c-15 71-15 99-2 117 12 15 17 16 34 6 12-7 29-13 38-13 15 0 16-2 3-10-12-8-12-10 5-10s17-2 5-10c-13-8-12-10 3-10 29 0 19 29-29 80-37 40-53 50-79 50-18 0-38-7-46-16zm-4415-9c-7-16-5-27 20-172 16-90 16-96-5-190-14-63-24-145-26-230l-5-133h46c41 0 48 4 82 45 42 52 38 67-11 41-59-32-67-20-60 86 3 51 13 137 22 191 12 75 13 108 5 140-20 76-25 146-12 163 11 13 16 13 37-1 13-9 34-15 46-13 20 3 19 6-17 46-33 36-44 42-77 42-26 0-42-5-45-15zM732 170c-10-17-10-20 3-20 8 0 15 9 15 20s-1 20-3 20c-1 0-8-9-15-20zm4425 6c-4-10-5-21-2-24 9-9 17 6 13 25-3 17-4 17-11-1zM174 155c-9-23 5-35 42-35 30 0 34 3 34 25s-4 25-35 25c-22 0-38-6-41-15z"/></g><g fill="#D4AF60"><path d="M2770 3281c0-17 9-19 87-23 57-2 88-7 91-16 5-17 22-15 22 2 0 8 5 16 12 18 6 2 9 12 5 21-5 14-22 17-112 17-96 0-105-2-105-19zm-2563-99c-19-20-23-97-7-122 7-11 34-16 95-20 99-6 97-8 94 94l-2 66h-82c-67 0-85-3-98-18zm166-35c3-7 3-26 0-41-5-26-8-27-62-24l-56 3-6 38-6 37h63c42 0 63-4 67-13zm154 35c-26-29-25-202 2-226 27-25 184-19 189 7 3 14-5 17-53 17-87 0-95 8-95 90 0 44 4 72 13 77 6 4 39 10 72 13 44 4 60 9 60 20 0 12-17 16-86 18-73 2-88 0-102-16zm280 0c-13-15-17-38-17-109 0-127 7-135 120-131 68 2 85 6 85 18 0 11-16 16-60 20-33 3-66 9-72 13-18 11-17 141 0 155 7 6 40 12 72 14 45 2 60 7 60 18 0 12-17 16-86 18-73 2-88 0-102-16zm277-7c-12-19-15-44-13-113 5-120 7-122 130-122 54 0 101 4 104 10s1 10-4 10c-7 0-11 30-11 80 0 53-4 80-11 80-8 0-10-18-7-56 4-47 2-57-16-70-31-22-103-18-116 5-16 31-13 127 6 145 20 20 83 21 111 1 19-13 22-13 27 1 4 10 14 14 26 11 25-6 26 5 2 26-15 13-39 17-115 17-92 0-97-1-113-25zm343 7c-14-15-17-40-17-130v-112h60v100c0 88 2 100 19 110 28 14 101 13 103-2 2-20 6-97 7-157 1-30 4-52 7-48 5 5 7 119 4 245 0 8-24 12-83 12-69 0-87-3-100-18zm303-112v-130h99c99 0 131 5 131 20 0 4-10 10-21 13-19 5-21 11-15 46 4 25 2 41-4 41-5 0-10-16-10-35 0-39-19-49-81-43l-34 3-3 108-3 107h-59v-130zm376 111c-15-16-17-36-16-113 2-116 2-114-12-100-19 19-48 15-48-8 0-16 7-20 34-20 34 0 34 0 29-40-6-39-5-40 26-40 29 0 31 3 31 34 0 32 2 35 41 41 52 9 51 38-1 45l-35 5-3 60c-4 84 2 103 41 113 51 13 41 36-19 40-40 2-54-1-68-17zm184-110c0-134 3-143 43-133 15 4 17 19 17 133v129h-60v-129zm140-1v-130h44c25 0 48 5 51 10 3 6-3 10-14 10-20 0-21 6-21 120v120h-60v-130zm334 105c-12-19-15-44-13-113 5-119 9-122 118-121 75 1 169 15 119 18-14 1-18 10-18 46 0 28 4 45 12 45 6 0 3 6-8 14-18 14-19 12-24-32l-5-47-51-3c-69-4-84 11-84 88 0 76 14 90 86 90 47 0 54 2 54 20s-7 20-85 20c-79 0-86-2-101-25zm554 14c-14-8-18-23-18-67 0-32 5-63 12-70s42-12 89-12h76l7 41c4 23 4 44 1 47s-5-4-5-15c0-25-18-33-71-33-32 0-41 5-51 25-8 18-8 28 0 38 9 10 8 17 0 25-9 9-9 12 0 12 7 0 12 5 12 10 0 13-30 12-52-1z"/><path d="M3430 3190c0-6-7-10-16-8-10 2-19-3-21-9-3-9 8-13 36-13 34 0 41 3 41 20 0 13-7 20-20 20-11 0-20-5-20-10zm190-10c0-13 7-20 19-20 14 0 18 5 14 20-3 11-12 20-19 20-8 0-14-9-14-20zm77 6c-6-16 13-26 49-26 14 0 33-4 42-9 22-12 57 12 49 34-9 21-132 22-140 1zm240 7c-22-21-3-30 67-31 42 0 84-6 96-14 18-10 24-10 27 0 3 6 11 12 19 12 17 0 18 12 2 28-15 15-158 17-158 2 0-5-7-10-15-10s-15 5-15 10c0 11-13 13-23 3zm320-11c-14-15-17-38-17-113 1-127 2-129 123-129 88 0 123 9 97 25-5 3-10 15-10 26 0 19-1 19-22 5-27-19-99-21-116-4-7 7-12 40-12 78s5 71 12 78c16 16 105 16 114 0 4-7 11-28 15-48l7-35 1 43c1 35 5 45 21 49 23 6 25 14 8 31-14 14-148 17-148 3 0-16-34-18-45-3-9 11-14 10-28-6zm341 7c-15-9-18-26-18-117 0-120 5-132 57-132 26 0 33 4 33 20 0 10-7 23-15 28-11 6-16 27-18 78-1 38 2 75 6 82 5 7 32 12 72 12 64 0 87 12 66 33-8 8-11 8-11-1 0-7-7-12-15-12s-15 5-15 10c0 13-120 12-142-1zm271 7c-2-2-2-62 1-133 5-120 6-128 25-128s20 8 23 133l3 132h-24c-13 0-26-2-28-4zm157-12c-10-10-16-33-16-64 0-69 15-80 106-80 72 0 75 1 85 28 6 15 8 44 5 65-5 29-3 37 9 37 20 0 19 16-1 24-9 3-51 6-94 6-58 0-83-4-94-16zm162-41c6-11 6-28 1-41-8-21-14-23-61-20-50 3-53 5-56 32-4 35 10 46 65 46 30 0 45-5 51-17zm198 42c-13-13-16-37-16-115v-98l30 11c29 11 30 13 30 83 0 76 7 90 50 96 14 1 25 10 25 18 0 23-97 26-119 5zm276 0c-15-18-59-20-64-3-2 6-12 9-21 5-14-5-17-22-17-110 0-132 4-137 117-137 67 0 83 3 98 20 16 18 16 20 2 20-10 0-17 8-17 19s-4 23-10 26c-5 3-10-1-10-9 0-20-31-36-67-36-35 0-53 16-53 47 0 21 4 23 59 23 33 0 63 5 66 10 3 6 18 10 32 10 22 0 24 2 12 16-10 13-29 15-88 12-68-3-76-1-79 16-6 31 26 46 100 46 53 0 68 3 68 14 0 8-4 18-10 21-5 3-10 1-10-4 0-6-7-11-15-11s-15 5-15 10c0 15-63 11-78-5zm218-5c0-18 7-20 74-20 95 0 104-3 98-40-4-30-4-30-73-30-56 0-73-4-89-20-25-25-26-80-2-109 16-20 25-22 117-19 81 2 100 6 100 18s-18 16-85 20l-85 5v30c0 30 1 30 65 35 36 3 74 11 85 18 19 11 19 13 3 22-22 13-24 50-3 50 9 0 15 9 15 25 0 22-3 25-25 19-15-4-25-2-25 5 0 6-11 11-25 11s-25-5-25-12c0-9-3-9-12 0-7 7-34 12-60 12-41 0-48-3-48-20zm-637-60c0-25 2-35 4-22 2 12 2 32 0 45-2 12-4 2-4-23zm-1448-12c-6-15-20-18-79-18-43 0-77-5-84-12-17-17-15-113 2-127 9-8 48-11 112-9 80 2 99 6 99 18s-17 16-82 18c-69 2-83 6-88 21-12 39 4 51 65 51 69 0 94 7 81 24-5 6-11 20-13 31-5 18-6 18-13 3zm306-2c-10-11-31-16-72-16-35 0-59-4-59-11 0-5-4-8-9-4-15 9-31-29-31-74 0-30 5-43 19-51 16-8 23-6 36 12 8 13 12 24 7 26-5 1-6 16-4 32 4 30 5 30 71 30 67 0 106 13 85 28-6 4-15 15-21 25-9 16-11 17-22 3zm-1490-78c4-25-13-48-36-48-19 0-35-16-35-36 0-8 96-3 110 6 9 6 10 10 3 10s-17 18-23 40c-10 37-24 57-19 28zm-2243-30c-10-10-29-18-43-18-18 0-25-5-25-20 0-16 7-20 38-20 20 0 47 3 60 6 24 7 31 34 8 34-8 0-16 8-18 18-3 17-4 17-20 0zm3104 2c-7-11-21-20-32-20-13 0-20-7-20-20 0-17 7-20 39-20 22 0 44 6 51 15 9 10 9 15 1 15-6 0-11 11-11 25 0 30-11 32-28 5zm1711 1c-10-17-26-21-85-23-60-2-73-6-76-20-3-16 6-18 91-18 53 0 102 3 111 6 18 7 22 44 5 44-7 0-17 7-23 15-10 13-13 13-23-4zm-4978-31c-10-16 4-30 31-30 17 0 24 5 24 20s-7 20-24 20c-14 0-28-4-31-10zm3105-11c0-24 23-21 28 4 2 10-3 17-12 17-10 0-16-9-16-21zm720 15c0-14 31-34 53-34 20 0 24 4 20 20-4 15-14 20-39 20-19 0-34-3-34-6zm111-11c-7-8-10-17-7-20 9-9 29 13 25 25-2 6-10 3-18-5zm1164 7c-10-16 4-30 30-30 18 0 22 4 18 20-6 21-37 27-48 10zm185 3c0-6-15-14-32-19l-33-8 34-3c39-5 62 10 43 29-8 8-12 8-12 1zm-109-56c-6-6-11-21-11-34 0-19 5-23 30-23 26 0 30 3 30 29 0 31-29 48-49 28zm-3087-31c-10-26 4-48 28-44 17 2 23 10 23 28s-6 26-23 28c-13 2-25-3-28-12zm2573 2c-8-26 5-48 29-48 20 0 24 5 24 30s-4 30-24 30c-13 0-26-6-29-12zM868 2394c-26-8-22-34 5-35 16-1 18-2 5-6-10-2-18-13-18-24 0-18 8-19 128-19 187 0 306-35 392-113 19-18 26-22 17-10-11 12-17 33-15 50 2 24 8 28 36 31 17 2 32 7 32 12 0 23-135 83-236 104-51 11-69 11-100 0-47-17-91-18-96-3-4 12-121 21-150 13zm4435 0c-22-9-14-34 10-35 20-1 19-2-5-11-31-11-38-38-11-38 313 0 414-24 522-124l34-31-28 42c-29 46-28 72 5 80 11 3 20 9 20 14 0 16-63 49-143 74-85 27-247 45-247 28 0-15-49-26-63-14-15 12-78 22-94 15zm-5079-18c-10-25 3-45 33-52 15-3 46-17 69-30l41-23-5 26c-3 18-1 24 7 19 6-4 14 0 17 8 3 9 15 16 25 16s19 6 19 14c0 17-33 31-38 17s-29-14-34 0c-2 6-31 13-66 16-51 5-63 3-68-11zm4420-1c-11-28 4-43 60-59 41-12 63-26 90-58 20-23 39-39 42-36 3 4-11 24-31 46-21 24-32 43-25 47 6 3 8 11 5 16s1 6 9 3c16-6 56 12 56 26 0 16-35 16-47 0-10-13-14-12-33 8-16 17-32 22-71 22-35 0-51-4-55-15zm-744-47c-25-12-46-26-48-30s-9-8-14-8c-12 0-156-106-242-178l-50-41-40 37c-92 84-252 192-284 192-7 0-12-11-12-25s5-25 10-25c6 0 26-15 45-34 31-31 33-37 25-67-5-18-9-33-7-34 1-1 27-18 57-38s68-48 85-63l29-27-152-146c-84-80-153-149-152-153 0-5 7-8 16-8 8 0 12 5 9 10-3 6 1 10 9 10 9 0 16 4 16 8s34 32 74 62c41 30 75 59 75 64 2 19 43 54 57 49 10-4 11-9 5-17-7-8-3-18 14-30 26-19 33-50 15-61-5-3-10-1-10 4 0 6-7 11-15 11s-15 8-15 18c0 13-2 14-9 4-9-15 8-104 22-113 15-10 0-54-29-88-14-17-22-31-18-31s-1-9-11-20-23-20-28-20c-10 0-141-110-164-139-15-17-17-51-4-51 5 0 38 30 73 68 141 150 358 362 371 362 9 0 25-32 43-87 26-78 29-102 29-213 0-70-5-143-12-165-22-73-63-124-123-152-30-15-58-32-62-38-5-7-8-6-8 2 0 7-9 9-22 6-31-8-48-22-48-42 0-14 27-16 270-15 149 1 275 2 280 3 22 2 8 23-39 56-63 46-76 81-92 245-12 137-53 314-93 405-14 31-26 63-26 69 0 16 86 98 193 185 64 52 83 71 67 71-43 0-69 29-75 85-1 6-5 21-9 35-8 21-3 29 34 61 55 47 50 66-10 37zm-1515-61c-157-115-239-204-299-324-62-125-86-232-86-386 0-205 73-389 209-525 50-50 162-115 219-127 31-6 32-5 32 24 0 25-4 31-22 31-31 0-77 30-124 79-156 162-188 431-80 674 40 91 123 203 210 283 47 43 74 74 64 74-15 0-52-26-99-70-60-56-109-83-109-60 0 6-4 8-10 5-5-3-18-1-29 5-17 9-19 17-14 60 6 52-9 71-23 28-8-30-34-58-51-58-21 0-16 13 31 71 95 115 112 132 163 161 41 23 53 35 53 54 0 28 2 28-35 1zm-992-896c-21-33-135-108-203-132-36-13-66-26-67-29-2-3-42-4-89-2-84 3-86 3-82-19 3-23 6-23 96-20 92 3 93 2 82-18-6-12-15-22-20-22-41-6-80-20-80-30 0-6 3-8 8-6 4 3 32 1 62-4 74-12 172-61 204-104 35-45 65-113 66-145 0-14 5-32 11-40 7-11 8 9 4 67-6 71-5 84 9 89 9 4 25-1 35-10 18-17 51-22 51-8 0 12-71 82-127 125-29 22-53 43-53 47 0 8 66 34 112 46 30 7 29 24-1 24-24 0-51 31-51 58 0 12 14 46 30 75 30 53 37 77 22 77-4 0-13-9-19-19zm4391-32c-10-11-49-39-85-60-77-46-169-69-281-69-76 0-78-1-78-24 0-25 23-41 43-29 7 3 9 3 5-2-8-8 15-35 30-35 5 0 15-7 22-15 8-9 29-15 56-15 127 0 268-105 289-215 10-55 28-116 32-112 2 2-3 44-11 93-12 75-12 91-1 103 12 12 19 10 49-12 35-27 56-34 56-19 0 11-115 121-157 151-18 12-33 26-33 31s32 19 70 32c71 22 71 22 48 40-13 9-32 18-43 20s-20 10-20 18-4 20-7 26c-4 6 6 29 22 50 32 45 28 80-6 43zm16-676c0-84-44-193-108-272-62-76-104-110-192-154-47-23-86-45-88-48-2-4-12-5-22-2-12 3-20 0-20-7 0-10-3-10-15 0-18 15-17 17-20-40-2-26 1-48 8-52 33-20 228 15 338 61 71 30 197 117 185 128-3 3-20 6-38 7l-33 1-1 95c0 52 4 109 9 125 13 47 26 153 20 175-9 33-23 22-23-17zM1346 519c-40-111-153-229-276-287-41-20-76-39-78-43-2-5-10-5-18-2s-14-1-14-11c0-9-4-16-10-16-5 0-10 5-10 10 0 6-7 10-15 10s-15-7-15-15 9-15 20-15c23 0 27-18 5-26-21-8-19-34 3-35 97-9 253 26 360 80 82 41 197 140 174 148-7 3-24-4-36-16s-32-21-44-21c-22 0-22 1-17 135 2 75 7 140 10 145 4 6 0 10-7 10-8 0-22-23-32-51zm1857 29c-5-7-19-37-31-65l-21-53h30c23 0 29-4 29-21 0-14 5-19 18-17 14 3 18 16 20 72 4 80-18 120-45 84zm-812-238c17-33 53-80 80-105l48-45 70 3c77 4 97 13 67 31-11 6-39 28-62 49l-42 37-5-26c-4-20 2-32 21-49 17-14 21-24 14-29-6-4-19 2-29 14-10 11-23 20-30 20s-13 7-13 16c0 10-6 14-15 10-19-7-81 59-96 102-6 17-17 32-25 32-12 0-7-15 17-60zM356 244c-29-35-92-74-121-74-8 0-15-5-15-11 0-8-4-8-14 0-9 8-21 8-39 2-36-14-41-27-18-50 22-22 13-22 209-5l63 6-26 20c-17 13-34 18-49 14-16-4-23-1-23 9 0 8 9 15 19 15s18 7 18 15 5 15 11 15c5 0 8 4 5 9s1 14 9 21c15 13 21 51 8 49-5 0-21-16-37-35zm4345-69c-1-6-20-9-43-7-56 5-98-12-98-37 0-34 31-42 109-29 45 8 71 17 71 25 0 7-4 13-8 13-5 0-14 10-20 23-6 12-11 17-11 12zm-1539-17c8-23 35-33 52-19 25 21 19 31-20 31-23 0-34-4-32-12z"/></g><g fill="#CAAE6E"><path d="M230 3184c0-9 7-14 17-12 25 5 28 28 4 28-12 0-21-6-21-16zm120 2c0-8 6-16 12-18 7-3 13-22 13-45s3-39 8-36c4 2 7 29 6 59-2 45-5 54-21 54-10 0-18-6-18-14zm480 4c20-13 40-13 40 0 0 6-12 10-27 10-22 0-25-2-13-10zm50 0c0-5 7-10 15-10s15 5 15 10c0 6-7 10-15 10s-15-4-15-10zm50 1c0-15 16-22 34-15 25 9 19 24-9 24-14 0-25-4-25-9zm310 0c0-12 29-23 41-15 18 10 9 24-16 24-14 0-25-4-25-9zm223-3c2-9 27-13 75-13 51 0 72 4 72 13 0 8-22 12-76 12-56 0-75-3-71-12zm652 1c-4-6-4-13-1-16 8-8 36 5 36 17 0 13-27 13-35-1zm45 1c0-5 11-10 25-10s25 5 25 10c0 6-11 10-25 10s-25-4-25-10zm300 0c0-5 7-10 15-10s15 5 15 10c0 6-7 10-15 10s-15-4-15-10zm870-7c0-14-2-15-9-4s-10 9-16-8c-8-26 1-42 20-36 49 15 48 15 35 30-9 10-9 15-1 15 6 0 11 5 11 10 0 6-9 10-20 10-12 0-20-7-20-17zm100 7c0-5 9-14 20-20 17-9 20-8 20 10 0 13-7 20-20 20-11 0-20-4-20-10zm270 6c0-2 11-6 25-8 14-3 25-1 25 3 0 5-11 9-25 9s-25-2-25-4zm257-14c1-8 3-15 3-17 0-4 92 4 108 10 28 10 9 25-33 25-25 0-45-4-45-10 0-12-26-14-33-2-2 4-2 1 0-6zm1088 8c3-5 15-10 26-10 10 0 19 5 19 10 0 6-12 10-26 10s-23-4-19-10zm125 1c0-11 25-21 50-21 11 0 20-9 23-22 3-15 5-11 6 12 1 35 0 36-39 37-22 1-40-2-40-6zm230-5c0-13 77-32 88-21 3 3 0 5-6 5s-9 7-6 15c5 12-3 15-35 15-28 0-41-4-41-14zm600-1c0-16 9-19 34-9 25 9 19 24-9 24-16 0-25-6-25-15zm-3907-55c0-25 2-35 4-22 2 12 2 32 0 45-2 12-4 2-4-23zm3957-5c0-8 5-15 10-15 6 0 10 7 10 15s-4 15-10 15c-5 0-10-7-10-15zm-460-5c0-5 5-10 12-10 6 0 4-6-7-13-13-10-16-21-11-40 6-25 36-39 36-18 0 5 12 12 28 14 26 4 25 4-5 6-35 1-51 16-29 24 18 7 9 47-10 47-8 0-14-4-14-10zm-1792-6c-14-13-9-42 8-48 23-9 28-7 16 7-5 6-11 20-13 30-2 11-7 15-11 11zm303-8c-13-16-2-29 16-18 7 4 8 13 4 20-6 10-10 10-20-2zm-1781-10c0-8 6-17 13-20 10-5 10-7 0-12-18-8-16-44 2-44 11 0 15 12 15 45s-4 45-15 45c-8 0-15-6-15-14zm-407-32c-1-19 3-34 8-34 11 0 12 57 2 63-5 3-9-10-10-29zm180-54c2-33-2-45-12-45-8 0-16-6-18-12-3-8 4-13 15-13s22 9 25 20c6 22 43 28 49 8 3-7 21-13 41-13 43 0 44 17 1 26-56 10-93 30-98 52-2 12-4 2-3-23zm3277-14c0-23 2-24 30-13 32 12 41 30 13 25-10-1-24 1-30 5-9 6-13 1-13-17zm-5143-36c-5-18 0-20 49-20 47 0 54 2 54 20 0 15-7 20-29 20-16 0-32-6-34-12-4-10-6-10-6 0-1 20-28 14-34-8zm5708 10c-3-5-3-10 2-11 4 0-1-4-12-9-15-6-8-9 28-9 41-1 47 2 47 19 0 15-7 20-29 20-17 0-33-4-36-10zm-3473-15c-11-13-7-15 25-15 36 1 37 2 19 15-24 18-28 18-44 0zm2612-6c-13-5-7-8 24-8 23-1 42 1 42 3 0 8-48 12-66 5zM841 2393c-31-3-60-11-69-20-11-10-17-12-20-4-5 16-42 14-42-3 0-9 17-16 45-20 50-8 52-11 28-38-15-17-14-18 18-18 19 0 40 5 46 11s41 14 77 16c68 6 87 16 67 36-6 6-11 19-11 29 0 12-7 18-22 17-17-1-19-2-5-6 21-6 22-23 2-49-13-16-14-16-9-1 4 12 1 17-11 17s-16 6-12 20 1 19-11 18c-10-1-41-3-71-5zm4419-1c-35-2-58-9-63-18-10-18-37-18-37 0 0 9-8 12-25 8-14-2-25-11-25-18 0-8 3-13 8-12 10 3 92-11 92-16 0-15-27-52-36-49-6 2-17-3-24-12-16-20-14-19 62 9 36 14 94 28 129 32 78 8 91 14 79 34-9 13-11 13-19 1s-11-12-23 0c-8 8-17 21-19 28-6 16-18 17-99 13zm-2490-10c0-4-18-6-40-4-32 3-40 1-40-12 0-18-26-22-32-4-6 17-58 1-58-19 0-13 7-14 43-8 23 4 105 10 181 14 98 4 141 10 144 19 2 6-3 12-11 12-9 0-18-6-21-12-3-10-9-8-19 5-11 13-29 17-81 17-36 0-66-3-66-8zm-2419-12c1-28 15-53 32-56 10-1 15 2 12 6-6 10 35 18 104 22 25 2 46 8 48 15 5 15-134 22-160 8-13-7-20-6-27 5-9 13-10 13-9 0zm4489 3c-32-9-59-26-54-35 8-13 44-9 61 7 18 18 14 34-7 28zm-1846-18c-16-12-16-14-3-15 9 0 30-7 45-15 16-8 36-15 44-15 9 0 25-7 36-15 12-8 45-24 75-35 48-19 114-69 93-70-5-1-27-4-50-9-29-5-46-4-59 5-9 7-22 11-29 8s-38-1-69 4c-45 7-55 6-47-3 6-7 19-11 29-8s22 0 25-6c4-5 13-8 20-5 34 13 236-84 311-150 21-20 41-33 44-30 3 2-5 11-17 20-12 8-22 21-22 28s-12 22-26 32c-66 47-80 63-64 74 8 5 21 8 28 5 8-3 12 0 9 7-2 7-10 12-16 11-6-2-10 0-10 5 3 20-4 29-38 47-57 29-65 36-53 50 11 13-21 30-129 71-73 28-100 30-127 9zm1886 5c0-5 9-10 20-10s20 5 20 10c0 6-9 10-20 10s-20-4-20-10zm-4142-77c-1-5-22-21-46-37-48-33-73-72-70-110 4-44 26-29 42 29 16 53 63 105 95 105 7 0 9 5 6 10-7 12-22 13-27 3zm1664-5c-7-7-12-16-12-22 0-5-8-18-17-29-18-19-17-20 7-7 35 18 70 51 64 61-7 13-28 11-42-3zm2390-3c9-11 27-56 39-100l23-80 1-835c0-800-1-838-19-895-11-33-28-73-38-90-10-16-18-38-18-47 0-11-5-15-14-12-7 3-16-3-20-12-8-22-6-23 20-14 25 10 73 89 79 128 1 15 11 56 21 92 18 60 19 117 19 805 0 734-3 834-24 888-6 16-8 39-5 52 7 27-24 91-57 120l-24 20 17-20zm-4397-40c38-102 39-129 39-945 1-738-5-960-25-960-4 0-16-24-27-52-11-29-25-53-30-53-15 0-28-16-36-41-6-19-3-21 19-16 14 2 25 11 25 18 0 8 5 14 12 14 6 0 8 3 5 7-4 4 4 19 19 34 14 15 25 30 25 33-2 10 9 58 26 111 21 70 30 505 23 1158-4 370-9 520-17 525-7 4-13 35-14 68-2 48-7 67-27 90-17 20-22 23-17 9zm4700-5c-10-11-13-20-7-20 7 0 21 9 32 20 14 14 16 20 7 20-8 0-22-9-32-20zm-2258-26c-1-2-34-8-72-14s-76-16-84-23-21-12-30-12c-18-1-78-31-83-42-1-5-20-17-42-28-45-23-112-79-81-68 11 4 47 25 80 48 33 22 75 47 93 54 17 7 32 18 32 23s4 7 9 3c5-3 20-1 33 5s63 19 112 29c65 13 83 19 63 23-14 3-28 4-30 2zm103-4c0-5 14-10 30-10 17 0 30 5 30 10 0 6-13 10-30 10-16 0-30-4-30-10zm2116-26c-8-22-8-24 8-24 12 0 26 20 26 36 0 12-29 2-34-12zm-1675-258c-19-19-30-39-26-46 9-15 31 4 51 43 22 41 13 42-25 3zm-123-123c-7-16-20-28-28-28s-20-11-27-25-16-25-22-25c-18 0-335-359-486-550-43-55-97-119-119-142-22-24-37-45-34-48 14-14 247 251 313 355 13 21 31 42 38 47 8 4 31 31 52 58 21 28 55 61 76 75 53 36 157 151 153 173-1 9 4 17 12 17s14 4 14 8c0 5 20 23 45 41s45 37 45 42c0 6-5 7-12 3-8-5-9-2-5 9 10 27-1 19-15-10zm219-74c-4-16-3-18 9-8 16 13 19 29 5 29-5 0-11-9-14-21zm-102-119c-10-11-14-20-8-20 5 0 18 9 28 20s14 20 8 20c-5 0-18-9-28-20zm-135-127c-41-37-91-87-110-113-19-25-96-120-170-209s-136-167-138-172 2-9 10-8c18 1 348 380 352 404 3 20 64 85 79 85 8 0 21 8 28 18 13 15 12 16-4 3-9-8-20-12-23-9-9 9 57 59 68 52 7-4 8-2 4 4-4 7-10 12-14 12s-41-31-82-67zm-1795-30c-52-80-82-138-66-129 26 16 109 161 98 172-1 2-16-18-32-43zm4435 19c0-4-22-36-50-70-44-55-67-104-41-88 27 17 114 166 97 166-3 0-6-4-6-8zm-763-258c8-22 49-33 138-38 50-2 101-7 115-9 14-3 34 1 45 9 18 14 18 14-2 14-12 0-28 6-36 14-18 19-267 28-260 10zm-4407-8c0-18 48-26 170-27 176-2 256 2 235 11-11 5-14 9-7 9 7 1 10 6 7 12-5 6-11 4-19-7-10-13-23-16-62-11-26 3-50 10-52 16-2 7-49 11-138 11-109 0-134-3-134-14zm333-82c-26-11-12-19 31-19 24 0 47 3 50 6s0 6-6 6c-7 0-24 3-38 6s-31 3-37 1zm4135-11c12-2 32-2 45 0 12 2 2 4-23 4s-35-2-22-4zM2737 888c-82-82-160-187-195-260-18-38-37-68-43-68-5 0-9-6-8-12 3-19-12-49-22-43-4 3-13-4-20-16-9-18-9-25 5-34 9-7 16-24 16-38 0-36 10-57 26-57 10 0 14 12 14 38 0 43 24 144 44 182 40 79 114 183 231 328 42 51 9 37-48-20zm-1380 27c-4-8 2-24 12-36l18-23-5 32c-5 36-17 49-25 27zm1061-127c-55-112-58-122-65-232-7-129 1-186 33-222l25-29-11 30c-25 65-32 242-13 299 8 23 25 64 38 91 21 45 43 135 33 135-3 0-21-33-40-72zm3393-115c-1-18 4-33 9-33 12 0 12 17 0 45-7 17-9 15-9-12zm-4431-66c0-14-4-28-9-31s-11-15-14-26-1-18 3-15c5 3 10-3 13-12 2-10 7 8 12 40 4 32 5 61 1 64-3 4-6-5-6-20zm4422-13c3-3 0-29-8-57-16-61-17-75-6-61 10 11 32 85 32 108 0 9-5 16-12 16-6 0-9-3-6-6zM3153 442c-11-26-49-78-83-115-35-37-60-70-57-74 3-3 28 9 54 26s60 37 75 43c15 7 29 21 31 33 2 11 5 2 6-20 3-58 12-74 36-64 11 4 14 8 8 8-18 1-16 31 2 31 11 0 15 12 16 43 1 23 3 57 5 75 4 32-6 39-53 33-6-1-13 5-15 13s-13-7-25-32zm-643-162c25-48 46-70 71-70 22 0 25 16 5 36-8 7-23 24-33 37s-28 26-40 29l-22 6 19-38zm441-50c-13-11-29-20-37-20s-11-6-8-15c8-19 33-19 40 0 4 8 11 12 17 8 6-3 7-1 3 5-4 7-1 12 8 12s16 7 16 15c0 20-10 18-39-5zm237-1c-9-12-14-28-11-35 4-12-3-13-36-8-28 4-41 3-41-5 0-6-8-11-17-11-10 0-45-14-78-30s-70-30-82-30c-15 0-23-6-23-17s3-14 8-7c4 6 28 14 54 17 26 4 76 20 110 37 62 29 63 29 88 11 18-13 32-16 48-10 19 7 22 16 22 59 0 55-13 64-42 29z"/><path d="M2470 223c0-36 112-102 210-125 43-10 53-9 61 3 6 10 3 19-9 29-10 9-17 20-15 27 2 6-9 16-24 22s-38 15-50 20c-17 8-28 5-47-10l-24-19-33 32c-34 35-69 45-69 21zM990 185c0-8 5-15 10-15 6 0 10 7 10 15s-4 15-10 15c-5 0-10-7-10-15zm4380-4c0-5-10-7-21-4-19 5-21 3-15-20 7-29 10-28-67-32-20-1-41-6-45-10s5-5 21-3c15 3 29 2 32-2 2-4-71-6-163-4-222 4-187-4 56-14 213-8 195-13 208 61 3 20 3 37 0 37s-6-4-6-9zM910 165c0-8 7-15 15-15s15 7 15 15-7 15-15 15-15-7-15-15zm-375-55c-4-6 24-10 72-11 43 0 91-3 106-5 16-3 26-1 23 4-3 4-29 9-58 11-29 1-72 4-95 6-23 3-45 0-48-5zm470-10c-4-6 9-10 32-10 28 0 34 3 23 10-20 13-47 13-55 0z"/></g></svg>