<svg class="img-fluid" xmlns="http://www.w3.org/2000/svg" viewBox="0 0 3110 1000"><g fill="transparent"><path d="M0 500V0h3110v1000H0V500zm2380 399v-29h103c69-1 110-5 127-15 34-20 94-19 111 1 12 15 29 16 126 11 151-8 202-34 188-98-5-24-16-35-49-50-22-10-56-19-74-19-33 0-33-1-31-38 2-21-1-44-5-51-13-21-110-9-146 17-38 28-64 28-124-3-92-47-228-29-264 35-24 42-70 42-94 0-20-35-50-48-129-57-64-6-142 15-153 42-8 23-79 19-101-5-25-28-77-40-172-40h-83v-29c0-35-15-48-35-31-11 9-15 37-15 111v99h-30c-21 0-39-10-63-37-33-36-36-36-140-47l-107-10v-33c0-33 0-33 48-33 55 0 88-19 79-44-5-12-19-16-57-16-101 0-162 62-134 135 13 34 84 58 187 63l98 5-3 41-3 41-135 5c-127 5-135 6-135 25s7 20 142 20c133 0 143-1 165-22 14-14 37-23 55-23 25 0 32 5 37 26 8 32 37 29 47-6 4-14 7-60 8-102l1-78h95c112 0 115 3 115 108 0 55 4 72 19 86 19 17 20 17 33-3 17-27 71-28 105-1 21 17 41 20 113 20 77 0 92-3 124-25 20-14 50-25 65-25 27 0 28 3 34 57 3 31 12 60 19 64 19 12 38-10 38-42zM129 856c7-8 15-30 18-50 5-30 10-36 31-36 14 0 71 23 126 51 65 32 107 48 119 44 26-11 21-24-18-42-72-34-31-113 59-113 34 0 36 2 36 33 0 42 31 92 69 112 40 20 253 22 270 1 21-25-12-34-141-38-69-1-129-5-132-8s-2-53 1-111l6-106 125-6c133-7 165-18 137-46-18-18-127-27-212-16-43 5-63 14-85 36-33 33-78 38-99 12-28-33-75-43-207-43-86 0-132 4-140 12s-12 56-12 151c0 159 14 205 49 163zm971-481c59-40 98-44 126-14 42 47 137 67 164 34 17-20 4-35-31-35-27 0-29-3-29-36v-36l120 7c105 7 120 6 126-9 4-10 18-16 39-16 53 0 65 9 65 46 0 27-4 34-19 34-10 0-25 7-32 16-26 31 13 44 136 44 91 0 118-4 150-20 41-21 95-27 95-10 0 5 10 15 22 21 36 19 48-11 48-118v-93h49c84 0 77-47-7-52-42-3-47-6-50-28-7-54-62-58-62-4 0 12-10 30-22 39-22 15-22 17-5 29 11 9 17 27 17 55 0 39-2 41-29 41-16 0-42-7-57-15-16-8-48-15-72-15h-44l3-38c4-57-5-65-72-60-43 3-65 10-82 26-31 29-68 28-114-4-36-24-44-25-149-22-103 3-113 5-147 31-21 16-48 27-66 27-28 0-31-3-31-31 0-39-43-83-96-98-60-17-296-14-320 3-17 13-19 29-22 154-5 190-13 182 192 182h154l52-35z"/><path d="m2045 811-40-6-3-72-3-73h94c59 0 97 4 105 12 7 7 12 39 12 74v61l-37 7c-42 7-69 6-128-3zm335-45c0-30 4-66 10-81 10-26 10-26 107-23l98 3 3 78 3 77h-221v-54zm290-6v-50h34c21 0 36 6 40 15 3 8 12 15 21 15 11 0 15 10 15 35v35h-110v-50zm90-85c0-35 0-35 45-35s45 0 45 35 0 35-45 35-45 0-45-35zM140 640v-50h260v44c0 31-5 46-16 50-9 3-67 6-130 6H140v-50zm630-335v-45h138c75 0 143 4 150 9 8 5 12 22 10 42l-3 34-147 3-148 3v-46zm490-90v-35h260v70h-260v-35zm-490-52v-56l53 7c28 3 96 6 150 6h97v40c0 24-5 42-12 45-7 2-75 6-150 8l-138 5v-55z"/></g><g fill="#DDE5E8"><path d="M2312 971c-7-4-16-33-19-63l-6-56-35 24c-32 22-45 24-152 24-104 0-120-2-144-21l-27-22-15 22c-19 27-74 28-97 3-10-10-17-35-17-55 0-30 4-37 20-37 13 0 20 7 20 20 0 11 5 20 10 20 6 0 10-27 10-60 0-47-3-60-15-60-8 0-15 9-15 20 0 30-24 24-37-10-10-26-16-30-47-30-33 0-36-2-36-30s2-30 40-30c22 0 40-4 40-10 0-5-13-10-30-10-23 0-30-4-30-20s7-20 38-20c53 0 101 16 129 42 23 22 25 22 37 6 22-31 81-48 158-47 104 1 158 17 183 55l21 31 17-29c25-43 72-58 180-58 78 0 101 4 139 23l45 23 27-21c21-15 46-21 111-23 79-4 84-3 99 21 13 19 14 30 7 51-10 24-9 26 19 26 47 0 110 30 121 57 14 37 11 53-11 53-11 0-20-7-20-15s-15-24-32-35c-28-17-51-20-140-20h-108v-35c0-35-20-49-36-24-3 6-24 9-45 7-37-3-39-2-39 24 0 16-4 28-10 28-5 0-10 23-10 50 0 28-4 50-10 50-5 0-10 5-10 10 0 6 26 10 59 10 40 0 63 5 71 15 30 36 310 8 310-32 0-7 9-13 21-13 29 0 21 37-13 63-33 25-101 35-232 36-77 1-103-3-117-15-16-14-20-14-48 0-21 12-59 16-131 16h-100v28c0 15-5 33-12 40-14 14-67 16-86 3zm-82-150c0-5 3-23 6-40 6-27 4-31-15-31-18 0-21 6-21 40 0 29 4 40 15 40 8 0 15-4 15-9zm120-15v-25l111 6 110 6-3-49-3-49h-139l-10 33c-7 26-14 32-37 32-19 0-29-5-29-15 0-8-9-15-20-15-16 0-20 7-20 34 0 19 3 41 6 50 10 25 34 19 34-8zm-348-26c-3-30-1-40 11-40 8 0 17 8 20 19 5 20 63 31 119 23 24-4 28-9 28-36 0-46-16-56-87-56-49 0-63 3-63 15 0 8-7 15-15 15-10 0-15-11-15-35 0-28 4-35 20-35 11 0 20-4 20-10 0-5 7-10 15-10s15-4 15-10c0-15-35-12-73 6l-34 16 5 82c4 71 12 95 32 96 3 0 4-18 2-40zm-102-98c0-4-9-13-20-20-18-11-20-10-20 8 0 13 7 20 20 20 11 0 20-3 20-8zm295-62c-28-12-55-12-55 0 0 6 17 10 38 9 30 0 33-2 17-9zm395 0c-20-13-100-13-100 0 0 6 26 10 58 10 40 0 53-3 42-10zM60 881c-20-38-13-54 20-47 27 5 30 3 30-19 0-16 6-25 15-25 8 0 15-5 15-11 0-13 89-6 99 7 3 5 24 9 46 10 22 0 48 4 58 8 15 7 17 3 17-33 0-35 3-41 21-41 11 0 27-7 35-15 9-8 31-15 50-15 32 0 34 2 34 35 0 25 5 38 18 42 9 4 24 15 32 26 14 16 15 9 12-78-6-153-13-145 123-145 91 0 115 3 115 14 0 19-32 26-122 26h-76l-4 80c-4 95-12 90 148 90 72 0 114 4 122 12 16 16 16 70 0 86-19 19-291 16-329-3-38-20-69-70-69-112 0-38-5-40-43-14l-28 18 31 13c50 21 68 79 31 100-40 21-89 11-184-38l-95-48-6 34c-7 48-23 62-67 62-28 0-41-5-49-19zm1071 0c-14-26-14-54 2-73 10-14 38-17 155-20l142-3v24c0 23 1 23 19 7 10-10 21-33 23-52 3-28 1-34-14-34-12 0-18 7-18 21 0 17-4 20-22 15-13-3-29-6-35-6-8 0-13-13-13-30 0-23 4-30 20-30 11 0 20-4 20-10 0-5-4-10-10-10-5 0-10-10-10-21 0-35 66-19 108 26 31 34 32 34 32 10 0-28 15-33 24-9 10 25 7 74-4 74-5 0-10 9-10 20s5 20 10 20c6 0 10 7 10 15s4 15 9 15 16 3 25 6c13 5 16-2 16-45 0-45 2-51 21-51 21 0 21 4 17 69-3 37-8 73-12 80-4 6-27 11-51 11-39 0-45-3-51-26l-6-25-25 23c-23 22-33 23-193 26s-169 2-179-17z"/><path d="M2660 755v-65h34c38 0 66 31 66 75 0 36-22 55-64 55h-36v-65zm80 18c-8-3-21-12-27-21-11-14-13-13-13 6 0 18 6 22 28 21 15 0 20-3 12-6zm-1515-22c-68-17-105-47-105-87 0-23 35-16 49 9 13 24 76 47 131 47 23 0 30 4 30 20 0 17-6 20-37 19-21-1-51-4-68-8zM160 685c0-19-4-35-10-35-5 0-10-16-10-35v-35h260v110h-40c-46 0-56-24-15-34 14-4 25-13 25-21 0-12-18-15-100-15-93 0-100 1-100 20 0 18 7 20 55 20 54 0 55 0 55 30v30H160v-35zm1430-19c0-35 1-36 36-36 34 0 35 1 32 33-3 28-7 32-35 35-32 3-33 2-33-32zm-337-11c-7-8-13-28-13-45 0-27 3-30 33-30 17 0 49-3 70-6 30-5 37-4 37 9 0 23-31 37-87 39-38 1-41 2-13 5 76 7 100 14 100 28 0 21-110 20-127 0zm-443-65c0-16 7-20 35-20 37 0 43 8 23 28s-58 15-58-8zm310-3c0-38 64-87 114-87 18 0 26 5 26 18 0 12-13 22-44 31-33 9-46 19-50 37-9 33-46 33-46 1zm-703-22c-15-14-39-25-53-25-17 0-24-5-24-20s7-20 25-20c33 0 86 22 103 43 12 15 16 14 35-9 29-33 79-44 212-44 120 0 158 11 163 48 4 27-28 31-49 6-11-13-33-15-134-12-115 3-123 4-154 31-41 34-86 35-124 2zM50 542c0-23 19-42 42-42 22 0 24 26 4 46s-46 18-46-4zm1480-1c0-28 24-43 67-39 31 2 39 7 41 27 4 22 1 23-32 17-23-4-36-3-36 4 0 5-9 10-20 10-13 0-20-7-20-19zm-207-5c-28-13-30-32-5-38 29-8 62 9 62 32 0 22-21 25-57 6zM690 420c-11-11-20-31-20-45 0-18 5-25 20-25 13 0 20 7 20 20s9 22 25 26 25 13 25 25c0 26-44 25-70-1zm320 0c0-16 7-20 35-20 19 0 35-4 35-10 0-5 5-10 11-10s20-11 31-26c16-20 28-24 57-22 28 2 37 8 39 24 2 15 15 24 52 34s50 18 50 32c0 36-82 16-123-30-18-20-18-20-69 14-59 40-118 47-118 14zm360 0c0-11 7-23 15-26 8-4 15-12 15-20 0-10-15-14-60-14h-60v-70h135c74 0 154-5 178-12 24-6 55-8 70-4 24 6 27 11 27 46s-3 39-27 42c-33 4-43 27-14 35 31 8 28 43-4 43-29 0-65-32-65-58 0-28 29-62 53-62 21-1 21-1 3-12-15-8-21-7-28 6s-26 16-100 16c-72 0-89 3-80 12 18 18 14 63-6 81-26 23-52 22-52-3zm490 0c0-13 7-20 18-20 10 0 27-7 38-15 25-19 75-19 100 0 13 9 31 12 57 8 40-6 43-3 27 28-14 25-83 26-107 1-17-16-20-16-53 0-47 25-80 24-80-2zM773 353c-8-3-13-23-13-49 0-44 0-44 35-44 24 0 35 5 35 15 0 8-7 15-15 15s-15 7-15 15c0 12 19 15 114 15 109 0 156-12 101-26-35-9-32-34 4-34 49 0 61 9 61 46 0 28-5 36-26 44-26 10-258 13-281 3zm1143-88c-11-8-28-15-38-15s-18-4-18-10-34-10-81-10h-81l4-41c3-37 2-40-17-33-11 3-37 8-57 11-21 3-38 9-38 14s-9 9-20 9c-16 0-20 7-20 35v36l-147-3-148-3-3-34c-4-44 8-51 88-51 90 0 110-7 110-36 0-21 5-24 39-24 24 0 51 9 73 24l36 24 21-22c18-17 36-22 107-25 101-4 117 5 112 61l-4 38h41c22 0 52 7 68 14 32 17 36 5 7-24-27-27-25-56 5-82 14-12 25-31 25-43 0-30 19-45 55-45 39 0 63 18 67 50 3 22 9 26 53 30 60 6 84 36 66 83-14 37-61 39-61 3 0-28-16-36-71-36-36 0-39-2-40-27-1-21-2-23-6-8-3 11-12 26-21 32-12 10-15 27-13 68l2 55h-38c-21 0-47-7-57-15zm-473-52c-29-2-77-2-105 0-29 2-6 3 52 3s81-1 53-3z"/><path d="M760 190c0-16-4-30-9-30s-12-12-14-27c-4-26-4-26-6 5 0 17-5 32-11 32-5 0-10 7-10 15 0 9-9 15-21 15-20 0-21-4-17-71 5-99 5-99 202-99 89 0 179 5 200 11 53 15 96 59 96 99v31l34-26c19-14 50-29 70-32 31-5 36-3 36 14 0 15-9 22-31 27-17 3-40 17-51 31-14 17-29 25-52 25-30 0-33-3-42-42-8-37-13-43-41-49-30-6-33-4-33 18 0 19-4 24-16 19-9-3-27-6-40-6-20 0-24-5-24-30s4-30 25-30c14 0 25-4 25-10 0-5-16-10-35-10s-35 5-35 10c0 6-30 10-70 10s-70 4-70 10 16 10 35 10c29 0 35 4 35 21 0 19-5 21-45 17-40-3-45-1-45 17s5 20 55 17c50-4 55-2 55 17s-6 21-75 21h-75v-30z"/></g><path d="M2318 969c-12-6-18-23-19-47-1-20-4-48-8-62-6-22-8-23-14-7-12 32-69 47-179 47-86 0-108-3-137-21l-33-20-20 20c-21 24-37 26-71 10-27-12-37-55-37-150v-49h-148l-7 88c-3 48-10 94-14 102-5 9-23 15-47 15-36 0-40-3-50-35-11-32-12-33-19-11-12 40-60 51-219 51h-146l-17-26c-15-24-15-29-2-53 14-26 17-26 144-31 155-6 180-24 48-34-158-12-203-39-203-123 0-91 38-122 157-131 86-6 103 4 103 58 0 42-10 50-68 50-20 0-43 4-50 9-17 11 32 21 99 21 66 0 127 26 150 64l19 31V633c0-79 3-105 16-117 31-32 94-12 94 29 0 23 4 25 53 26 113 2 165 13 198 45 28 26 31 27 40 11 20-35 64-47 169-47 114 0 162 15 184 59l14 26 13-28c21-46 55-57 182-57 104 0 117 2 150 24 35 24 36 24 53 5 24-27 90-42 153-36 53 6 71 17 71 47 0 13-1 13-10 0-8-11-9-8-4 13l6 27h-66c-37 0-66 4-66 10s42 10 105 10c149 0 185 23 185 116 0 72-56 94-239 94-99 0-128-3-142-16-15-14-20-13-50 5-28 17-51 21-130 21-102 0-109 3-109 50 0 28-47 40-82 19zm62-13c0-2-13-6-29-8-17-2-28-1-25 4 5 8 54 12 54 4zm113-79 102-3-107-2-108-2 2 38c1 36 1 36 5 5l4-32 102-4zm-176 1c-2-13-4-5-4 17-1 22 1 32 4 23 2-10 2-28 0-40zm-944-5c-40-2-106-2-145 0-40 1-8 3 72 3s112-2 73-3zm523-73v-75l-3 74-4 73-29-4c-16-2-27 0-24 4 3 5 18 8 32 6 26-3 27-4 28-78zm262 73c-26-2-71-2-100 0s-8 3 47 3 79-1 53-3zm-805-30c-13-2-35-2-50 0-16 2-5 4 22 4 28 0 40-2 28-4zm775 0c-10-2-28-2-40 0-13 2-5 4 17 4 22 1 32-1 23-4zm365 0c-23-2-64-2-90 0s-7 3 42 3c50 0 71-1 48-3zm-1125-30c-21-2-57-2-80 0-24 2-7 4 37 4s63-2 43-4zm769 0c-20-2-52-2-70 0-17 2 0 4 38 4 39 0 53-2 32-4zm381 0c-27-2-69-2-95 0-27 2-5 3 47 3s74-1 48-3zm-581-85c-2-18-4-6-4 27s2 48 4 33 2-42 0-60zm241 14c4-48 4-48-85-56l-63-6v48c0 27 3 52 7 56s37 6 73 4l65-3 3-43zm400 7c5-55-16-70-89-65-34 2-63 7-66 10s-8 26-11 51l-5 46 84-3 84-3 3-36zm167 27c0-1-12-14-27-30l-28-29v37c0 35 1 36 28 30 15-4 27-7 27-8zm-468-83c-2-16-4-5-4 22 0 28 2 40 4 28 2-13 2-35 0-50zm115 8c2-17 1-28-4-25-8 5-12 54-4 54 2 0 6-13 8-29zm203-31c-4-6-44-9-93-8l-87 2 90 6c50 3 91 7 93 8s0-2-3-8zm-807-7c-10-2-26-2-35 0-10 3-2 5 17 5s27-2 18-5zm370 0c-15-2-42-2-60 0s-6 4 27 4 48-2 33-4zm715-74c-19-6-40-5-55 0-18 8-12 10 32 9 50 0 52-1 23-9zM66 878c-23-33-23-339 0-362 12-13 41-16 152-16 156 1 204 9 238 41l24 23 31-30 30-29 151-3c167-4 188 3 188 60 0 40-28 48-165 48-133 0-128-4-123 110l3 65 125 3c133 3 160 12 160 56 0 46-11 49-157 54-112 4-145 1-169-11-49-26-76-62-81-112-5-44-6-45-27-31-12 7-31 16-41 18-17 3-13 9 22 31 52 33 64 64 33 89-35 28-69 22-179-32-56-27-104-50-107-50-2 0-4 14-4 31 0 49-16 69-55 69-24 0-39-7-49-22zm383-2c-2-2-24-6-48-9-29-4-40-2-30 4 13 8 88 14 78 5zm260-5c-115-5-151-10-172-24-15-9-27-15-27-12s15 14 33 25c28 18 48 20 172 18l140-2-146-5zm59-28c-21-2-57-2-80 0-24 2-7 4 37 4s63-2 43-4zm15-30c-29-2-78-2-110 0s-8 3 52 3c61 0 87-1 58-3zM238 683c-10-2-26-2-35 0-10 3-2 5 17 5s27-2 18-5zm132-48v-25H170v50h200v-25zm338-206c-22-9-28-18-34-56-9-62 4-304 18-320 13-17 352-18 395-2 44 16 73 50 80 91l6 39 27-26c37-35 79-45 196-45 100 0 156 11 183 35 11 11 20 9 48-8 50-29 172-36 197-11 13 12 17 27 13 50-5 31-5 32 42 38 26 3 56 13 67 21 25 19 34 19 34-3 0-9-9-23-20-30-26-16-27-68-1-81 10-6 21-24 24-41 13-60 101-61 113 0 6 28 10 30 50 30 48 0 74 19 74 55 0 35-26 55-71 55h-39v93c0 59-4 97-12 105-17 17-88 15-109-4-16-14-20-14-45 3-23 15-52 19-164 21-152 3-183-5-188-51-4-35 13-57 44-57 30 0 31-16 2-26-13-4-25-1-32 7-9 11-44 14-156 13-80 0-120 1-90 3 78 5 105 49 58 93-41 38-171 21-218-30l-25-27-38 32c-25 22-52 34-84 39-70 9-314 6-345-5zm332-114c26-16-18-25-132-25-95 0-118 3-118 14 0 8 6 17 13 20 18 8 222 0 237-9zm450-100c0-17-4-17-105-15-79 1-108 7-100 21 4 5 51 9 106 9 81 0 99-3 99-15zm298-22c-10-2-28-2-40 0-13 2-5 4 17 4 22 1 32-1 23-4zm-754-24c5-5 8-10 5-12-2-3-59-7-126-10l-123-6v50l118-7c64-3 121-10 126-15zm786-24c-7-9-27-14-49-13l-36 1 38 4c21 3 41 11 44 19s8 13 11 10-1-12-8-21zm366-11c-11-8-25-14-30-13-6 0-1 5 12 11 12 6 22 16 22 21 0 6 3 7 7 3 5-4-1-14-11-22zM714 71c7-6 59-12 117-14l104-3-111-2c-124-2-135 3-132 58l1 35 4-32c2-17 10-36 17-42zm1298 19c2-19 10-26 29-28 22-3 29 2 37 25 9 23 11 25 11 7 1-29-22-46-56-42-24 3-29 9-34 41-3 21-3 34 2 30 4-4 9-19 11-33z" fill="#8DA6B4"/><g fill="#396578"><path d="M2332 795c4-188 1-185 163-185 98 0 116 3 139 21 24 19 26 26 26 104 0 122-18 135-191 135h-88l-3 33c-2 25-8 33-26 35l-23 4 3-147zm267 11c7-9 11-39 9-77-3-62-4-64-35-73-18-5-33-15-33-22 0-9-12-14-35-14-24 0-35 5-35 14 0 8-14 17-32 21-52 11-58 21-58 96v69h104c77 0 107-4 115-14z"/><path d="M2404 746c1-44 5-60 16-63 10-3 11-2 3 4-6 5-14 33-16 63l-4 55 1-59zm169-41c-6-14-7-25-2-25 11 0 22 25 17 39-1 6-8-1-15-14zm124 178c-3-5 25-7 61-5 116 5 130 9 35 10-50 1-94-1-96-5zm-1217-14 29-29c12-12 11-10 0 9-9 14-22 27-30 29-11 3-11 2 1-9zM85 758c-9-159-5-222 18-226 13-3 17 4 18 30 0 18 3 27 6 21 3-9 35-13 109-13 63 0 104-4 104-10 0-5-4-10-10-10-5 0-10-5-10-11 0-18 79-4 109 19 25 18 45 82 22 67-6-3-11 0-11 9 0 8 5 16 12 18 7 3 9 14 5 30-10 37-61 58-144 59h-68l98 50c57 29 97 55 97 64 0 26-34 17-166-45l-129-60-5 58c-4 49-8 57-26 60-21 3-22-2-29-110zm313-80c7-7 12-23 12-37 0-52-10-56-145-59l-125-4v112h123c82 0 127-4 135-12z"/><path d="M213 603c32-2 81-2 110 0s3 3-58 3c-60 0-84-1-52-3zm363 257c-60-19-64-29-62-167l2-127 29-18c25-15 53-18 168-18h137v25c0 18-5 25-20 25-13 0-20-7-20-20 0-19-7-20-100-20-81 0-100 3-100 15 0 11 19 15 88 18l87 3-101 2c-62 1-105 7-112 14-17 17-16 202 1 216 8 7 68 13 143 14 121 3 129 4 129 23s-7 20-120 22c-66 1-133-2-149-7zm584-14v-26h126c135 0 164-8 164-44 0-40-25-50-142-56-105-5-112-7-134-33-31-36-32-87-1-122 16-19 35-27 75-32 36-4 52-2 52 6 0 6-4 11-10 11-5 0-10 5-10 10 0 6 9 10 20 10 14 0 20-7 20-21s5-19 18-17c9 2 17 12 17 23 0 17-9 21-61 26-74 7-84 13-84 49 0 35 13 40 103 40 131 0 176 23 184 91 4 38 1 50-20 75l-25 29-146 3-146 4v-26zm405 12c-3-8-4-83-3-168 3-151 4-155 25-158 19-3 22 2 25 35l3 38 118 5c156 7 159 10 155 154-3 93-5 101-23 101-17 0-20-8-23-58-3-52-1-59 17-64 12-3 21-13 21-23 0-12-6-17-17-14-12 3-22-3-28-18-9-22-16-23-117-26l-107-3-3 103c-3 89-5 103-21 106-9 2-19-3-22-10zm35-148c0-11-4-20-10-20-5 0-11-28-13-62-3-58-3-57-5 20-2 67 1 82 13 82 8 0 15-9 15-20zm400 147c-45-15-60-47-60-125 0-57 3-67 29-93 26-25 37-29 88-29 52 0 59 2 59 20 0 16-9 21-46 25-69 9-75 15-78 79-4 80 3 86 108 86 106 0 112-5 108-91l-3-63-37-9c-50-12-49-33 3-42 34-6 45-4 62 14 18 17 22 35 23 99 3 99-1 111-42 128-40 17-165 18-214 1zm-88-92 1-100 6 81c4 49 12 89 21 100 14 17 14 18-2 6-13-10-17-10-21 0-3 7-5-32-5-87zm793 85c-15-23 12-30 120-30 119 0 165-10 165-34 0-26-36-36-130-36-126 0-171-28-158-97 5-28 66-53 131-53 55 0 58 1 55 23-3 20-9 22-65 25-54 3-63 6-63 22 0 29 15 33 127 36 57 2 112 8 123 14 49 26 49 99 0 125-34 18-295 22-305 5zm-418-82c6-96 11-101 12-15 0 42-3 77-7 77-5 0-7-28-5-62zm-767 13c0-22 5-43 10-46 6-4 10 12 10 39 0 25-4 46-10 46-5 0-10-18-10-39zm-1143 3c-33-18-33-19 8-28 22-5 26-4 15 4-13 9-12 12 4 25 26 19 9 19-27-1z"/><path d="M1633 740c0-36 2-50 4-32 2 17 2 47 0 65-2 17-4 3-4-33zm1050 15c0-27 2-38 4-22 2 15 2 37 0 50-2 12-4 0-4-28zM582 698l-2-98 88 2 87 2-80 5-80 6-6 90-5 90-2-97zm2188 82c0-6 38-10 95-10s95 4 95 10-38 10-95 10-95-4-95-10zM471 741c-1-8-7-11-18-6-15 5-14 3 2-13 15-14 21-16 23-5 2 7 1 19-1 26-4 9-6 8-6-2zm807 2c23-2 61-2 85 0 23 2 4 4-43 4s-66-2-42-4zm256-118c0-49 1-71 3-48s2 64 0 90-3 8-3-42zm266 76c0-6-24-12-52-14l-53-3 58-2c45-2 57 1 57 13 0 8-2 15-5 15s-5-4-5-9zm360-7-25-14h28c17 0 27 5 27 15 0 8-1 15-2 14-2-1-14-7-28-15zm-930-63c0-23 20-31 73-30 32 2 35 3 12 6-88 11-102 30-27 36l47 3-52 2c-46 2-53-1-53-17zm-99-39c-1-24 40-72 61-72 7 0 4 6-7 12-22 12-36 32-47 63-5 18-6 18-7-3zm-650-1c-1-16 47-71 62-71 5 0-3 10-17 21-15 12-32 31-36 43-5 12-9 15-9 7zm1156-8c-3-5 20-7 51-5 98 5 110 9 30 11-42 0-79-2-81-6zm406 0c9-2 25-2 35 0 9 3 1 5-18 5s-27-2-17-5zm415 0c23-2 61-2 85 0 23 2 4 4-43 4s-66-2-42-4zm-1235-70c9-2 25-2 35 0 9 3 1 5-18 5s-27-2-17-5zm-570-10c31-2 83-2 115 0 31 2 5 3-58 3s-89-1-57-3zm87-72c-16-6 36-9 148-10 186-1 226-9 256-52 17-25 21-90 7-117-5-10-4-27 3-42 21-48 31-30 28 51-3 67 0 83 17 108 31 44 141 72 196 51 25-9 28-9 17 2-19 19-129 15-169-6-18-9-40-28-50-42-13-20-18-23-24-11-5 7-26 26-48 42-40 27-45 28-198 31-87 2-169-1-183-5zm920-1c-30-6-6-7 72-4 132 5 195-6 233-42 16-15 25-18 25-9 0 7-21 24-47 36-39 19-67 24-143 25-52 1-115-2-140-6zm343-6c-7-3-13-10-13-16 0-7 5-6 14 1 8 7 30 11 48 9l33-3 3-95c2-52 6-98 10-102s5 41 2 100l-5 107-40 2c-22 1-46 0-52-3zM683 350c0-30 2-43 4-27 2 15 2 39 0 55-2 15-4 2-4-28z"/><path d="M710 265c0-77 4-135 9-135s11-10 13-22c3-23 6-23 168-29 148-5 168-3 197 13 17 10 34 25 37 34 10 27 7 69-8 89-12 16-12 22 1 41 8 13 13 39 11 60-2 31-10 43-37 61-32 22-43 23-212 23H710V265zm353 76c24-19 21-47-5-65-18-13-51-16-155-16H770v102l138-4c99-2 144-7 155-17zm-2-141c11-6 19-21 19-35s-8-29-19-35c-11-5-81-10-155-10H770v90h136c74 0 144-5 155-10z"/><path d="M848 333c34-2 88-2 120 0 31 2 3 3-63 3s-92-1-57-3zm5-50c37-2 96-2 130 0s4 3-68 3c-71 0-99-1-62-3zm395 102c-39-22-48-44-48-120 0-57 3-69 25-90 13-14 32-25 42-26s68-2 128-3c164-3 191 13 183 110l-3 39-157 3c-87 1-158 6-158 10 0 27 31 45 86 51 43 4 59 10 59 21 0 22-120 25-157 5zm272-159c0-32-15-36-134-36-105 0-126 7-126 42 0 16 11 18 130 18h130v-24zm100 154c0-19 7-20 129-20 104 0 133-3 145-16 38-37 4-54-111-54-64 0-98-5-123-18-31-15-35-21-35-57s4-42 35-58c24-12 53-17 90-15 47 3 55 6 55 23 0 18-8 20-62 23-62 3-80 15-63 42 6 10 43 16 128 19 136 7 152 14 152 71 0 30-6 43-26 59-24 19-40 21-170 21-137 0-144-1-144-20zm397 13c-4-3-7-50-7-104 0-89-2-98-20-104-11-3-20-15-20-26 0-12 7-19 20-19 16 0 20-7 20-34 0-35 17-50 45-40 9 4 15 19 15 40v34h55c41 0 57 4 62 15 9 26-3 31-84 34l-33 1v105c0 103 0 105-23 105-13 0-27-3-30-7z"/><path d="M1680 320c0-12 143-12 180 0 16 5-11 8-77 9-63 1-103-3-103-9z"/></g><path d="M1480 804c0-10-6-14-15-10-11 4-15-2-15-24 0-40-17-46-138-53-134-7-152-17-152-91 0-60 6-67 66-84s121-15 128 4c10 25-3 35-38 28-70-13-140 46-102 84 12 12 44 18 125 22 134 7 151 17 149 91 0 27-2 49-4 49s-4-7-4-16zm80-121V560h25c20 0 25 5 25 25 0 25 0 25 99 25 54 0 112 5 129 11 37 13 54 51 50 110-2 37-7 45-25 47-22 3-23 0-23-52 0-71-10-76-134-76h-96v48c0 59-9 94-22 86-6-4-14 0-19 7-5 9-9-35-9-108zm389 65c-6-80 1-100 41-121 28-14 54-17 133-15 125 4 137 14 137 122 0 44-4 66-9 57-5-7-14-10-20-7-8 5-11-10-11-48 0-80-12-89-122-84-104 4-107 6-109 93-1 33-3 52-6 43-2-10-8-18-13-18s-10 8-13 18c-2 9-5-9-8-40zm413 43c-1-7-8-11-17-7-24 9-21-114 4-145 18-22 28-24 126-27 119-4 161 7 176 45 9 25 12 158 2 136-2-7-11-13-18-13-8 0-15-20-19-54-4-30-14-60-21-66-20-16-189-10-207 8-7 7-16 41-19 75s-7 56-7 48zM186 765c-48-24-48-24-53-4-5 16-8 18-14 7-7-11-11-10-18 2-9 14-21-199-12-227 4-15 41-18 41-3 0 6 9 10 20 10s20 7 20 15-6 15-14 15c-10 0-17 16-22 45-11 74-9 75 115 75 60 0 122-4 136-10 23-9 26-14 23-52-3-41-5-44-45-58-29-10-43-20-43-32 0-21 18-22 72-8 47 13 68 43 68 96 0 75-46 103-170 104-54 1-55 1-27 16 34 19 35 27 1 14-22-9-25-8-20 5 7 20 0 19-58-10zm325-76c-1-146-5-143 191-147 141-4 150-3 146 15-3 16-17 19-141 23-108 4-140 8-147 20-5 8-10 53-11 100 0 47-3 79-6 73-7-18-21-16-26 5-3 9-5-31-6-89zm2499 66c-25-26-23-40 3-29 16 6 33 41 25 50-3 2-15-7-28-21zm-279-36c-28-30-32-56-11-81 14-18 32-24 84-28 37-3 71-3 76 0 22 13-10 29-65 32-52 3-60 6-63 24-5 32 19 44 97 46 84 2 101 13 34 22-87 12-131 7-152-15zM1110 211c0-9-8-11-27-6-27 6-27 6-9-14 17-19 17-22 3-45-10-14-30-26-51-30-44-8-47-32-7-41 60-13 121 34 121 94 0 21-29 63-30 42zm102-5c2-10 15-28 30-39 48-36 259-37 304-2 17 14 17 14-9 5-29-10-59-3-39 9 6 3-33 5-86 3-62-2-108 1-127 9-16 7-36 11-44 10s-18 3-23 11c-7 10-8 8-6-6zm-471-33c-11-12-15-13-22-1-5 8-9-9-9-45V69l42 3c47 3 66 31 29 41-14 3-21 15-23 40-3 30-5 33-17 20zm1279-79c0-19 5-24 25-24 18 0 25 5 25 19 0 12-9 20-25 23-21 4-25 1-25-18z" fill="#264552"/><path d="M511 624c-2-56 58-105 110-89 31 10 22 34-16 41-19 3-38 10-41 15s-14 9-24 9c-13 0-20 9-23 28-4 26-4 26-6-4zm1162 19c15-2 39-2 55 0 15 2 2 4-28 4s-43-2-27-4zm400 0c20-2 54-2 75 0 20 2 3 4-38 4s-58-2-37-4zm394 0c18-2 50-2 70 0 21 2 7 4-32 4-38 0-55-2-38-4zm-1306-35c-1-44 27-64 103-72 74-7 86-4 86 25 0 17-7 19-58 19-58 0-84 11-96 40-3 8-4 5-2-7 2-13 0-23-5-23s-14 10-19 23c-8 21-9 21-9-5zM93 580l2-45h135c74 0 147 3 162 8 29 8 58 32 58 49 0 6-3 8-7 5-3-4-12-2-18 3-9 7-16 6-25-5-10-12-38-15-141-15-127 0-129 0-130 23-1 16-2 18-6 5-6-23-20-23-26 0-3 9-5-3-4-28zm1560 33c26-2 68-2 95 0 26 2 4 3-48 3s-74-1-47-3zm414 0c18-2 50-2 70 0 21 2 7 4-32 4-38 0-55-2-38-4zm386 0c20-2 54-2 75 0 20 2 3 4-38 4s-58-2-37-4zm-891-38c2-32 7-40 23-40s20 7 20 30c0 21-4 29-14 27-8-2-18 3-23 10-5 8-8-2-6-27zm-445-442c-11-10-63-15-212-20-107-3-144-8-157-20-9-8-23-12-30-8-10 6-10 5-2-4 9-9 57-12 185-9 177 3 210 10 224 47 6 16 2 24-8 14z" fill="#1A272D"/><path d="M223 572c-112-2-133-5-133-18s21-15 160-12c125 2 163 6 174 18 17 17 22 17-201 12zm317-14c30-24 69-29 195-26 94 3 110 5 113 20s-13 17-163 20c-158 3-165 2-145-14zm651 0c29-24 159-26 159-3 0 11-12 15-47 16-27 1-67 2-91 3-42 1-43 1-21-16zm369-3c0-9 9-15 25-15s25 6 25 15-9 15-25 15-25-6-25-15zm-461-449c-2-2-53-7-114-11-192-12-229-22-85-24 121-1 193 9 205 29 6 10 2 14-6 6z" fill="#061114"/><path d="M1340 559c0-8-23-10-76-7-42 3-70 1-62-3 7-5 43-9 81-9 53 0 67 3 67 15 0 8-2 15-5 15s-5-5-5-11zM90 548c0-5 67-8 149-8 83 0 152 3 154 8 3 4-64 7-149 7s-154-3-154-7zm471-3c6-6 69-10 146-10 82 0 138 4 140 10s-51 10-146 10c-100 0-147-3-140-10zM920 80l-125-6 120-1c66-1 129 2 140 7s13 8 5 7c-8 0-71-4-140-7z"/></svg>