<svg xmlns="http://www.w3.org/2000/svg" xml:space="preserve" viewBox="0 0 2342 1091"><path style="fill:transparent" d="M0 0h2342v1091H0z"/><path d="M2149 226s-5 9-11 15c0 0 9 7 14 12 1 1 1 1 1 2 11 10 16 26 16 41 0 34-18 53-41 55h-51V220c0-41 17-63 38-63 24 1 40 15 40 45 0 11-2 19-6 25zm111 151c-11 21-31 42-53 52-20 9-43 9-66 9h-65v-48l66-1c42-4 77-35 76-83 0-27-15-57-46-71 13-11 22-28 22-49 0-22-9-41-24-53s-35-18-58-18c-44 0-78 37-78 94v140h-48V67h116c52 0 102 4 128 48 12 19 17 39 17 59 0 17-4 34-13 51-2 3-4 6-7 10l4 4 3 3c4 4 7 8 11 11 3 3 6 7 8 10 9 11 15 24 17 38 1 7 2 14 2 20 0 19-4 37-13 54zm53-81c-4-28-18-49-33-67 7-18 10-36 10-54 0-28-8-55-24-80-41-68-118-68-164-68h-158v366h90v87h109c24 0 54 0 83-14s55-39 72-70c12-23 19-48 19-74 0-9-1-18-2-27z" style="fill:#0d62ad;fill-rule:nonzero"/><path d="M199 769c34 0 55-12 55-38v-1c0-24-18-38-58-38h-90v78h92zm-21-142c34 0 56-11 56-37v-1c0-23-18-36-51-36h-77v75h72zM31 484h164c40 0 72 11 92 31 16 16 24 36 24 60v1c0 40-21 62-46 76 41 16 66 39 66 87v1c0 65-53 97-132 97H31V483zm556 0h267v69H665v72h166v69H665v74h192v69H587zm613 72h-107v-72h293v72h-108v281h-78zm595 133-47-115-47 115h94zm-82-208h72l152 356h-81l-32-79h-149l-32 79h-79l152-356z" style="fill:#4c4c4d;fill-rule:nonzero"/><path d="M96 999h-9c-2-11-10-18-24-18-13 0-22 6-22 17 0 8 6 13 18 15l13 3c16 3 24 10 24 23 0 16-13 26-32 26-21 0-34-11-36-30h9c2 14 12 22 28 22 14 0 23-7 23-17 0-7-5-13-16-15l-15-3c-16-3-24-11-24-23 0-15 12-25 31-25 18 0 32 8 34 26zm44 64h-9v-88h9zm125 0h-10l1-68-30 51h-7l-30-51v68h-9v-88h7l35 59 36-59h7zm113-37c0 23-15 39-37 39s-37-16-37-39v-50h9v50c0 17 11 31 28 31s28-13 28-31v-50h9v50zm96 37h-57v-88h9v80h48zm68-77-19 43h38l-19-43zm-23 52-11 25h-10l40-88h9l40 88h-10l-11-25h-46zm121-54v79h-10v-79h-32v-9h74v9zm71 79h-9v-88h9zm118-44c0-20-16-37-36-37s-36 17-36 37 16 37 36 37 36-17 36-37zm9 0c0 25-20 45-45 45s-45-20-45-45 20-45 45-45 45 20 45 45zm111 44h-8l-57-71v71h-9v-88h7l58 72v-72h9zm183-64h-9c-2-11-10-18-24-18-13 0-22 6-22 17 0 8 6 13 18 15l13 3c16 3 24 10 24 23 0 16-13 26-33 26-21 0-34-11-36-30h9c2 14 12 22 28 22 14 0 23-7 23-17 0-7-5-13-16-15l-15-3c-16-3-24-11-24-23 0-15 12-25 31-25 18 0 32 8 34 26zm111 20c0-20-16-37-36-37s-36 17-36 37 16 37 36 37 36-17 36-37zm9 0c0 25-20 45-45 45s-45-20-45-45 20-45 45-45 45 20 45 45zm95 44h-58v-88h9v80h49zm102-37c0 23-15 39-37 39s-37-16-37-39v-50h9v50c0 17 11 31 28 31s28-13 28-31v-50h9v50zm70-42v79h-9v-79h-33v-9h74v9zm72 79h-9v-88h9zm118-44c0-20-16-37-36-37s-36 17-36 37 16 37 36 37 36-17 36-37zm9 0c0 25-20 45-45 45s-45-20-45-45 20-45 45-45 45 20 45 45zm110 44h-8l-57-71v71h-9v-88h8l57 72v-72h9zm104-64h-9c-2-11-10-18-24-18-13 0-22 6-22 17 0 8 6 13 18 15l13 3c16 3 24 10 24 23 0 16-13 26-32 26-21 0-34-11-36-30h9c2 14 12 22 28 22 14 0 23-7 23-17 0-7-5-13-16-15l-15-3c-16-3-24-11-24-23 0-15 12-25 31-25 18 0 32 8 34 26z" style="fill:#737476;fill-rule:nonzero"/></svg>