<svg xmlns="http://www.w3.org/2000/svg" xmlns:xlink="http://www.w3.org/1999/xlink" viewBox="0 0 129 56"><defs><path id="a" d="M.059.091H13.25v19.986H.059z"/><path id="c" d="M0 .084h31.624v31.574H0z"/></defs><g fill="none" fill-rule="evenodd"><path fill="#ED2E2E" d="M56.347 29.71h-.153l.063-.137c.492-1.05 1.526-1.771 2.72-1.77 1.195.002 2.227.726 2.717 1.776l.061.138h-.152l-5.256-.006zm8.84 2.645c.07-.387.106-.786.106-1.195 0-.425-.037-.84-.112-1.242-.554-3.04-3.118-5.338-6.2-5.341-3.49-.004-6.322 2.937-6.326 6.57-.004 3.633 2.821 6.58 6.31 6.585 2.087.002 3.554-.96 4.83-2.21l.233-.231-.283-.161-2.636-1.51-.15-.084s-.092.078-.133.11a2.927 2.927 0 0 1-3.843-.118 3.15 3.15 0 0 1-.81-1.183l9.015.01zm9.689-7.565-2.202 3.595h-1.849l-.01 9.36-3.613-.004.011-9.36-1.73-.001.004-3.599 1.73.002.002-1.865c.004-3.59 3.088-5.51 5.975-4.69.982.278 1.696.722 2.513 1.5l.32.303-2.845 2.09-.158-.081c-1.26-.648-2.336.158-2.2 2.653 0 .028.005.093.005.093l4.047.004z"/><path fill="#ED2E2E" d="M80.218 34.125a2.976 2.976 0 0 1-3.335-3.338 2.98 2.98 0 0 1 2.567-2.558 2.976 2.976 0 0 1 3.336 3.337 2.98 2.98 0 0 1-2.568 2.559m.055-9.512c-3.977-.257-7.26 3.013-7.014 6.985.205 3.273 2.861 5.932 6.14 6.143 3.974.256 7.255-3.01 7.011-6.98-.202-3.275-2.858-5.935-6.137-6.148m13.823 9.527a2.975 2.975 0 0 1-3.335-3.337 2.98 2.98 0 0 1 2.567-2.558 2.976 2.976 0 0 1 3.336 3.337 2.983 2.983 0 0 1-2.568 2.559m.055-9.512c-3.977-.258-7.261 3.013-7.014 6.984.204 3.274 2.86 5.933 6.14 6.144 3.974.255 7.255-3.011 7.01-6.981-.2-3.274-2.857-5.935-6.136-6.147"/><g transform="translate(100.981 17.717)"><mask id="b" fill="#fff"><use xlink:href="#a"/></mask><path fill="#ED2E2E" d="M7.598 16.316c-2.165.671-4.138-1.054-3.909-3.159a2.976 2.976 0 0 1 5.935.333v.009c-.002 1.275-.806 2.44-2.026 2.817M9.636 2.463 9.631 7.47l-.001.153-.14-.066a6.615 6.615 0 0 0-3.751-.583c-3.269.44-5.712 3.299-5.68 6.592.036 3.595 2.685 6.5 6.296 6.503 1.058.001 2.344-.53 3.098-1.236l.168-.167-.003.24-.002 1.167 3.612.004L13.25.733V.09l-.556.32-2.811 1.626-.243.142s-.004.196-.004.284" mask="url(#b)"/></g><g transform="translate(14.723 11.93)"><mask id="d" fill="#fff"><use xlink:href="#c"/></mask><path fill="#ED2E2E" d="M16.74 16.975h14.884V15.87c0-8.66-7.138-15.787-15.812-15.787S0 7.21 0 15.87s7.138 15.787 15.812 15.787c.123 0 .245-.002.367-.004l.19-.006.164-.006.274-.015.064-.004a15.827 15.827 0 0 0 9.104-3.658l-1.42-1.691a13.515 13.515 0 0 1-8.743 3.177 13.524 13.524 0 0 1-9.618-3.978 13.483 13.483 0 0 1-3.983-9.602c0-3.627 1.415-7.038 3.983-9.602 2.57-2.565 5.985-3.978 9.618-3.978s7.048 1.413 9.617 3.978a13.465 13.465 0 0 1 3.939 8.498H27.25a11.383 11.383 0 0 0-3.313-7.008 11.423 11.423 0 0 0-8.125-3.36c-3.07 0-5.955 1.193-8.125 3.36s-3.366 5.048-3.366 8.112 1.196 5.945 3.366 8.112 5.056 3.36 8.125 3.36c2.733 0 5.32-.946 7.385-2.683l-1.424-1.695a9.242 9.242 0 0 1-5.961 2.17c-5.117 0-9.28-4.155-9.28-9.264 0-5.109 4.163-9.265 9.28-9.265 4.742 0 8.665 3.57 9.213 8.161h-2.13a7.177 7.177 0 0 0-7.083-6.054c-3.953 0-7.169 3.211-7.169 7.158 0 3.947 3.216 7.158 7.169 7.158a7.141 7.141 0 0 0 4.605-1.678l-1.42-1.69a4.96 4.96 0 0 1-8.143-3.79 4.96 4.96 0 0 1 9.791-1.104h-5.748l1.842 2.208z" mask="url(#d)"/></g></g></svg>