<svg xmlns="http://www.w3.org/2000/svg" viewBox="0 0 14720 3680"><g fill="#040048" style="transform:none"><path d="M0 3405v-275h11859l3-47c2-31-3-60-14-83-27-52-24-157 5-201 38-57 58-63 190-54l117 7v163c0 90-4 175-10 189l-10 26h2370v550H0v-275zm12020-511c0-23-4-34-12-32-33 11-36 68-3 68 11 0 15-10 15-36zM1286 3070c-69-22-100-78-94-169 7-125 48-161 178-161 92 0 132 20 150 76 15 44 9 229-8 246-14 14-188 20-226 8z"/><path d="M1886 3070c-59-19-96-76-96-150 0-36-3-40-24-40-14 0-36 4-50 10-25 9-26 12-26 95v85h-140v-320h250v38c0 36 1 36 13 12 20-40 72-60 157-60 92 0 132 20 150 76 15 44 9 229-8 246-14 14-188 20-226 8zm995-18c-26-26-31-38-31-81 0-47 16-101 29-101 3 0 6-28 6-62v-63h118c118 0 119 0 143 28 23 27 24 35 24 163v134h-47c-27 0-85 3-130 6-81 7-82 7-112-24zm399 21c-43-16-50-34-50-123 0-79-2-88-20-93-17-4-20-14-20-55s3-51 20-55c15-4 20-14 20-41v-36h140v80h40c38 0 40 1 40 33 1 30 1 31 15 13 32-43 67-56 148-56 145 0 173 37 162 212-4 60-11 111-16 114-17 10-146 17-193 10-31-5-59-18-81-38l-35-30v30c0 18-6 32-16 36-19 7-133 7-154-1zm160-163v-50h-35c-35 0-35 0-35 43 0 51 4 57 42 57 27 0 28-2 28-50zm830 142c-26-26-30-38-30-84 0-33 6-62 16-77 11-15 17-46 18-85l1-61h118c118 0 119 0 143 28 23 27 24 35 24 157 0 71-3 131-7 133-5 3-63 8-130 12l-123 7-30-30zm720 0c-26-26-30-38-30-84 0-34 6-62 17-77 11-17 16-41 14-82-2-55-1-59 23-65 14-3 68-4 121-2 92 3 98 5 121 31 23 27 24 35 24 157 0 71-3 131-7 133-5 3-63 8-130 12l-123 7-30-30z"/><path d="M5726 3059c-39-30-56-77-56-149 0-115 44-170 135-170h53l4-45 3-45H4740v421l-67-3-68-3v-415h-395v420h-140v-420H980v90h64c48 0 70 5 87 19 23 19 24 24 24 163v143l-68 3-67 3v-81c0-80-12-126-31-115-5 4-9 49-9 101v95l-67-3-68-3v-415H0V0h14510v2650h-1580v90h61c33 0 69 4 79 10 30 16 40 66 40 196v124h-138l-4-94c-1-52-6-97-10-101-19-19-28 13-28 101v94h-140v-420H8570v420h-140v-420H6370v420h-140v-420h-230v420h-42c-24 0-79 3-123 6-73 6-82 4-109-17zm134-154c0-51-13-58-34-17-10 20-11 31-2 45 20 32 36 20 36-28zM750 1710v-340l338-2 337-3v-250l-337-3-338-2V760h730V510H390v1540h360v-340zm1990 225v-115h-260V740h260V510h-880v230h260v1079l-127 3-128 3-3 113-3 112h881v-115zm1372 104c201-40 335-131 409-277 31-63 34-73 34-167 0-115-17-163-81-235-47-52-89-79-171-111-61-23-63-25-63-60 0-30 4-38 23-43 32-8 102-70 137-121 38-56 64-152 55-208-22-135-104-221-265-279-64-22-71-23-500-23h-435l-3 768-2 767h404c248 0 426-4 458-11zm2026-116 3-123-373-2-373-3-3-222-2-223h690v-260h-690V760h750V510H5030v1540l553-2 552-3 3-122zm872-163v-290h118l117 1 200 270c110 149 207 280 216 290 16 18 30 19 224 17l208-3-40-50c-382-484-433-554-433-595 0-36 3-41 39-60 63-32 155-113 190-169 95-147 95-342 0-468-46-62-83-91-167-133-112-55-170-61-622-58l-405 3-3 768-2 767h360v-290zm1800-225v-515h67l83 198c45 108 91 215 101 238 10 22 27 64 39 93 11 29 29 70 40 91l20 40h109c75 0 112-4 118-12 5-7 44-94 85-193 213-506 188-455 225-455h33v1030h360V510l-216 2-215 3-80 180c-44 99-100 225-124 280-23 55-55 127-70 160-36 78-52 116-59 138-4 14-14 18-42 15-21-2-41-10-45-18-5-8-71-157-148-330-76-173-151-341-165-373l-27-57-212 2-212 3-3 768-2 767h340v-515zm2084 408c20-60 44-130 54-158l18-50 320-3 320-2 52 147c29 82 52 154 52 161 0 9 44 12 185 12h185l-15-37c-8-21-64-173-125-338-212-572-416-1124-425-1147-7-16-27-18-221-18-163 0-216 3-219 13-9 29-478 1298-539 1460l-26 67h347l37-107zm1843 69c16-22 93-136 173-255 196-293 164-295 373 27 87 135 164 249 171 256 9 7 77 10 204 8l190-3-259-375c-228-331-259-380-259-414 0-39 58-124 428-633l82-113h-365l-165 240-164 240h-74l-159-237-160-238-197-3-198-2 34 47c19 27 135 191 256 365 210 299 222 319 222 362 0 25-4 47-9 50s-60 79-124 168c-63 90-175 250-250 356l-136 192h359l27-38z"/><path d="M3610 1588v-230l218 4c238 5 262 10 317 68 28 30 30 36 34 127 4 123-8 165-59 202-57 41-104 49-317 55l-193 4v-230zm6-455c-3-3-6-93-6-199V742l173 5c226 6 262 17 293 92 18 43 18 164 0 199-20 38-55 68-96 80-40 12-354 25-364 15zm3396-145 3-243 180 3c206 3 253 14 306 68l34 35v122c0 112-2 125-24 155-56 79-137 102-358 102h-143l2-242zm4058 470c0-18 7-53 16-78s47-137 86-249c38-112 73-212 79-222 14-27 79-27 79 1 0 10 4 29 10 42 42 100 160 466 160 498v40h-430v-32zM7230 3074c-69-25-100-78-100-167 0-123 46-167 175-167 137 0 182 48 173 188-5 68-8 76-41 110-34 34-39 35-114 38-43 2-85 1-93-2zm100-164c0-24-25-60-34-49-20 24-23 46-10 72 12 23 18 26 30 16 8-6 14-24 14-39zm520 142c-26-26-30-38-30-84 0-31 6-62 14-74s16-50 18-85l3-64h118c118 0 119 0 143 28 23 27 24 35 24 157 0 71-3 131-7 133-5 3-63 8-130 12l-123 7-30-30zm393 18c-34-14-43-42-43-128 0-71-2-80-20-85-16-4-20-14-20-51 0-35 5-49 20-58 13-9 20-24 20-46v-33l68 3 67 3 3 38c3 36 4 37 43 37h40l-3 53-3 52-38 3-38 3 3 47c3 46 3 47 41 50l37 3v48c0 26-5 52-12 59-14 14-132 15-165 2zm451 4c-12-3-36-20-54-39-30-31-33-41-38-107-9-140 36-188 174-188 68 0 87 4 115 23 41 27 58 71 58 151 1 64-24 121-62 146-22 13-152 23-193 14zm105-148c8-20-5-66-19-66-27 0-41 65-18 88 14 14 27 7 37-22zm807 144c-64-20-96-73-96-162 1-124 49-168 180-168 113 0 120 4 120 59l1 46 14-32c23-53 67-73 160-73 137 0 182 48 173 188-5 69-8 76-42 110l-36 37h-95c-90 0-95-1-125-30-17-16-34-41-38-55-6-21-8-16-12 25-4 42-9 50-30 56-35 10-139 9-174-1zm120-125c10-8 34-15 52-15 25 0 32-4 32-20s-7-20-30-20c-17 0-42-7-55-16-31-20-52-13-61 21-4 18-1 32 11 45 22 24 26 24 51 5zm284-35c0-24-25-60-34-49-20 24-23 46-10 72 12 23 18 26 30 16 8-6 14-24 14-39zm785 160c-17-5-44-23-60-40-28-30-30-36-30-114 0-138 37-176 171-176 143 0 169 34 159 205-4 61-11 114-15 119-12 12-189 17-225 6zm508 0c-34-14-43-42-43-128 0-71-2-80-20-85-16-4-20-14-20-51 0-35 5-49 20-58 13-9 20-24 20-46v-33l68 3 67 3 3 38c3 36 4 37 43 37 37 0 39 1 39 32 0 32 0 32 16 10 26-38 67-52 151-52 135 0 180 49 171 188-5 69-8 76-42 110l-36 37h-192l-34-37-34-38v34c0 22-6 36-16 40-23 9-136 6-161-4zm167-160v-50h-35c-35 0-35 0-35 43 0 51 4 57 42 57 27 0 28-2 28-50zm200 0c0-24-25-60-34-49-20 24-23 46-10 72 12 23 18 26 30 16 8-6 14-24 14-39zm605 159c-17-4-44-22-60-39-28-30-30-36-30-114 0-137 37-176 169-176 91 0 131 17 151 63l14 32 1-37c0-27 6-40 20-48s20-21 20-46v-35l68 3 67 3 3 37c3 35 5 37 40 40l37 3v100l-38 3-38 3 3 47c3 46 3 47 41 50l37 3v54c0 50-2 55-25 61-14 3-55 4-92 2-91-6-103-22-103-133 0-73-2-83-19-88-18-4-20 4-26 99l-7 104-37 10c-43 12-154 12-196-1zm960 0c-17-4-44-22-60-39-28-30-30-36-30-114 0-138 37-176 171-176 144 0 173 40 158 221l-9 104-30 6c-44 10-165 9-200-2zM330 3028c-6-24-27-99-46-167-19-69-34-142-34-163v-39l73 3 72 3 15 64 16 65 15-65 14-64h150l15 58 16 58 14-58 15-58 73-3 72-3v37c0 28-48 225-86 357-5 15-16 17-82 15l-77-3-15-47c-20-62-26-66-35-21-13 69-18 73-100 73h-74l-11-42zm2017 35c-11-10-8-301 3-308 5-3 103-8 218-11 201-5 209-4 235 16l27 21v289h-139l-3-95c-4-125-22-128-28-5l-5 95-67 3-68 3v-89c0-63-4-93-13-101-23-18-27-2-27 96v93h-63c-35 0-67-3-70-7zm1460 0c-4-3-7-75-7-160v-153h250v139l-52 3-53 3-3 88-3 87h-63c-34 0-66-3-69-7zm1520 0c-4-3-7-75-7-159v-152l130-7c190-11 194-7 188 205l-3 115-67 3-68 3v-81c0-80-12-126-31-115-5 4-9 49-9 101v94h-63c-35 0-67-3-70-7zm1100 0c-4-3-7-75-7-158v-152l130-8c190-10 194-7 188 205l-3 115-67 3-68 3v-81c0-80-12-126-31-115-5 4-9 49-9 101v94h-63c-35 0-67-3-70-7zm363-152v-159l124-7c68-4 134-4 146 0 37 12 50 62 50 200v125h-138l-4-94c-1-52-6-97-10-101-19-19-28 13-28 101v94h-140v-159zm779 132c-6-15-27-68-46-118-20-49-38-109-40-132l-5-43h149l13 46c14 50 22 48 40-8l12-38h138v33c0 17-22 88-49 157l-49 125-76 3c-75 3-76 2-87-25zm1401-132v-159l124-7c68-4 134-4 145 0 40 12 51 54 51 195v130h-138l-4-94c-1-52-6-97-10-101-19-19-28 13-28 101v94h-140v-159zm1220 0v-159l130-7c87-5 134-4 143 3 8 7 18 7 27 2 8-6 43-10 76-10 47 0 67 5 88 21 26 20 26 21 26 165v145l-67-3-68-3-5-94c-3-63-9-96-17-99-10-3-13 21-13 97v101h-140v-87c0-89-9-121-29-109-7 5-11 43-11 102v94h-140v-159zm3317 152c-4-3-7-75-7-160v-153h250v139l-52 3-53 3-3 88-3 87h-63c-34 0-66-3-69-7zm263-68v-75h140v150h-140v-75zm200 0v-75h140v150h-140v-75zm200 0v-75h140v150h-140v-75z"/></g><g fill="#FFF" style="transform:none"><path d="M14480 3420v-260H0v-540h14480V0h240v3680h-240v-260zm-2395-304c38-25 45-54 45-200v-133l-91-7c-103-8-125 0-159 57-34 56-19 146 31 181 25 17 95 21 119 7 22-15 30-3 18 25-14 30-44 38-109 31-47-6-49-5-49 19 0 16 8 28 23 34 32 14 143 5 172-14zm-10630-75c23-5 31-13 36-39 6-31 5-33-15-27-11 4-44 9-72 12-43 4-54 2-79-19-44-38-27-48 81-48 94 0 94 0 94-25 0-43-27-93-59-109-54-28-155-15-188 25-19 23-37 103-30 131 10 39 54 87 90 97 37 11 98 12 142 2zm600 0c23-5 31-13 36-39 6-31 5-33-15-27-11 4-44 9-72 12-43 4-54 2-79-19-44-38-27-48 81-48 94 0 94 0 94-25 0-44-27-93-61-110-42-22-129-16-166 11-33 25-57 93-49 139 17 89 110 132 231 106zm963-8c26-12 37-14 40-5 2 7 21 12 43 12h39v-104c0-96-2-107-24-133-23-27-28-28-113-28-88 0-88 0-91 26l-3 27 63-5c50-4 66-2 77 10 19 24 7 34-49 41-67 9-95 23-109 53-18 39-13 63 18 94 34 33 58 36 109 12zm386 11c9-3 16-17 16-31 0-22-3-24-26-19-43 11-54-8-54-90v-73l38-3c30-2 38-7 40-25 3-21-1-23-37-23h-41v-80h-40c-39 0-40 1-40 36 0 27-5 37-20 41-11 3-20 14-20 25s9 22 20 25c18 5 20 14 20 93 0 89 7 107 50 123 21 8 75 8 94 1zm326-9c6-4 10-20 10-37 0-25-3-29-17-23-10 4-41 10-70 12-46 5-55 2-77-20-14-15-26-31-26-37s37-10 100-10h100v-25c0-43-27-93-59-109-41-22-119-20-154 3-47 30-62 60-62 123 0 50 4 61 30 88 16 17 43 35 60 40 30 9 148 6 165-5zm674 0c21-11 32-12 42-4 7 6 28 9 46 7l33-3 3-102c3-95 1-103-22-130s-28-28-113-28c-88 0-88 0-91 27l-3 26 62-5c53-5 64-3 76 12 20 28 16 35-19 35-83 0-148 43-148 97 0 31 51 83 82 83 13 0 36-7 52-15zm720 0c21-11 32-12 42-4 7 6 28 9 46 7l33-3 3-102c2-94 1-103-21-129-21-24-33-28-90-32-89-6-117 2-117 32 0 23 2 24 64 19 58-5 65-4 75 16 14 25 11 26-63 36-58 8-106 48-106 90 0 33 50 85 82 85 13 0 36-7 52-15zm730 0c20-11 33-12 40-5 5 5 25 10 43 10h33v-361l-37 3c-37 3-38 4-41 49l-3 46-54-5c-51-4-57-2-89 30-60 60-61 155-1 215 36 36 64 41 109 18zm1553-27c62-62 52-174-19-218-44-27-122-27-166 0-35 22-62 72-62 117 0 38 36 108 63 121 41 20 52 22 102 17 39-4 56-11 82-37zm577 27c21-11 32-12 42-4 7 6 28 9 46 7l33-3 3-102c3-95 1-103-22-130s-28-28-113-28h-88l-3 33c-3 31-2 33 17 23 11-6 40-11 65-11 35 0 48 5 56 20 13 24 9 25-64 35-58 8-106 48-106 90 0 33 50 85 82 85 13 0 36-7 52-15zm394 3c7-7 12-21 12-31 0-16-5-18-26-13-43 11-54-8-54-90v-73l38-3c29-2 38-8 40-25 3-19-2-22-39-25-42-3-43-4-44-38 0-33-2-35-37-38-37-3-38-2-38 30 0 22-7 37-20 46-11 7-20 19-20 28s9 18 20 21c18 5 20 14 20 85 0 86 9 114 43 128 32 13 91 12 105-2zm480-9c11-7 30-30 42-52 18-31 21-49 16-83-3-25-11-54-17-65-30-57-142-78-207-39-70 43-81 154-20 217 17 17 40 34 52 37 33 7 113-2 134-15zm912 6c6-3 10-21 10-39v-33l-39 19c-44 22-79 14-105-24-20-28-20-61-1-98 21-41 59-49 107-22l38 20v-38c0-43-12-50-90-50-60 0-111 27-132 70-40 82-4 174 78 200 29 9 116 6 134-5zm317-27c62-62 52-174-19-218-47-28-124-27-169 3-68 45-76 145-18 212 34 39 54 45 124 39 39-3 56-10 82-36zm903 27c6-4 10-20 10-37 0-25-3-29-17-23-10 4-41 10-70 12-46 5-55 2-77-20-14-15-26-31-26-37s37-10 100-10h100v-27c0-40-31-96-60-110-38-19-120-16-153 6-47 30-62 60-62 123 0 50 4 61 30 88 16 17 43 35 60 40 30 9 148 6 165-5zm444 9c9-3 16-17 16-31 0-22-3-24-26-19-43 11-54-8-54-90v-73l38-3c29-2 38-8 40-25 3-19-2-22-40-25-42-3-43-4-43-38 0-33-2-35-37-38-37-3-38-2-38 30 0 22-7 37-20 46-11 7-20 19-20 28s9 18 20 21c18 5 20 14 20 85 0 86 9 114 43 128 26 10 79 12 101 4zm313-36c62-62 52-174-19-218-47-28-124-27-169 3-68 45-76 145-18 212 34 39 54 45 124 39 39-3 56-10 82-36zm696 31c32-9 37-14 37-41 0-25-3-29-17-23-10 4-41 10-70 12-46 5-55 2-77-20-14-15-26-31-26-37s37-10 100-10h100v-25c0-43-27-93-59-109-41-22-119-20-154 3-47 30-62 60-62 123 0 50 4 61 30 88 45 46 119 61 198 39zm291 5c9-3 16-17 16-31 0-22-3-24-26-19-43 11-54-8-54-90v-73l38-3c29-2 37-7 37-23s-8-21-40-25c-38-5-40-7-40-40s-2-35-37-38c-37-3-38-3-38 32 0 25-6 38-20 46-11 6-20 18-20 26 0 9 9 18 20 21 18 5 20 14 20 85 0 86 9 114 43 128 26 10 79 12 101 4zm696-9c6-4 10-20 10-37 0-25-3-29-17-23-10 4-41 10-70 12-46 5-55 2-77-20-14-15-26-31-26-37s37-10 100-10h100v-25c0-43-27-93-59-109-41-22-119-20-154 3-47 30-62 60-62 123 0 50 4 61 30 88 16 17 43 35 60 40 30 9 148 6 165-5zM468 3023c5-10 19-60 32-111s27-89 31-85c4 5 17 46 29 93 32 118 33 120 85 120 33 0 45-4 49-17 15-51 86-322 86-328 0-3-19-5-42-3l-43 3-26 100c-14 55-28 107-31 115-7 19-8 17-39-115l-24-100h-89l-17 65c-45 173-46 177-53 150-3-14-16-68-28-120l-23-95-42-3c-24-2-43 1-43 5 0 5 15 65 34 134 19 68 40 143 46 167 11 41 11 42 55 42 32 0 47-5 53-17zm484-80 3-96 29-10c25-8 32-7 48 13 14 18 18 40 18 107v84l38-3 37-3v-113c0-108-1-115-24-133-28-23-89-25-117-4-31 23-34 19-34-46v-60l-37 3-38 3-3 165c-1 90 0 170 2 177 3 7 21 13 40 13h35l3-97zm708 12c0-83 1-86 26-95 14-6 39-10 55-10 27 0 29-3 29-35 0-31-3-35-25-35-14 0-37 7-50 16-23 15-25 15-31 0-4-11-19-16-45-16h-39v260h80v-85zm792-12c3-96 3-96 31-106 22-7 32-5 48 9s19 31 19 106v89l38-3 37-3 3-92c2-82 5-94 24-104 15-8 27-8 44 0 23 10 24 15 24 106v95h80v-114c0-112-1-115-26-135-34-26-77-27-119-1-32 20-32 20-55 0-27-23-74-25-110-5-17 9-29 10-37 3-6-5-27-8-45-6l-33 3-3 114c-1 63 0 121 2 128 3 7 21 13 40 13h35l3-97zm1458 12c0-84 0-86 28-96 15-6 39-8 55-5 26 5 27 4 27-34s-2-40-29-40c-17 0-33 5-36 10-3 6-15 10-26 10-10 0-19-4-19-10 0-5-18-10-40-10h-40v123c0 68 3 127 7 130 3 4 21 7 40 7h33v-85zm270-45v-130h-80v260h80v-130zm530-51v-180l-37 3-38 3-3 165c-1 90 0 170 2 177 3 7 21 13 41 13h35v-181zm722 84 3-96 29-10c25-8 32-7 48 13 14 18 18 40 18 107v84l38-3 37-3v-113c0-109-1-115-25-134-19-16-33-18-70-14-25 4-71 6-102 6l-58-1v124c0 68 3 127 7 130 3 4 21 7 39 7h33l3-97zm908-33v-130h-80v260h80v-130zm192 33 3-96 29-10c25-8 32-7 48 13 14 18 18 40 18 107v84l38-3 37-3v-113c0-108-1-115-24-133-28-23-75-24-113-5-16 9-30 11-33 5-4-5-24-9-46-9h-39v123c0 68 3 127 7 130 3 4 21 7 39 7h33l3-97zm368 2c0-94 0-96 26-106 59-22 74 2 74 124v77h80v-94c0-101-12-151-40-166s-83-12-107 5c-14 10-24 12-28 5-3-5-24-10-46-10h-39v260h80v-95zm851-35c27-69 49-126 49-127 0-2-17-3-39-3h-39l-28 80c-15 44-32 79-38 77s-21-38-35-80l-25-77h-44c-38 0-43 2-37 18 4 9 22 55 40 102s38 98 44 113c10 26 15 28 57 25l46-3 49-125zm789 0v-130h-80v260h80v-130zm540 35c0-94 0-96 26-106 59-22 74 2 74 124v77h80v-100c0-105-13-151-45-164-29-11-80-6-102 9-14 10-24 12-28 5-3-5-24-10-46-10h-39v260h80v-95zm1220 0c0-93 1-96 26-105 34-13 40-13 58 6 12 12 16 37 16 105v89h80v-198l30-7c50-11 59 5 62 108l3 92 38 3 37 3v-115c0-112-1-115-26-135-34-27-78-27-121 0l-34 21-23-21c-27-25-82-28-113-6-14 10-24 12-28 5-3-5-24-10-46-10h-39v260h80v-95zm2600 0c0-94 0-96 26-106 59-22 74 2 74 124v77h80v-94c0-101-12-151-40-166-27-15-83-12-106 5-29 19-34 11-34-52v-53h-80v360h80v-95zm710 10c0-84 0-86 28-96 15-6 39-8 55-5 26 5 27 4 27-34s-2-40-29-40c-17 0-33 5-36 10-3 6-15 10-26 10-10 0-19-4-19-10 0-5-18-10-40-10h-40v123c0 68 3 127 7 130 3 4 21 7 40 7h33v-85zm270 40v-45h-80v90h80v-45zm200 0v-45h-80v90h80v-45zm200 0v-45h-80v90h80v-45zM4180 2710c0-28-2-30-40-30s-40 2-40 30 2 30 40 30 40-2 40-30zm2160 0c0-28-2-30-40-30s-40 2-40 30 2 30 40 30 40-2 40-30zm2200 0c0-28-2-30-40-30s-40 2-40 30 2 30 40 30 40-2 40-30z"/><path d="M11954 2945c-36-54 12-136 71-121 23 6 25 10 25 70 0 68-6 76-56 76-14 0-30-10-40-25zm-10648-73c-11-19 25-52 57-52 33 0 64 31 52 50-8 12-102 13-109 2zm600 0c-11-19 25-52 57-52 33 0 64 31 52 50-8 12-102 13-109 2zm1069 114c-29-21-7-62 37-69 18-2 36-3 41 0 14 8 7 50-11 66-23 21-42 21-67 3zm581-114c-3-5 2-18 10-30 22-31 81-31 93 1 5 12 7 25 4 30-6 10-101 9-107-1zm804 113c-19-23 3-65 34-65 13 0 31-3 40-6 25-10 22 62-3 76-28 14-57 12-71-5zm720 0c-22-26 3-65 40-65h38c15-1 13 48-3 64-21 20-59 21-75 1zm720-17c-51-55 2-164 70-143 18 6 20 15 20 80 0 67-2 73-22 79-37 9-46 7-68-16zm1455-8c-30-58-12-125 38-136 44-9 72 23 72 85 0 59-17 81-61 81-27 0-36-6-49-30zm685 25c-19-23 3-65 34-65 13 0 31-3 40-6 22-8 22 49 0 70-20 20-58 21-74 1zm789-12c-23-26-18-109 7-134 30-30 77-19 94 22 14 32 8 92-11 115-16 19-73 18-90-3zm1238 19c-9-2-24-16-32-32-30-58-11-125 38-136 39-8 67 19 73 72 8 63-29 108-79 96zm849-120c-3-5 2-18 10-30 22-31 81-31 93 1 5 12 7 25 4 30-6 10-101 9-107-1zm779 88c-30-58-12-125 38-136 44-9 72 23 72 85 0 59-17 81-61 81-27 0-36-6-49-30zm701-88c-3-5 2-18 10-30 22-31 81-31 93 1 5 12 7 25 4 30-6 10-101 9-107-1zm960 0c-3-5 2-18 10-30 22-31 81-31 93 1 5 12 7 25 4 30-6 10-101 9-107-1zM360 1280V480h573c316 0 576 2 578 4s3 72 1 155l-3 151H780v290l338 2 337 3v310l-337 3-338 2v680H360v-800zm1472 658 3-143 128-3 127-3V770h-260V480h468c258 0 471 2 473 4s3 68 1 145l-3 141h-259v1020h259l3 141c2 77 1 143-1 145s-215 4-473 4h-469l3-142zm1390-655 3-798h465c461 0 466 0 530 23 81 29 139 62 181 104 102 103 116 316 29 443-35 51-105 113-137 121-13 4-23 9-23 13 0 3 28 17 63 30 82 32 124 59 171 111 69 76 81 117 81 265 0 128 0 131-34 197-75 146-208 237-409 277-33 7-218 11-488 11h-434l2-797zm786 485c62-16 118-60 132-103 7-21 10-67 8-106-3-59-7-72-33-99-53-56-82-63-287-68l-188-4v397l162-3c90-1 182-8 206-14zm-58-680c92-28 135-126 96-219-30-73-74-88-269-91l-137-3v161c0 88 2 163 5 165 8 9 270-2 305-13zm1050 192V480h1170v310h-750v270h690v320h-690l2 193 3 192 373 3 373 2-3 153-3 152-582 3-583 2v-800zm1622 3 3-798 435-3c485-3 539 2 652 58 84 42 121 71 167 133 52 69 71 138 71 258 0 113-21 192-71 270-35 56-127 137-190 169-21 11-39 25-39 30 0 9 195 263 452 589 32 40 58 78 58 82 0 5-115 9-256 9-239 0-258-1-273-19-9-10-106-141-216-290l-200-270-87-1h-88v580h-420l2-797zm703-94c68-12 123-45 156-91 21-29 24-44 24-125 0-91 0-92-34-127-50-52-102-64-276-68l-150-3-3 213-2 212h113c62 0 140-5 172-11zm1117 94 3-798 242-3 242-2 27 57c79 173 304 685 304 692 0 5 7 14 15 21 12 10 16 9 21-6 8-23 23-60 59-139 15-33 47-105 70-160 24-55 80-181 124-280l80-180 245-3 246-2v1600h-420l-2-516-3-517-59 139c-32 76-92 220-134 319-41 99-80 186-85 193-7 8-49 12-148 12h-139l-20-40c-11-21-29-62-40-91-12-29-29-71-39-93-10-23-56-131-102-241l-84-200-3 518-2 517h-400l2-797zm2023 780c33-85 569-1536 580-1570 3-10 62-13 249-13 223 0 244 1 251 17 10 27 245 662 425 1148 61 165 119 322 130 349 37 92 50 86-200 86-169 0-220-3-220-12 0-7-23-79-52-161l-52-147-290 2-290 3-18 50c-10 28-34 98-54 158l-37 107h-214c-201 0-215-1-208-17zm1005-613c0-10-143-427-160-468-6-13-10-33-10-45-1-21-1-21-15-3-7 10-23 46-34 80-23 73-136 403-146 429-7 16 6 17 179 17 113 0 186-4 186-10zm817 618c6-7 119-168 253-358 133-190 255-362 271-382s29-42 29-48-121-185-270-396c-148-212-270-390-270-395 0-6 98-8 242-7l241 3 158 235c86 129 161 236 166 237 5 2 83-105 173-237l165-240h228c142 0 227 4 227 10 0 5-60 92-133 192-250 344-407 566-407 574 0 5 126 191 280 414l279 405-241 3c-163 1-245-1-254-9-7-6-84-120-171-255-87-134-160-244-163-244s-70 98-150 217-157 233-173 255l-27 38h-231c-184 0-229-3-222-12zm1723-1502c0-45-3-54-20-59-11-3-20-12-20-21 0-13 12-16 65-16 58 0 65 2 65 20 0 13-7 20-20 20-18 0-20 7-20 55 0 52-1 55-25 55s-25-3-25-54zm120-20c0-69 2-76 20-76 12 0 26 12 35 30 17 33 35 40 35 12 0-23 19-42 42-42 16 0 18 9 18 75 0 68-2 75-20 75-16 0-20-7-20-35 0-38-14-47-23-15-7 27-25 25-37-2-9-24-12-19-14 22-1 15-8 26-18 28-16 3-18-5-18-72z"/></g></svg>