<svg version="1.0" xmlns="http://www.w3.org/2000/svg" fill="#1591cd" viewBox="0 0 762 600"><path d="M381.3 20.3C380.7 22 376.5 35 372 49s-8.5 26.6-9 28-4.6 14-9 28c-4.5 14-9.5 29.3-11 34s-6.5 20-11 34-9 28-10 31-5 15.6-9 28c-3.9 12.4-8.5 26.3-10 31s-6.1 18.6-10 31c-4 12.4-9.6 29.7-12.4 38.5-2.9 8.8-7.2 22.2-9.7 29.8-2.4 7.7-5.1 14.3-5.9 14.7-.9.5-4.7 1.5-8.5 2.3-3.9.8-27.5 6-52.5 11.6s-64.8 14.4-88.5 19.6c-23.6 5.2-44.7 9.9-46.7 10.5-3.5 1-3.7 1.3-6.9 10.8-1.8 5.3-5.2 15.3-7.6 22.2s-5.9 17-7.8 22.5c-1.8 5.5-7 20.6-11.5 33.5s-9.7 27.9-11.5 33.2l-3.4 9.8H243v31.8l137.3-.2 137.2-.1.2-15.3c.1-8.5.3-15.6.6-15.8.2-.2 50.4-.4 111.5-.4 61.2 0 111.2-.4 111.2-.9 0-.4-.4-2.1-.9-3.7s-2.1-6.7-3.5-11.4-6.2-20.7-10.7-35.5c-4.4-14.9-8.9-29.7-9.8-33-4.9-16.7-14.4-48-14.7-48.4-.3-.3-15.4-3.5-62.4-13.1-10.7-2.2-27.1-5.6-36.5-7.5-9.3-2-21.3-4.5-26.5-5.5-5.2-1.1-21.4-4.4-36-7.4s-30.1-6.2-34.5-7.1-8.8-1.8-9.7-2.1c-1.2-.4-3.1-4.8-6.4-15.2-7.1-22.8-13.9-44.6-17.9-57.7-2.1-6.6-4.8-15.4-6-19.5-1.3-4.1-4.5-14.3-7-22.5-2.6-8.3-6.7-21.5-9.2-29.5-2.4-8-6.6-21.5-9.3-30-5.5-17.6-11.1-35.6-20-64.5-3.4-11-6.5-21.1-7-22.5s-2.5-7.9-4.5-14.5c-6.6-21.7-11.6-38-12.5-40.5-1-2.8-8.8-28.1-11.7-37.7l-1.9-6.3-1.1 3.3zm1 62.9c.3 1.3 2.6 9.3 5.2 17.8 4.5 14.9 9 29.9 12.1 40.5.9 2.7 1.9 6.3 2.4 8 .4 1.6 1.9 6.6 3.3 11s5.3 17.4 8.7 29c3.4 11.5 7.4 25 9 30 1.5 4.9 6.9 22.9 12 40 5 17 9.5 32.1 10 33.5s4.6 14.9 9.1 30c4.4 15.1 10.3 34.9 13.1 44 7.3 24.4 15.4 51.6 20.3 68 3.7 12.6 4.5 14.6 6.6 15.2 1.3.4 9.8 1.7 18.9 2.8 14.7 1.9 36.7 5.1 44.2 6.6l2.7.5-1.8-6.3c-1-3.5-4.4-15-7.6-25.6-3.1-10.6-5.5-19.5-5.3-19.8.3-.2 3.4.2 6.9 1 3.5.9 14.5 3.1 24.4 5 68.7 13.4 84.7 16.9 90.9 19.7 9.5 4.2 18.2 14.6 20 23.8.9 4.7-.9 10.5-4.6 14.6-1.7 2-2.9 3.7-2.7 3.8l8.4 4.2c9.7 4.8 16.9 11.4 18.4 17 3.5 13-2.9 26.4-15.5 32.5-7.1 3.5-14.7 4-63.1 4-43.1 0-46.2-.1-46.7-1.8-.3-.9-2.6-8.7-5.1-17.2-4.2-14.1-10.7-35.2-11-35.7 0-.1-10.9-1.6-24.1-3.2-13.1-1.7-27.5-3.5-31.9-4.1-4.4-.5-8.7-1-9.6-1-1.3 0-.6 3.2 3.8 18.2 5.2 17.6 10 33.5 12.9 42.6.8 2.3 1.4 4.7 1.4 5.3s-5.1.9-13.7.7l-13.8-.3-9.8-34.6-9.8-34.5-16.7-1.2c-9.2-.7-24.8-1.5-34.7-1.8s-21.4-.7-25.5-.8c-16.2-.6-86.3 2.3-98.1 4l-3.7.5-7.6 27.2c-4.3 15-8.1 28.3-8.6 29.7-.4 1.4-1.4 4.6-2 7.2l-1.3 4.8h-12.3c-6.8 0-12.4-.3-12.4-.6 0-.6 7.8-27.7 10.1-34.9 3.4-11 8.8-30.9 8.5-31.2-.4-.4-27.1 2.1-50.6 4.7-4.7.5-15.2 1.6-23.5 2.5-16.3 1.7-16.1 1.7-63.7 7.5-17.9 2.2-32.9 4-33.2 4-.5 0-6.6 18.6-6.6 20.2 0 .4 23.4.8 52 .8s52 .2 52 .4-2.1 4.7-4.6 10l-4.5 9.6h-62.5c-34.3 0-62.4-.3-62.4-.8 0-.4 5.9-18 13.1-39.2s13.9-41.2 15-44.5 2.3-6.5 2.7-7.1 7.2-2.5 15.2-4.3c14-3 28.2-6.2 36.5-8.1 8.9-2.1 41-9.2 45.4-10 2.5-.5 10.7-2.3 18.1-4 7.4-1.6 14.2-3 15.1-3 1.5 0 1.4 1.1-1.2 9.7-1.6 5.3-3 9.7-3.2 9.9-.1.1-8.7 1.8-19.2 3.8-10.4 2-22.4 4.3-26.5 5.1-4.1.9-16.9 3.3-28.5 5.6-11.5 2.2-23.6 4.5-26.9 5.2l-5.9 1.2-2.7 9c-1.5 4.9-2.6 9.2-2.5 9.3.2.2 4.1-.1 8.7-.7s15.7-2 24.8-3.1 21.9-2.7 28.5-3.6c6.6-.8 16.1-2 21-2.5 5-.6 12.8-1.4 17.5-2 7.2-.8 17.5-1.8 52-5.3 2.5-.3 7.4-.8 11-1.1l6.5-.7 3.2-11.1c1.7-6.2 5.2-18.4 7.8-27.2s5-17.4 5.5-19c.4-1.7 2.4-8.6 4.5-15.5 6.5-22.2 12.7-43.4 13.5-46.5.5-1.7 6.5-22.6 13.5-46.5s13.1-44.9 13.5-46.5c.5-1.7 8.3-28.7 17.5-60 9.1-31.4 19.2-65.9 22.3-76.8 3.1-10.8 5.9-19.7 6.3-19.7s.9 1 1.2 2.2z"/><path d="M375.1 179.8c-3.5 12.5-8.6 30.1-11.2 39.2-7.5 25.9-19 65.9-20.9 73-1 3.6-8 27.9-15.5 54s-14.1 48.8-14.5 50.5c-1.6 5.9-4 14.3-9.4 32.8l-5.4 18.9 4.2-.6c9.7-1.4 59-3.6 81.1-3.6 22.8 0 75.9 2.4 79.8 3.6 1.5.5 1.8.2 1.3-1.3-1.1-3.5-12.7-43.8-14.1-48.8-.7-2.8-4.6-16.3-8.5-30-4-13.8-8-27.9-9-31.5s-6.4-22.5-12-42c-10.1-35-11-38.1-12.8-45-1-3.6-15.3-53.7-17.2-60-.5-1.9-2.8-9.8-5-17.4-2.2-7.7-4.1-14.1-4.3-14.2-.1-.1-3.1 10-6.6 22.4zM575 432.6c0 .3 1.8 6.7 4.1 14.2 2.2 7.6 4.3 14.5 4.6 15.4.6 2 1.2 2.1 20.3 4.3 7.4.8 19.1 2.3 25.9 3.1 15.2 2 26.1 1.5 29.9-1.3 2.2-1.7 2.8-2.9 3-7.3.3-4.8 0-5.6-2.9-8.6-3.9-4.1-14.2-7.5-32.9-10.9-1.9-.3-14.3-2.6-27.4-5.1-26.8-4.9-24.6-4.6-24.6-3.8zm15.4 53.1c.4 1.6 2.4 8.6 4.5 15.8l3.8 13h36.4c33 0 36.7-.2 40-1.8 4.8-2.4 6.3-5.8 4.8-10.6-.6-2-1.8-4.3-2.6-5.3-2.2-2.5-10.9-5.5-19.8-6.7-8.5-1.2-63.8-7.1-66.2-7.1-1.1 0-1.3.7-.9 2.7z"/></svg>