<?xml version="1.0" standalone="no"?>
<!DOCTYPE svg PUBLIC "-//W3C//DTD SVG 20010904//EN"
 "http://www.w3.org/TR/2001/REC-SVG-20010904/DTD/svg10.dtd">
<svg version="1.0" xmlns="http://www.w3.org/2000/svg"
 width="762.000000pt" height="600.000000pt" viewBox="0 0 762.000000 600.000000"
 preserveAspectRatio="xMidYMid meet">

<g transform="translate(0.000000,600.000000) scale(0.100000,-0.100000)"
fill="#000000" stroke="none">
<path d="M3813 5797 c-6 -17 -48 -147 -93 -287 -45 -140 -85 -266 -90 -280 -5
-14 -46 -140 -90 -280 -45 -140 -95 -293 -110 -340 -15 -47 -65 -200 -110
-340 -45 -140 -90 -280 -100 -310 -10 -30 -50 -156 -90 -280 -39 -124 -85
-263 -100 -310 -15 -47 -61 -186 -100 -310 -40 -124 -96 -297 -124 -385 -29
-88 -72 -222 -97 -298 -24 -77 -51 -143 -59 -147 -9 -5 -47 -15 -85 -23 -39
-8 -275 -60 -525 -116 -250 -56 -648 -144 -885 -196 -236 -52 -447 -99 -467
-105 -35 -10 -37 -13 -69 -108 -18 -53 -52 -153 -76 -222 -24 -69 -59 -170
-78 -225 -18 -55 -70 -206 -115 -335 -45 -129 -97 -279 -115 -332 l-34 -98
1115 0 1114 0 0 -159 0 -159 1373 2 1372 1 2 153 c1 85 3 156 6 158 2 2 504 4
1115 4 612 0 1112 4 1112 9 0 4 -4 21 -9 37 -5 16 -21 67 -35 114 -14 47 -62
207 -107 355 -44 149 -89 297 -98 330 -49 167 -144 480 -147 484 -3 3 -154 35
-624 131 -107 22 -271 56 -365 75 -93 20 -213 45 -265 55 -52 11 -214 44 -360
74 -146 30 -301 62 -345 71 -44 9 -88 18 -97 21 -12 4 -31 48 -64 152 -71 228
-139 446 -179 577 -21 66 -48 154 -60 195 -13 41 -45 143 -70 225 -26 83 -67
215 -92 295 -24 80 -66 215 -93 300 -55 176 -111 356 -200 645 -34 110 -65
211 -70 225 -5 14 -25 79 -45 145 -66 217 -116 380 -125 405 -10 28 -88 281
-117 377 l-19 63 -11 -33z m10 -629 c3 -13 26 -93 52 -178 45 -149 90 -299
121 -405 9 -27 19 -63 24 -80 4 -16 19 -66 33 -110 14 -44 53 -174 87 -290 34
-115 74 -250 90 -300 15 -49 69 -229 120 -400 50 -170 95 -321 100 -335 5 -14
46 -149 91 -300 44 -151 103 -349 131 -440 73 -244 154 -516 203 -680 37 -126
45 -146 66 -152 13 -4 98 -17 189 -28 147 -19 367 -51 442 -66 l27 -5 -18 63
c-10 35 -44 150 -76 256 -31 106 -55 195 -53 198 3 2 34 -2 69 -10 35 -9 145
-31 244 -50 687 -134 847 -169 909 -197 95 -42 182 -146 200 -238 9 -47 -9
-105 -46 -146 -17 -20 -29 -37 -27 -38 2 -1 40 -20 84 -42 97 -48 169 -114
184 -170 35 -130 -29 -264 -155 -325 -71 -35 -147 -40 -631 -40 -431 0 -462 1
-467 18 -3 9 -26 87 -51 172 -42 141 -107 352 -110 357 0 1 -109 16 -241 32
-131 17 -275 35 -319 41 -44 5 -87 10 -96 10 -13 0 -6 -32 38 -182 52 -176
100 -335 129 -426 8 -23 14 -47 14 -53 0 -6 -51 -9 -137 -7 l-138 3 -98 346
-98 345 -167 12 c-92 7 -248 15 -347 18 -99 3 -214 7 -255 8 -162 6 -863 -23
-981 -40 l-37 -5 -76 -272 c-43 -150 -81 -283 -86 -297 -4 -14 -14 -46 -20
-72 l-13 -48 -123 0 c-68 0 -124 3 -124 6 0 6 78 277 101 349 34 110 88 309
85 312 -4 4 -271 -21 -506 -47 -47 -5 -152 -16 -235 -25 -163 -17 -161 -17
-637 -75 -179 -22 -329 -40 -332 -40 -5 0 -66 -186 -66 -202 0 -4 234 -8 520
-8 286 0 520 -2 520 -4 0 -2 -21 -47 -46 -100 l-45 -96 -625 0 c-343 0 -624 3
-624 8 0 4 59 180 131 392 72 212 139 412 150 445 11 33 23 65 27 71 4 6 72
25 152 43 140 30 282 62 365 81 89 21 410 92 454 100 25 5 107 23 181 40 74
16 142 30 151 30 15 0 14 -11 -12 -97 -16 -53 -30 -97 -32 -99 -1 -1 -87 -18
-192 -38 -104 -20 -224 -43 -265 -51 -41 -9 -169 -33 -285 -56 -115 -22 -236
-45 -269 -52 l-59 -12 -27 -90 c-15 -49 -26 -92 -25 -93 2 -2 41 1 87 7 46 6
157 20 248 31 91 11 219 27 285 36 66 8 161 20 210 25 50 6 128 14 175 20 72
8 175 18 520 53 25 3 74 8 110 11 l65 7 32 111 c17 62 52 184 78 272 26 88 50
174 55 190 4 17 24 86 45 155 65 222 127 434 135 465 5 17 65 226 135 465 70
239 131 449 135 465 5 17 83 287 175 600 91 314 192 659 223 768 31 108 59
197 63 197 4 0 9 -10 12 -22z"/>
<path d="M3751 4202 c-35 -125 -86 -301 -112 -392 -75 -259 -190 -659 -209
-730 -10 -36 -80 -279 -155 -540 -75 -261 -141 -488 -145 -505 -16 -59 -40
-143 -94 -328 l-54 -189 42 6 c97 14 590 36 811 36 228 0 759 -24 798 -36 15
-5 18 -2 13 13 -11 35 -127 438 -141 488 -7 28 -46 163 -85 300 -40 138 -80
279 -90 315 -10 36 -64 225 -120 420 -101 350 -110 381 -128 450 -10 36 -153
537 -172 600 -5 19 -28 98 -50 174 -22 77 -41 141 -43 142 -1 1 -31 -100 -66
-224z"/>
<path d="M5750 1674 c0 -3 18 -67 41 -142 22 -76 43 -145 46 -154 6 -20 12
-21 203 -43 74 -8 191 -23 259 -31 152 -20 261 -15 299 13 22 17 28 29 30 73
3 48 0 56 -29 86 -39 41 -142 75 -329 109 -19 3 -143 26 -274 51 -268 49 -246
46 -246 38z"/>
<path d="M5904 1143 c4 -16 24 -86 45 -158 l38 -130 364 0 c330 0 367 2 400
18 48 24 63 58 48 106 -6 20 -18 43 -26 53 -22 25 -109 55 -198 67 -85 12
-638 71 -662 71 -11 0 -13 -7 -9 -27z"/>
</g>
</svg>
