<svg xmlns="http://www.w3.org/2000/svg" viewBox="0 0 453.543 453.543" xml:space="preserve"><defs><clipPath id="a" clipPathUnits="userSpaceOnUse"><path d="M0 340.157h340.157V0H0Z"/></clipPath></defs><g clip-path="url(#a)" transform="matrix(1.33333 0 0 -1.33333 0 453.543)"><path style="fill:#231f20;fill-opacity:1;fill-rule:nonzero;stroke:none" d="M0 0c0 11.3 6.827 18.834 16.95 18.834 8.711 0 14.362-4.473 15.538-12.713 8.241 9.182 19.07 14.126 31.547 14.126 14.361 0 25.897-5.651 35.078-17.186 9.417 11.064 24.249 17.186 35.784 17.186 27.545 0 46.379-15.774 46.379-45.673v-64.977c0-11.3-6.827-18.833-16.95-18.833-10.124 0-16.951 7.533-16.951 18.833v59.091c0 13.891-7.533 23.308-19.775 23.308-12.478 0-20.011-9.417-20.011-23.308v-59.091c0-11.3-6.827-18.833-16.951-18.833-10.123 0-16.95 7.533-16.95 18.833v59.091c0 13.891-7.534 23.308-19.776 23.308-14.126 0-20.012-9.417-20.012-23.308v-59.091c0-11.3-6.827-18.833-16.95-18.833S0-101.703 0-90.403z" transform="translate(83.557 275.557)"/><path style="fill:#00adef;fill-opacity:1;fill-rule:nonzero;stroke:none" d="M0 0c0-9.389-7.611-17-17-17S-34-9.389-34 0s7.611 17 17 17S0 9.389 0 0" transform="translate(117.257 136.305)"/><path style="fill:#ec008c;fill-opacity:1;fill-rule:nonzero;stroke:none" d="M0 0c0-9.389-7.611-17-17-17S-34-9.389-34 0s7.611 17 17 17S0 9.389 0 0" transform="translate(191.09 136.305)"/><path style="fill:#fff200;fill-opacity:1;fill-rule:nonzero;stroke:none" d="M0 0c0-9.389-7.611-17-17-17S-34-9.389-34 0s7.611 17 17 17S0 9.389 0 0" transform="translate(264.923 136.305)"/><path style="fill:#231f20;fill-opacity:1;fill-rule:nonzero;stroke:none" d="M0 0c.18 1.296 1.655 2.771 3.527 2.771 1.837 0 3.204-1.295 3.601-2.591l4.248-14.256h.072L15.696.18c.396 1.296 1.764 2.591 3.6 2.591 1.872 0 3.348-1.475 3.528-2.771l3.348-20.088c.036-.108.036-.216.036-.324v-.288c0-1.584-1.152-2.592-2.592-2.592-1.836 0-2.556.828-2.808 2.52L18.684-6.12h-.072l-4.32-15.084c-.288-.864-.937-2.088-2.88-2.088-1.944 0-2.593 1.224-2.88 2.088L4.212-6.12H4.14L2.016-20.772c-.252-1.692-.972-2.52-2.808-2.52-1.44 0-2.593 1.008-2.593 2.592v.288c0 .108 0 .216.036.324z" transform="translate(47.352 89.809)"/><path style="fill:#231f20;fill-opacity:1;fill-rule:nonzero;stroke:none" d="M0 0h6.84L3.492 10.44H3.42Zm-.396 13.068c.612 1.692 2.016 2.988 3.852 2.988 1.908 0 3.24-1.26 3.853-2.988l7.055-19.584c.252-.576.288-1.08.288-1.332 0-1.404-1.152-2.376-2.484-2.376-1.548 0-2.231.756-2.628 1.872L8.46-4.968H-1.548l-1.08-3.347c-.395-1.117-1.116-1.909-2.592-1.909-1.44 0-2.664 1.08-2.664 2.52 0 .576.144 1.009.252 1.188z" transform="translate(82.38 76.74)"/><path style="fill:#231f20;fill-opacity:1;fill-rule:nonzero;stroke:none" d="M0 0c0 1.836 1.152 2.808 2.7 2.808.684 0 1.8-.504 2.268-1.188L16.38-13.608h.072V0c0 1.836 1.153 2.808 2.7 2.808 1.548 0 2.701-.972 2.701-2.808v-20.448c0-1.836-1.153-2.808-2.701-2.808-.684 0-1.728.504-2.268 1.188L5.472-7.02H5.4v-13.428c0-1.836-1.152-2.808-2.7-2.808-1.548 0-2.7.972-2.7 2.808z" transform="translate(98.507 89.773)"/><path style="fill:#231f20;fill-opacity:1;fill-rule:nonzero;stroke:none" d="M0 0h-3.924c-1.727 0-2.448 1.224-2.448 2.483 0 1.261.9 2.485 2.448 2.485H9.324c1.548 0 2.448-1.224 2.448-2.485C11.772 1.224 11.053 0 9.324 0H5.4v-18.072c0-1.836-1.152-2.808-2.7-2.808-1.548 0-2.7.972-2.7 2.808z" transform="translate(127.703 87.397)"/><path style="fill:#231f20;fill-opacity:1;fill-rule:nonzero;stroke:none" d="M0 0c0 4.355-2.304 8.279-6.768 8.279S-13.536 4.355-13.536 0c0-4.393 2.196-8.28 6.768-8.28C-2.195-8.28 0-4.393 0 0m-19.152 0c0 7.523 5.04 13.247 12.384 13.247C.468 13.247 5.616 7.308 5.616 0c0-7.452-5.004-13.248-12.384-13.248-7.344 0-12.384 5.796-12.384 13.248" transform="translate(158.807 79.55)"/><path style="fill:#231f20;fill-opacity:1;fill-rule:nonzero;stroke:none" d="M0 0h3.672C5.977 0 7.38 1.656 7.38 3.816S5.977 7.632 3.672 7.632H0Zm-5.4 9.576c0 1.692.972 2.808 2.808 2.808H3.78c5.292 0 9.216-3.42 9.216-8.604 0-5.256-4.103-8.532-9-8.532H0v-5.904c0-1.836-1.151-2.808-2.7-2.808-1.548 0-2.7.972-2.7 2.808z" transform="translate(172.054 79.98)"/><path style="fill:#231f20;fill-opacity:1;fill-rule:nonzero;stroke:none" d="M0 0c0 4.355-2.305 8.279-6.769 8.279-4.463 0-6.767-3.924-6.767-8.279 0-4.393 2.195-8.28 6.767-8.28C-2.196-8.28 0-4.393 0 0m-19.152 0c0 7.523 5.04 13.247 12.383 13.247C.468 13.247 5.616 7.308 5.616 0c0-7.452-5.005-13.248-12.385-13.248-7.343 0-12.383 5.796-12.383 13.248" transform="translate(204.815 79.55)"/><path style="fill:#231f20;fill-opacity:1;fill-rule:nonzero;stroke:none" d="M0 0c0 1.836 1.152 2.808 2.7 2.808 1.548 0 2.7-.972 2.7-2.808v-12.564c0-3.312 2.088-5.94 5.544-5.94 3.276 0 5.508 2.772 5.508 5.94V0c0 1.836 1.152 2.808 2.7 2.808 1.548 0 2.7-.972 2.7-2.808v-12.852c0-6.048-4.967-10.62-10.908-10.62C4.932-23.472 0-19.008 0-12.852Z" transform="translate(212.446 89.773)"/><path style="fill:#231f20;fill-opacity:1;fill-rule:nonzero;stroke:none" d="M0 0c0 1.836 1.152 2.808 2.7 2.808 1.548 0 2.7-.972 2.7-2.808v-18.072h6.408c1.836 0 2.7-1.368 2.592-2.592-.036-1.188-1.008-2.376-2.592-2.376h-9C1.044-23.04 0-21.924 0-20.088Z" transform="translate(237.322 89.773)"/><path style="fill:#231f20;fill-opacity:1;fill-rule:nonzero;stroke:none" d="M0 0c0 4.355-2.304 8.279-6.768 8.279-4.463 0-6.767-3.924-6.767-8.279 0-4.393 2.195-8.28 6.767-8.28C-2.195-8.28 0-4.393 0 0m-19.151 0c0 7.523 5.04 13.247 12.383 13.247C.469 13.247 5.616 7.308 5.616 0c0-7.452-5.004-13.248-12.384-13.248-7.343 0-12.383 5.796-12.383 13.248" transform="translate(270.801 79.55)"/><path style="fill:#231f20;fill-opacity:1;fill-rule:nonzero;stroke:none" d="M0 0c0-1.404-.936-2.664-2.412-2.664-1.477 0-2.628 1.08-4.788 1.08-1.548 0-2.952-.792-2.952-2.34 0-3.744 12.024-1.332 12.024-10.62 0-5.184-4.212-8.352-9.217-8.352-2.771 0-8.748.684-8.748 4.032 0 1.404.937 2.556 2.412 2.556 1.693 0 3.708-1.404 6.049-1.404 2.411 0 3.672 1.332 3.672 3.096 0 4.284-12.024 1.692-12.024 10.045 0 5.039 4.139 8.171 8.927 8.171C-5.004 3.6 0 2.844 0 0" transform="translate(293.805 89.197)"/><path style="fill:#231f20;fill-opacity:1;fill-rule:nonzero;stroke:none" d="M0 0c0-.318-.227-.592-.577-.592-.592 0-.789.699-2.125.699-.986 0-1.716-.623-1.716-1.534 0-2.383 5.132-1.245 5.132-4.887 0-1.792-1.306-3.416-3.659-3.416-1.427 0-3.006.545-3.006 1.305 0 .364.183.683.561.683.441 0 1.109-.835 2.46-.835 1.381 0 2.216 1.002 2.216 2.201 0 2.551-5.131 1.336-5.131 4.858 0 1.26 1.2 2.779 3.189 2.779C-1.32 1.261 0 .699 0 0" transform="translate(50.715 54.782)"/><path style="fill:#231f20;fill-opacity:1;fill-rule:nonzero;stroke:none" d="M0 0c1.609 0 2.338.972 2.899.972.32 0 .532-.243.532-.622 0-.684-1.534-1.503-3.431-1.503-3.112 0-4.736 2.686-4.736 5.495 0 2.808 1.609 5.496 4.812 5.496 1.898 0 3.127-1.032 3.127-1.579 0-.35-.197-.638-.547-.638-.606 0-.926 1.063-2.58 1.063-2.399 0-3.386-2.278-3.386-4.342C-3.31 2.277-2.292 0 0 0" transform="translate(59.762 46.205)"/><path style="fill:#231f20;fill-opacity:1;fill-rule:nonzero;stroke:none" d="M0 0h1.821c1.398 0 2.004.592 2.004 1.988 0 1.002-.789 1.853-2.034 1.853H0Zm0-5.192c0-.44-.258-.713-.668-.713-.41 0-.668.273-.668.713v9.458c0 .41.213.729.714.729h2.474c1.701 0 3.309-1.154 3.309-2.915 0-2.186-1.336-3.021-2.944-3.066l-.577-.016 3.446-3.78c.167-.182.258-.38.258-.608 0-.288-.258-.515-.608-.515-.288 0-.44.136-.607.303L0-1.078Z" transform="translate(68.583 50.957)"/><path style="fill:#231f20;fill-opacity:1;fill-rule:nonzero;stroke:none" d="M0 0h3.219c.379 0 .652-.197.652-.623 0-.425-.273-.622-.652-.622H-.622c-.501 0-.714.318-.714.728v9.352c0 .41.213.729.714.729h3.841c.379 0 .652-.198.652-.623 0-.424-.273-.622-.652-.622H0V4.782h2.93c.379 0 .653-.197.653-.623 0-.425-.274-.622-.653-.622H0Z" transform="translate(79.27 46.388)"/><path style="fill:#231f20;fill-opacity:1;fill-rule:nonzero;stroke:none" d="M0 0h3.219c.379 0 .652-.197.652-.623 0-.425-.273-.622-.652-.622H-.622c-.501 0-.714.318-.714.728v9.352c0 .41.213.729.714.729h3.841c.379 0 .652-.198.652-.623 0-.424-.273-.622-.652-.622H0V4.782h2.93c.38 0 .653-.197.653-.623 0-.425-.273-.622-.653-.622H0Z" transform="translate(88.819 46.388)"/><path style="fill:#231f20;fill-opacity:1;fill-rule:nonzero;stroke:none" d="M0 0c0-.439-.258-.713-.668-.713-.41 0-.668.274-.668.713v9.488c0 .532.197.79.607.79s.577-.167.942-.698l5.465-7.849h.03v7.833c0 .441.258.714.668.714.41 0 .668-.273.668-.714V.076c0-.531-.197-.789-.607-.789s-.577.167-.942.698L.03 7.834H0Z" transform="translate(98.368 45.765)"/><path style="fill:#231f20;fill-opacity:1;fill-rule:nonzero;stroke:none" d="M0 0a2.688 2.688 0 0 0 2.702-2.702A2.688 2.688 0 0 0 0-5.404a2.688 2.688 0 0 0-2.702 2.702A2.688 2.688 0 0 0 0 0" transform="translate(119.5 53.25)"/><path style="fill:#231f20;fill-opacity:1;fill-rule:nonzero;stroke:none" d="M0 0h1.912c2.505 0 3.462 2.11 3.462 4.311 0 2.233-1.002 4.191-3.553 4.191H0Zm-1.336 8.927c0 .41.212.729.713.729h2.627c3.218 0 4.797-2.49 4.797-5.345 0-3.217-1.7-5.464-4.615-5.464H-.623c-.501 0-.713.318-.713.728z" transform="translate(135 46.296)"/><path style="fill:#231f20;fill-opacity:1;fill-rule:nonzero;stroke:none" d="M0 0c0-.439-.258-.713-.668-.713-.409 0-.668.274-.668.713v9.564c0 .441.259.714.668.714.41 0 .668-.273.668-.714z" transform="translate(147.297 45.765)"/><path style="fill:#231f20;fill-opacity:1;fill-rule:nonzero;stroke:none" d="M0 0c-.38 0-.652.197-.652.622 0 .426.272.623.652.623h2.247c.683 0 .972-.243.972-1.094 0-2.595-.942-5.191-4.615-5.191-3.113 0-4.737 2.686-4.737 5.495s1.548 5.496 4.934 5.496c2.231 0 3.704-1.169 3.704-1.73a.622.622 0 0 0-.638-.638c-.668 0-1.214 1.214-3.157 1.214-2.43 0-3.416-2.277-3.416-4.342 0-2.064.972-4.342 3.477-4.342 2.11 0 3.112 1.792 3.112 3.249V0z" transform="translate(157.59 50.092)"/><path style="fill:#231f20;fill-opacity:1;fill-rule:nonzero;stroke:none" d="M0 0c0-.439-.258-.713-.668-.713-.41 0-.668.274-.668.713v9.564c0 .441.258.714.668.714.41 0 .668-.273.668-.714z" transform="translate(166.136 45.765)"/><path style="fill:#231f20;fill-opacity:1;fill-rule:nonzero;stroke:none" d="M0 0h-2.02c-.378 0-.652.197-.652.622s.274.623.652.623h5.374c.38 0 .654-.198.654-.623S3.734 0 3.354 0H1.336v-8.942c0-.44-.258-.713-.668-.713-.41 0-.668.273-.668.713Z" transform="translate(172.528 54.707)"/><path style="fill:#231f20;fill-opacity:1;fill-rule:nonzero;stroke:none" d="M0 0h-.03l-2.08-5.845h4.19zm-3.218-8.941c-.106-.289-.289-.501-.653-.501-.349 0-.638.212-.638.561 0 .182.137.531.183.668L-.972.729c.183.47.426.82.957.82.532 0 .775-.35.956-.82l3.356-8.942c.045-.137.182-.486.182-.668 0-.349-.289-.561-.638-.561-.364 0-.546.212-.652.501L2.49-6.998h-5.01z" transform="translate(184.035 54.494)"/><path style="fill:#231f20;fill-opacity:1;fill-rule:nonzero;stroke:none" d="M0 0h2.853c.38 0 .654-.197.654-.623 0-.425-.274-.622-.654-.622H-.622c-.501 0-.714.318-.714.728v9.458c0 .441.258.714.668.714.41 0 .668-.273.668-.714Z" transform="translate(193.69 46.388)"/><path style="fill:#231f20;fill-opacity:1;fill-rule:nonzero;stroke:none" d="M0 0h1.974C3.295 0 4.19.986 4.19 2.216c0 1.048-.622 2.247-2.277 2.247H0Zm0-4.57c0-.44-.258-.713-.668-.713-.409 0-.668.273-.668.713v9.458c0 .41.213.729.714.729H2.02c2.17 0 3.506-1.518 3.506-3.401 0-1.867-1.487-3.37-3.461-3.37H0Z" transform="translate(209.007 50.335)"/><path style="fill:#231f20;fill-opacity:1;fill-rule:nonzero;stroke:none" d="M0 0h1.822c1.397 0 2.004.592 2.004 1.988 0 1.002-.789 1.853-2.034 1.853H0Zm0-5.192c0-.44-.258-.713-.668-.713-.409 0-.668.273-.668.713v9.458c0 .41.213.729.714.729h2.474c1.701 0 3.31-1.154 3.31-2.915 0-2.186-1.336-3.021-2.945-3.066l-.577-.016 3.446-3.78c.167-.182.258-.38.258-.608 0-.288-.258-.515-.607-.515-.289 0-.44.136-.607.303L0-1.078Z" transform="translate(219.695 50.957)"/><path style="fill:#231f20;fill-opacity:1;fill-rule:nonzero;stroke:none" d="M0 0c0-.439-.258-.713-.668-.713-.409 0-.668.274-.668.713v9.564c0 .441.259.714.668.714.41 0 .668-.273.668-.714z" transform="translate(230.382 45.765)"/><path style="fill:#231f20;fill-opacity:1;fill-rule:nonzero;stroke:none" d="M0 0c0-.439-.258-.713-.668-.713-.41 0-.668.274-.668.713v9.488c0 .532.197.79.607.79s.577-.167.942-.698l5.465-7.849h.03v7.833c0 .441.258.714.668.714.41 0 .668-.273.668-.714V.076c0-.531-.197-.789-.608-.789-.409 0-.576.167-.941.698L.03 7.834H0Z" transform="translate(236.289 45.765)"/><path style="fill:#231f20;fill-opacity:1;fill-rule:nonzero;stroke:none" d="M0 0h-2.02c-.378 0-.652.197-.652.622s.274.623.652.623h5.375c.379 0 .653-.198.653-.623S3.734 0 3.355 0H1.336v-8.942c0-.44-.258-.713-.668-.713-.41 0-.668.273-.668.713Z" transform="translate(249.724 54.707)"/><path style="fill:#231f20;fill-opacity:1;fill-rule:nonzero;stroke:none" d="M0 0c0-.439-.259-.713-.668-.713-.41 0-.668.274-.668.713v9.564c0 .441.258.714.668.714.409 0 .668-.273.668-.714Z" transform="translate(258.788 45.765)"/><path style="fill:#231f20;fill-opacity:1;fill-rule:nonzero;stroke:none" d="M0 0c0-.439-.259-.713-.668-.713-.41 0-.668.274-.668.713v9.488c0 .532.197.79.607.79s.577-.167.941-.698l5.466-7.849h.03v7.833c0 .441.258.714.668.714.41 0 .668-.273.668-.714V.076c0-.531-.197-.789-.608-.789-.41 0-.577.167-.941.698L.03 7.834H0Z" transform="translate(264.693 45.765)"/><path style="fill:#231f20;fill-opacity:1;fill-rule:nonzero;stroke:none" d="M0 0c-.379 0-.652.197-.652.622 0 .426.273.623.652.623h2.247c.684 0 .972-.243.972-1.094 0-2.595-.942-5.191-4.616-5.191-3.112 0-4.736 2.686-4.736 5.495s1.549 5.496 4.934 5.496c2.231 0 3.704-1.169 3.704-1.73a.622.622 0 0 0-.638-.638c-.668 0-1.214 1.214-3.157 1.214-2.429 0-3.416-2.277-3.416-4.342 0-2.064.972-4.342 3.477-4.342 2.11 0 3.112 1.792 3.112 3.249V0z" transform="translate(282.029 50.092)"/><path style="fill:#231f20;fill-opacity:1;fill-rule:nonzero;stroke:none" d="M0 0c0-.318-.228-.592-.576-.592-.593 0-.79.699-2.126.699-.986 0-1.715-.623-1.715-1.534 0-2.383 5.131-1.245 5.131-4.887 0-1.792-1.306-3.416-3.659-3.416-1.427 0-3.006.545-3.006 1.305 0 .364.183.683.562.683.44 0 1.108-.835 2.459-.835 1.382 0 2.217 1.002 2.217 2.201 0 2.551-5.132 1.336-5.132 4.858 0 1.26 1.199 2.779 3.189 2.779C-1.32 1.261 0 .699 0 0" transform="translate(294.63 54.782)"/></g></svg>