<svg xmlns="http://www.w3.org/2000/svg" viewBox="0 0 3400 630"><path d="M0 315V0h3400v630H0V315zm792 198c-27-32-59-67-71-77-37-34-27-70 49-178 39-55 70-101 70-104 0-2-24-4-53-4h-54l-83 107c-45 59-83 112-84 119-1 6 36 53 82 103l83 91h111l-50-57zm-412-44c34-50 35-56 40-163l5-111 57-5c53-5 59-8 92-50 20-25 36-51 36-57 0-10-61-13-270-13-192 0-270 3-270 11 0 6 16 33 36 60l36 49h118v225l36 52c20 29 39 53 43 53 3 0 22-23 41-51z" fill="transparent"/><path d="m281 518-51-72V220H112l-36-49c-28-37-36-58-36-90V40h600v43c0 33-8 51-36 87-33 42-39 45-92 50l-57 5-3 109-3 109-51 73c-29 41-55 74-59 74s-30-32-58-72zm759-158V260h108c59 0 113 4 120 9 9 5 12 25 10 57l-3 49-92 3-93 3v39c0 36-3 40-25 40h-25V360zm185-40c0-24-3-25-67-28l-68-3v62l68-3c64-3 67-4 67-28zm95 40V260h50v200h-50V360zm188 18-3-83-52-3c-38-2-53-7-53-18s23-14 130-14c109 0 130 2 130 15 0 11-12 15-50 15h-50v85c0 84 0 85-25 85-24 0-24-2-27-82zm187 61c-5-14-2-25 6-30 19-12 29-11 29 1 0 6 33 10 80 10 73 0 80-2 80-20s-7-20-76-20c-99 0-114-9-114-64 0-54 4-56 124-56 91 0 116 8 116 37 0 16-42 17-57 2-5-5-38-9-74-7-56 3-64 5-64 23s8 20 85 23c46 2 90 8 97 14 16 13 17 80 1 96-8 8-49 12-119 12-101 0-108-1-114-21zm297-76 3-98 28-3 28-3-3 98-3 98-28 3-28 3 3-98zm118-3V260h108c121 0 132 5 132 59 0 46-10 60-43 63-24 2-40 17-19 18 4 1 23 14 42 30l34 30h-35c-26 0-46-9-77-36-23-19-53-37-67-40-23-4-25-2-25 36 0 36-2 40-25 40h-25V360zm188-37c-3-27-5-28-70-31l-68-3v61h141l-3-27zm102 37V260h50v200h-50V360zm110 0V260h25c22 0 25 4 25 35 0 19 5 35 10 35 6 0 35-16 64-36 40-26 62-35 87-32l34 3-69 43c-38 24-65 47-60 51 5 5 40 29 79 55l70 46h-40c-30 0-55-10-100-40-33-22-63-40-67-40-5 0-8 18-8 40 0 36-2 40-25 40h-25V360zm280 81c-5-11-10-47-10-81 0-99 1-100 138-100 79 0 122 4 130 12 7 7 12 42 12 88s-5 81-12 88c-8 8-51 12-130 12-106 0-118-2-128-19zm218-82-3-61-83-1-82-2v125h171l-3-61zm107 80c-5-14-2-25 6-30 19-12 39-11 39 1 0 6 32 10 75 10 68 0 75-2 75-20s-7-20-76-20c-99 0-114-9-114-64 0-54 4-56 124-56 91 0 116 8 116 37 0 15-46 18-55 3-3-5-35-10-71-10-62 0-64 1-64 25 0 25 1 25 83 25 94 0 107 7 107 60 0 55-11 60-131 60-101 0-108-1-114-21z" fill="#2A479E"/><path d="M601 491 499 382l103-131 102-131h103c57 0 103 3 103 8-1 4-41 63-90 132l-88 124 94 102c52 56 94 105 94 108s-49 6-109 6H702L601 491z" fill="#ED262E"/></svg>