<svg xmlns="http://www.w3.org/2000/svg" viewBox="0 0 230.81 244.96" xml:space="preserve"><path d="M173.62 115.76c1.79-.21 3.5-.22 5.07 0 .91-2.09 1.07-5.69.25-9.61-1.22-5.83-2.87-9.36-6.27-8.81-3.41.55-3.53 4.77-2.31 10.6.68 3.28 1.9 6.08 3.26 7.82zm-29.25 4.61c2.44 1.07 3.94 1.78 4.52 1.16.38-.39.26-1.12-.32-2.07-1.2-1.96-3.68-3.96-6.3-5.07-5.37-2.31-11.77-1.54-16.71 2.01-1.63 1.19-3.18 2.85-2.96 3.85.07.33.32.57.89.65 1.34.15 6.04-2.22 11.45-2.55 3.83-.24 6.99.95 9.43 2.02zm-4.9 2.8c-3.17.5-4.93 1.55-6.05 2.52-.96.84-1.55 1.77-1.55 2.42a.75.75 0 0 0 .76.78c.72 0 2.32-.64 2.32-.64 4.42-1.58 7.33-1.39 10.22-1.06 1.6.18 2.35.28 2.7-.27.1-.16.23-.5-.09-1.01-.73-1.22-3.94-3.26-8.31-2.74zm24.27 10.27c2.16 1.06 4.53.64 5.3-.93.77-1.57-.35-3.7-2.5-4.76-2.16-1.06-4.53-.64-5.3.93-.78 1.57.35 3.7 2.5 4.76zm13.86-12.11c-1.75-.03-3.2 1.89-3.24 4.29-.04 2.4 1.35 4.37 3.1 4.4 1.75.03 3.2-1.89 3.24-4.29.04-2.4-1.35-4.37-3.1-4.4zm-117.62 43.3c-.44-.55-1.15-.38-1.84-.22-.48.11-1.03.24-1.63.23-1.29-.02-2.38-.58-2.99-1.52-.8-1.22-.75-3.05.13-5.14.12-.28.26-.59.41-.94 1.4-3.15 3.76-8.42 1.12-13.45-1.99-3.78-5.23-6.14-9.12-6.63-3.74-.47-7.59.91-10.04 3.62-3.87 4.27-4.48 10.09-3.73 12.14.27.75.7.96 1.02 1 .66.09 1.63-.39 2.24-2.03.04-.12.1-.3.17-.53.27-.87.78-2.49 1.61-3.78 1-1.56 2.56-2.64 4.39-3.03 1.86-.4 3.77-.04 5.36 1 2.71 1.78 3.76 5.1 2.6 8.27-.6 1.64-1.57 4.78-1.36 7.36.43 5.22 3.64 7.31 6.53 7.54 2.8.11 4.76-1.47 5.26-2.62.28-.68.03-1.09-.13-1.27z"/><path d="M221.78 155.09c-.11-.38-.8-2.92-1.76-5.98-.96-3.06-1.94-5.22-1.94-5.22 3.83-5.74 3.9-10.87 3.39-13.77-.54-3.6-2.04-6.67-5.07-9.84-3.02-3.17-9.2-6.42-17.89-8.86-.99-.28-4.27-1.18-4.56-1.27-.02-.19-.24-10.74-.44-15.28-.14-3.28-.43-8.39-2.01-13.43-1.89-6.82-5.19-12.78-9.3-16.6 11.35-11.76 18.43-24.72 18.42-35.84-.03-21.38-26.29-27.85-58.65-14.45-.03.01-6.81 2.89-6.86 2.91-.03-.03-12.39-12.16-12.58-12.32C85.65-27.04-29.7 101.18 7.18 132.32l8.06 6.83c-2.09 5.42-2.91 11.62-2.24 18.29.86 8.57 5.28 16.79 12.45 23.13 6.8 6.03 15.74 9.84 24.42 9.83 14.35 33.07 47.14 53.36 85.59 54.5 41.24 1.23 75.86-18.13 90.37-52.89.95-2.44 4.98-13.43 4.98-23.14 0-9.74-5.51-13.78-9.03-13.78zM53.04 181.12c-1.25.21-2.53.3-3.82.27-12.46-.33-25.91-11.55-27.25-24.85-1.48-14.7 6.03-26.01 19.33-28.7 1.59-.32 3.51-.51 5.58-.4 7.45.41 18.43 6.13 20.94 22.36 2.23 14.38-1.3 29.02-14.78 31.32zm-13.91-62.07c-8.28 1.61-15.58 6.3-20.04 12.78-2.67-2.22-7.64-6.53-8.51-8.21-7.12-13.53 7.77-39.83 18.18-54.68 25.72-36.7 66-64.49 84.65-59.45 3.03.86 13.07 12.5 13.07 12.5s-18.64 10.34-35.93 24.76c-23.28 17.94-40.88 44.01-51.42 72.3zm130.75 56.57c.27-.11.46-.42.43-.73a.683.683 0 0 0-.75-.61s-19.51 2.89-37.95-3.86c2.01-6.53 7.35-4.17 15.42-3.52 14.55.87 27.58-1.26 37.22-4.02 8.35-2.4 19.31-7.12 27.83-13.84 2.87 6.31 3.89 13.25 3.89 13.25s2.22-.4 4.08.75c1.76 1.08 3.04 3.33 2.16 9.13-1.79 10.85-6.4 19.66-14.15 27.76-4.72 5.08-10.45 9.5-17 12.71a71.931 71.931 0 0 1-11.1 4.69c-29.22 9.54-59.13-.95-68.77-23.48-.77-1.69-1.42-3.47-1.93-5.32-4.11-14.85-.62-32.66 10.28-43.88v-.01c.67-.71 1.36-1.55 1.36-2.61 0-.89-.56-1.82-1.05-2.48-3.81-5.53-17.03-14.96-14.38-33.21 1.9-13.11 13.37-22.34 24.06-21.79.9.05 1.81.1 2.71.16 4.63.27 8.67.87 12.49 1.03 6.38.28 12.12-.65 18.92-6.32 2.29-1.91 4.13-3.57 7.24-4.09.33-.06 1.14-.35 2.77-.27 1.66.09 3.24.54 4.66 1.49 5.45 3.63 6.22 12.41 6.5 18.83.16 3.67.6 12.54.76 15.09.35 5.82 1.88 6.65 4.97 7.67 1.74.57 3.36 1 5.74 1.67 7.21 2.03 11.49 4.08 14.19 6.72 1.61 1.65 2.36 3.4 2.59 5.07.85 6.2-4.82 13.87-19.82 20.83-16.4 7.61-36.3 9.54-50.05 8.01-1.05-.12-4.8-.54-4.82-.54-11-1.48-17.27 12.73-10.67 22.47 4.25 6.28 15.84 10.36 27.43 10.36 26.58 0 47.01-11.35 54.61-21.15.23-.29.25-.33.61-.87.37-.56.07-.87-.4-.56-6.21 4.25-33.79 21.11-63.28 16.04 0 0-3.58-.59-6.86-1.86-2.6-1.01-8.04-3.51-8.7-9.1 23.77 7.35 38.76.39 38.76.39zm-37.71-4.45s.01 0 0 0c.01.01.01.01.01.02 0-.01 0-.02-.01-.02zM86.63 68.79c9.14-10.57 20.4-19.75 30.48-24.91.35-.18.72.2.53.54-.8 1.45-2.34 4.55-2.83 6.91-.08.37.32.64.63.43 6.27-4.28 17.19-8.86 26.76-9.45.41-.03.61.5.28.75-1.46 1.12-3.05 2.66-4.21 4.22-.2.27-.01.65.32.65 6.72.05 16.2 2.4 22.37 5.86.42.23.12 1.04-.35.94-9.34-2.14-24.64-3.77-40.53.11-14.18 3.46-25.01 8.8-32.91 14.55-.38.3-.86-.22-.54-.6z"/></svg>